<?xml version="1.0" encoding="utf-8"?>
<!-- Generator: Adobe Illustrator 16.0.0, SVG Export Plug-In . SVG Version: 6.00 Build 0)  -->
<!DOCTYPE svg PUBLIC "-//W3C//DTD SVG 1.1//EN" "http://www.w3.org/Graphics/SVG/1.1/DTD/svg11.dtd">
<svg version="1.1" id="Capa_1" xmlns="http://www.w3.org/2000/svg" xmlns:xlink="http://www.w3.org/1999/xlink" x="0px" y="0px"
	 width="300px" height="300px" viewBox="0 0 300 300" enable-background="new 0 0 300 300" xml:space="preserve">
<g>
	<g>
		<g>
			<path fill="#EC255A" d="M-207.315,231.966c1.541-2.218,3.059-4.469,4.569-6.729l4.56-6.896c0.764-1.12,1.491-2.321,2.28-3.377
				l4.089,0.337l1.963,0.157c0.632,0.065,1.268,0.012,1.899,0.021c1.275-0.015,2.546,0.045,3.802-0.124
				c1.257-0.141,2.536-0.159,3.771-0.438c10.033-1.56,19.374-6.636,26.878-13.716c7.536-7.08,13.387-16.029,17.335-25.702
				c3.942-9.676,6.074-20.149,5.772-30.5c-0.151-5.168-0.936-10.298-2.455-15.162c-0.195-0.606-0.349-1.222-0.58-1.819l-0.694-1.772
				c-0.414-1.183-1.017-2.36-1.6-3.539l-1.743-3.542c-0.301-0.58-0.55-1.193-0.892-1.754l-1.023-1.673
				c-5.257-9.058-12.269-17.026-20.717-23.055c-8.389-6.14-18.333-9.93-28.578-11.734c-10.262-1.857-20.939-1.351-31.168,0.862
				c-10.183,2.092-19.748,6.729-27.695,13.357c-7.957,6.611-14.256,15.197-18.385,24.732c-4.13,9.526-6.108,20.001-5.75,30.385
				c0.339,10.374,3.083,20.69,7.927,29.818l0.909,1.658c0.292,0.558,0.602,1.115,0.993,1.647l1.111,1.618
				c0.355,0.514,0.802,1.233,1.19,1.844l0.607,0.951c0.2,0.326,0.366,0.729,0.547,1.086c0.344,0.744,0.744,1.482,1.014,2.231
				l0.703,2.314c0.485,1.209,0.494,2.613,0.005,3.879c-0.597,1.487-0.922,1.903-1.305,2.608c-0.38,0.654-0.757,1.253-1.139,1.858
				l-2.27,3.483c-1.501,2.281-2.993,4.53-4.318,6.765c-0.664,1.106-1.281,2.229-1.746,3.248c-0.103,0.246-0.216,0.502-0.288,0.708
				v-0.006l0.005-0.007c0.136,0.15,0.281,0.315,0.499,0.481l0.594,0.505l0.698,0.5c0.949,0.665,2.033,1.299,3.151,1.904
				c2.247,1.211,4.662,2.313,7.121,3.384c2.462,1.084,4.976,2.071,7.655,3.375c2.412,1.148,4.809,2.302,7.294,3.365l3.34,1.455
				l1.584,0.67l3.155,1.344c0,0,4.53,2.229,8.937,4.583c2.2,1.204,4.357,2.438,5.9,3.357c1.531,0.982,2.47,1.611,2.259,1.538
				c0.848,0.592,1.665,1.14,2.377,1.714c0.706,0.595,1.343,1.152,1.876,1.657c1.064,1.016,1.738,1.821,1.833,2.29
				c0.09,0.48-0.384,0.598-1.615,0.277c-0.615-0.166-1.411-0.441-2.417-0.849c-0.495-0.206-1.047-0.439-1.664-0.697
				c-0.624-0.24-1.313-0.502-2.07-0.792c-0.879-0.336-1.813-0.693-2.76-1.052c-0.964-0.344-1.948-0.689-2.928-1.041
				c-1.94-0.713-3.893-1.379-5.63-1.966c-3.462-1.195-6.031-2.076-6.031-2.076l-9.362-4.019c-2.573-1.101-5.15-2.366-7.704-3.567
				c-2.224-1.068-4.927-2.144-7.48-3.276c-2.597-1.138-5.207-2.333-7.811-3.795c-1.301-0.729-2.601-1.537-3.915-2.516
				c-0.326-0.22-0.659-0.54-0.986-0.809c-0.325-0.269-0.655-0.553-0.987-0.926l-0.647-0.702c-0.233-0.251-0.388-0.557-0.556-0.845
				l-0.491-0.88c-0.157-0.292-0.364-0.564-0.383-0.909c-0.325-1.313-0.05-2.667,0.41-4.01c0.334-0.92,0.665-1.613,1.012-2.323
				c0.702-1.396,1.445-2.657,2.199-3.892c1.504-2.461,3.069-4.791,4.583-7.098c0.75-1.149,1.503-2.299,2.175-3.407
				c0.342-0.548,0.666-1.103,0.905-1.574c0.061-0.124,0.02-0.044,0.034-0.071l-0.014-0.033l-0.011-0.026l-0.065-0.203l-0.25-0.853
				c-0.092-0.275-0.147-0.58-0.266-0.836l-0.363-0.752c-0.388-0.984-1.134-2.05-1.801-3.104c-0.771-1.193-1.664-2.323-2.383-3.619
				c-0.71-1.31-1.472-2.608-2.12-3.924c-0.616-1.32-1.271-2.628-1.85-3.965c-0.539-1.355-1.111-2.694-1.616-4.062
				c-1.998-5.478-3.352-11.192-4.032-16.978c-1.377-11.576-0.08-23.441,3.735-34.447c3.801-11.003,10.142-21.167,18.557-29.301
				c8.392-8.15,18.86-14.141,30.122-17.296c1.4-0.458,2.819-0.729,4.233-1.03l4.251-0.893l4.289-0.589
				c1.431-0.21,2.858-0.404,4.308-0.454l4.328-0.262c1.444-0.092,2.892,0.019,4.341,0.014c1.452,0.063,2.899-0.02,4.339,0.157
				l4.329,0.427c1.446,0.092,2.873,0.394,4.304,0.655c1.426,0.271,2.856,0.509,4.279,0.801l4.212,1.154l2.105,0.584
				c0.692,0.217,1.364,0.502,2.049,0.747l4.094,1.532c1.361,0.521,2.639,1.237,3.963,1.848l1.97,0.953l0.983,0.482l0.938,0.557
				l3.739,2.271c9.927,6.195,18.029,14.995,24.163,24.767l2.249,3.709l0.561,0.932l0.479,0.967l0.955,1.941l1.901,3.875
				c0.331,0.637,0.62,1.313,0.882,2.014l0.814,2.079c2.049,5.582,3.168,11.429,3.539,17.274c0.728,11.703-1.41,23.367-5.565,34.16
				c-4.191,10.785-10.473,20.835-18.867,29.015c-4.196,4.072-8.932,7.654-14.143,10.46c-5.204,2.812-10.888,4.829-16.759,5.826
				c-0.731,0.117-1.459,0.288-2.203,0.36l-2.225,0.203c-0.743,0.058-1.479,0.149-2.227,0.183l-2.23,0.011l-2.226,0.008l-2.22-0.178
				l-0.277-0.023c-0.075-0.007-0.02,0-0.039-0.003h0.004l0,0h-0.004l-4.403,6.655c-1.55,2.317-3.109,4.636-4.713,6.942
				c-2.302,3.302-4.551,6.548-7.3,9.847c-0.136,0.117-0.559,0.267-0.647,0.291c-1.248,0.269-2.38,0.255-3.042-0.082
				c-0.672-0.333-1.063-0.875-1.299-1.415c-0.249-0.556-0.397-1.128-0.514-1.605c-0.118-0.476-0.099-1.054-0.073-1.446
				c0-0.262,0.034-0.284,0.132-0.415C-211.839,238.421-209.544,235.153-207.315,231.966z"/>
		</g>
	</g>
	<g>
		<g>
			<path fill="#EC255A" d="M-227.977,220.968c3.642-6.584,7.366-13.25,11.87-19.579c2.228-3.181,4.748-6.229,7.496-9.104
				c2.785-2.868,5.987-5.458,9.549-7.564l2.735-1.472c0.868-0.416,1.75-0.827,2.629-1.212l5.139-2.275
				c3.331-1.504,6.624-3.064,9.212-4.957c1.25-0.932,2.354-1.984,2.807-2.882c0.27-0.456,0.351-0.826,0.377-1.203
				c0.053-0.368-0.038-0.782-0.213-1.277c-0.728-2.001-3.532-4.761-6.051-6.391c-2.637-1.715-5.71-2.705-8.235-2.361
				c-1.259,0.17-2.38,0.63-3.39,1.423l-0.735,0.655c-0.248,0.21-0.467,0.53-0.706,0.79c-0.497,0.552-0.78,1.02-0.965,1.454
				c-0.37,0.865-0.343,1.584,0.065,2.447c0.397,0.842,1.303,1.688,2.188,2.046c0.429,0.184,0.846,0.254,1.057,0.222
				c0.219-0.037,0.216-0.052,0.311-0.124c0.088-0.079,0.28-0.361,0.417-0.853c0.085-0.223,0.118-0.537,0.176-0.829l0.124-1.218
				c0.283-3.283-0.16-6.447-1.597-8.423c-1.343-1.987-3.898-3.013-6.962-3.076c-3.029-0.066-6.354,0.761-9.126,2.171
				c-1.366,0.689-2.645,1.621-3.267,2.411l-0.158,0.213l0.183,0.125l0.231-0.578c0.204-0.58,0.358-1.271,0.447-1.989
				c0.361-2.896-0.25-6.233-1.684-8.301c-1.389-2.027-3.586-2.777-5.753-2.027c-2.283,0.742-4.711,3.168-6.188,5.786
				c-0.371,0.656-0.681,1.328-0.882,1.922c-0.112,0.301-0.153,0.551-0.192,0.728c-0.004,0.04,0.003,0.046-0.004,0.072l-0.006,0.032
				c-0.1-0.017-0.317-0.025-0.469-0.023c-0.729,0.044-1.27,0.116-1.657,0.276c-0.355,0.107-0.508,0.344-0.422,0.226
				c0.01-0.025,0.014-0.046,0.014-0.06c1.052-5.021,0.344-1.383,0.599-2.498l0.086,0.02l0.341,0.086l0.344,0.085
				c0.092,0.017-0.056-0.053-0.079-0.053c-0.018-0.059-0.064,0.132-0.089,0.227c-0.026,0.113-0.046,0.234-0.054,0.352
				c-0.01,0.304-0.018,0.35-0.01,0.491c0.013,0.124,0.045,0.255,0.103,0.387c0.041,0.094,0.037,0.094,0.037,0.094
				c0,0.013,0.003,0.019,0.005,0.032c0,0.014,0.047,0.085,0.036,0.062c-0.049-0.075-0.106-0.127-0.164-0.168
				c-0.037,0.003-0.432-0.334-0.709-0.406c-0.079-0.028-0.128-0.021-0.237-0.071c-0.121-0.059-0.232-0.1-0.35-0.146
				c-0.008-0.006-0.004-0.012,0.005-0.019c0.039-0.164,0.041-0.784-0.064-1.41c-0.125-0.65-0.307-1.359-0.577-2.065
				c-0.504-1.419-1.288-2.802-2.174-3.982c-0.882-1.194-1.955-2.123-2.867-2.531c-0.455-0.205-0.838-0.31-1.178-0.277
				c-0.34-0.022-0.685,0.109-1.109,0.299c-0.845,0.443-1.847,1.453-2.733,2.706c-0.74,1.069-1.137,2.195-1.28,3.515
				c-0.279,2.651,0.724,5.894,2.151,9.015c1.432,3.153,3.299,6.283,5.228,9.472c0.969,1.598,1.955,3.215,2.928,4.907
				c0.964,1.705,1.933,3.433,2.74,5.498c0.41,0.976,0.789,2.292,0.945,3.571c0.133,1.22,0.158,2.388,0.072,3.481
				c-0.149,2.2-0.561,4.231-1.052,6.188c-0.502,1.952-1.093,3.838-1.736,5.678l-0.953,2.613l-0.635,1.648l-1.331,3.259
				c0,0-0.57,1.142-1.418,2.842c-0.86,1.686-2.025,3.909-3.183,6.089c-2.337,4.35-4.528,8.562-4.434,8.156
				c-1.974,3.478-3.513,6.283-4.325,6.77c-0.802,0.525-1.306-1.703,0.582-8.084c1.008-3.777,2.546-8.197,3.746-11.671
				c1.199-3.456,2.083-6.016,2.083-6.016l1.314-3.169l0.628-1.586l0.301-0.789l0.149-0.397l0.348-0.951l0.458-1.298
				c1.192-3.433,2.187-6.977,2.348-10.103c0.029-0.753,0.002-1.507-0.106-2.081c-0.042-0.516-0.338-1.218-0.626-1.96
				c-0.642-1.495-1.51-3.075-2.432-4.669c-1.865-3.188-3.951-6.442-5.869-9.91c-1.896-3.483-3.748-7.163-4.682-11.555
				c-0.44-2.188-0.65-4.601-0.155-7.082c0.262-1.221,0.626-2.465,1.227-3.595c0.557-1.159,1.297-2.169,1.988-3.036
				c1.439-1.763,3.373-3.659,6.305-4.559c1.475-0.379,3.096-0.473,4.564-0.124c1.445,0.344,2.776,0.931,3.825,1.684
				c2.178,1.466,3.642,3.303,4.883,5.2c1.22,1.918,2.138,3.945,2.755,6.211c0.289,1.157,0.537,2.325,0.52,3.764
				c0.021,0.332-0.029,0.744-0.071,1.128c-0.024,0.364-0.122,0.813-0.26,1.266c-0.098,0.416-0.325,0.936-0.605,1.433
				c-0.217,0.47-0.719,1.011-1.18,1.453c-0.477,0.437-1.132,0.777-1.729,1.037c-0.567,0.168-1.186,0.318-1.763,0.345
				c-0.568,0.006-1.203-0.046-1.707-0.131l-0.698-0.17l-0.172-0.051c-0.622-0.173-0.398-0.135-0.643-0.219
				c-0.131-0.063-0.262-0.126-0.389-0.193c-0.525-0.267-0.95-0.641-1.316-1.079c-0.702-0.859-0.925-1.694-1.041-2.309
				c-0.179-1.221-0.042-2.034,0.092-2.75c0.297-1.419,0.767-2.491,1.27-3.549c0.516-1.042,1.101-2.001,1.752-2.924
				c1.292-1.835,2.834-3.504,4.731-4.929c1.903-1.388,4.253-2.587,7.003-2.843c1.355-0.125,2.76-0.02,4.086,0.325
				c1.292,0.352,2.557,0.908,3.688,1.671c2.256,1.545,3.828,3.735,4.776,5.933c0.976,2.219,1.437,4.495,1.595,6.764
				c0.11,2.277-0.03,4.552-0.763,6.948c-0.199,0.615-0.422,1.195-0.743,1.859c-0.423,0.854-0.978,1.629-1.611,2.302
				c-0.632,0.686-1.42,1.169-2.238,1.558c-0.842,0.341-1.745,0.49-2.652,0.419c-0.878-0.129-1.744-0.361-2.593-0.821
				c-0.218-0.105-0.422-0.189-0.636-0.32l-0.594-0.359c-0.288-0.18-0.667-0.483-0.982-0.736c-1.436-1.213-2.458-2.953-2.55-4.827
				c-0.046-0.93,0.111-1.869,0.429-2.759c0.315-0.875,0.88-1.777,1.284-2.298c0.877-1.135,1.824-1.949,2.778-2.665
				c1.911-1.409,3.906-2.367,5.954-3.128c2.058-0.747,4.184-1.252,6.385-1.501c2.205-0.242,4.487-0.216,6.821,0.262
				c2.315,0.48,4.709,1.5,6.696,3.186c2.007,1.662,3.407,3.958,4.207,6.24c0.773,2.3,1.06,4.596,1.063,6.781
				c0.007,1.096-0.046,2.178-0.157,3.227l-0.074,0.795l-0.161,0.945c-0.105,0.634-0.298,1.315-0.555,1.993
				c-0.509,1.345-1.453,2.852-2.974,3.901c-1.511,1.063-3.383,1.46-4.966,1.353c-3.183-0.271-5.568-1.791-7.402-3.813
				c-1.809-2.019-3.003-5.003-2.636-8.031c0.16-1.492,0.689-2.894,1.38-4.067c0.331-0.624,0.725-1.089,1.098-1.602l1.148-1.338
				c1.667-1.752,3.895-3.233,6.353-3.955c2.462-0.746,5.032-0.757,7.346-0.317c2.328,0.435,4.457,1.281,6.409,2.351
				c1.93,1.055,3.771,2.418,5.306,3.857c1.567,1.462,3.123,3.089,4.359,5.326c0.616,1.091,1.107,2.424,1.328,3.876
				c0.242,1.457,0.05,3.062-0.41,4.454c-0.984,2.846-2.831,4.652-4.536,6.112c-3.513,2.821-7.152,4.504-10.708,6.153l-5.263,2.328
				c-1.713,0.755-3.428,1.542-4.86,2.359c-2.976,1.659-5.759,3.767-8.244,6.337c-2.494,2.541-4.834,5.314-6.952,8.324
				c-4.294,5.963-7.963,12.536-11.645,19.184c-1.903,3.457-3.812,6.962-5.824,10.444c-0.113,0.138-0.46,0.321-0.539,0.352
				c-4.58,1.735-5.646-1.624-5.748-3.454c-0.044-0.281-0.008-0.338,0.074-0.484C-231.806,227.904-229.919,224.449-227.977,220.968z"
				/>
		</g>
	</g>
	<g>
		<g>
			<path fill="#EC255A" d="M-208.417,248.167c0.421,0.592,0.749,1.255,1.093,1.89c0.249,0.688,0.518,1.377,0.68,2.086
				c0.105,0.718,0.28,1.449,0.261,2.178c0.027,1.422-0.227,2.972-0.74,4.297c-0.249,0.668-0.583,1.277-0.923,1.892
				c-0.398,0.608-0.82,1.21-1.36,1.775c-1.144,1.238-2.741,2.224-4.344,2.668c-1.604,0.464-3.142,0.507-4.532,0.394
				c-2.795-0.249-5.136-1.063-7.334-1.947c-2.201-0.899-4.234-1.934-6.198-2.972l-2.867-1.523l-2.867-1.45
				c-7.824-3.98-15.524-8.164-23.063-12.775c-1.642-1.01-3.277-2.042-4.896-3.109c0,0-4.157-3.01-7.969-6.476
				c-1.897-1.726-3.701-3.611-4.893-5.183c-1.199-1.568-1.771-2.841-1.605-2.633c-0.276-0.553-0.497-1.115-0.686-1.811
				c-0.187-0.682-0.27-1.434-0.198-2.094c0.12-1.336,0.819-2.405,1.617-3.023c0.808-0.623,1.632-0.884,2.144-0.96
				c0.544-0.09,0.941-0.037,1.168,0.047c0.456,0.214,0.206,0.648-0.64,1.478c-0.404,0.426-0.835,0.919-1.022,1.659
				c-0.074,0.375-0.052,0.794,0.105,1.185c0.152,0.391,0.383,0.737,0.801,1.31c1.014,1.226,2.55,2.491,4.146,3.663
				c1.603,1.17,3.292,2.258,4.806,3.197c3.046,1.87,5.382,3.166,5.382,3.166c1.794,1.199,3.629,2.355,5.479,3.495
				c7.301,4.457,14.888,8.581,22.561,12.478l2.953,1.495l2.89,1.535c1.878,0.991,3.728,1.923,5.558,2.667
				c1.819,0.744,3.659,1.322,5.213,1.439c0.766,0.068,1.438,0.014,1.928-0.13c0.5-0.146,0.809-0.357,1.145-0.703
				c1.453-1.616,1.462-4.185-0.183-5.67c-0.054-0.075-0.062-0.352-0.057-0.424c0.065-1.907,0.009-3.489,0.868-4.369
				c0.396-0.438,0.964-0.7,1.611-0.814c0.322-0.064,0.662-0.087,0.997-0.07c0.316,0.039,0.638,0.108,0.931,0.198
				c0.363,0.085,0.433,0.146,0.62,0.31C-209.297,246.999-208.879,247.612-208.417,248.167z"/>
		</g>
	</g>
	<g>
		<g>
			<path fill="#EC255A" d="M-214.746,270.773c-1.017,1.479-2.663,2.334-4.571,2.521c-0.486,0.021-0.958,0.105-1.451,0.073
				l-1.454-0.079c-0.598-0.078-1.195-0.162-1.745-0.274c-1.13-0.218-2.185-0.482-3.216-0.788c-3.107-0.919-5.994-2.058-8.848-3.289
				l-2.132-0.959l-2.023-0.96c-1.269-0.587-2.652-1.167-4.016-1.752c-5.521-2.328-11.129-4.734-16.606-7.531
				c-1.741-0.876-3.458-1.819-5.17-2.792c0,0-1.096-0.711-2.693-1.85c-1.602-1.126-3.688-2.73-5.628-4.552
				c-1.938-1.811-3.701-3.91-4.727-5.714c-1.052-1.783-1.366-3.163-1.237-2.924c-0.16-0.607-0.328-1.18-0.353-1.798
				c-0.068-0.605-0.1-1.174-0.014-1.747c0.052-0.556,0.115-1.082,0.301-1.557c0.174-0.472,0.263-0.935,0.507-1.291
				c0.799-1.533,1.786-2.168,2.209-2.306c0.479-0.095,0.567,0.412,0.327,1.592c-0.151,1.167-0.642,3.117,0.652,5.481
				c1.561,2.773,5.112,5.354,8.09,7.109c1.479,0.9,2.839,1.61,3.804,2.117c0.976,0.491,1.558,0.788,1.558,0.788
				c1.824,1.075,3.701,2.103,5.621,3.073c5.206,2.651,10.625,4.984,16.154,7.313c1.388,0.589,2.768,1.167,4.226,1.832l2.037,0.974
				l1.973,0.886c2.646,1.146,5.352,2.201,7.999,2.975c0.873,0.257,1.736,0.475,2.558,0.629c0.418,0.092,0.802,0.136,1.187,0.19
				c0.048,0.007,0.017,0.007,0.026,0.007v-0.007c0.037,0.007,0.234-0.041,0.291-0.065c0.179-0.058,0.346-0.157,0.502-0.271
				c0.123-0.188,0.22-0.401,0.328-0.584c0.22-0.379,0.458-0.718,0.703-1.001c0.485-0.576,1.023-0.917,1.61-1.064
				c0.581-0.145,1.195-0.076,1.789,0.136c0.152,0.052,0.297,0.112,0.441,0.178c0.141,0.058,0.282,0.148,0.431,0.313
				c0.292,0.288,0.572,0.613,0.83,0.947c0.306,0.384,0.396,0.506,0.436,0.832C-213.538,267.45-213.738,269.294-214.746,270.773z"/>
		</g>
	</g>
	<g>
		<g>
			<path fill="#EC255A" d="M-217.138,275.234c-1.521,2.046-3.886,3.819-6.436,4.641c-2.212,0.734-4.43,0.879-6.45,0.755
				c-2.034-0.129-3.929-0.495-5.74-0.95c-3.617-0.914-6.928-2.158-10.175-3.367l-4.808-1.804l-4.864-1.745
				c-3.311-1.227-6.588-2.595-9.815-4.141c-1.778-0.862-3.535-1.787-5.275-2.798c0,0-1.117-0.716-2.725-1.916
				c-1.603-1.199-3.69-2.912-5.53-4.966c-0.925-1.008-1.763-2.153-2.479-3.26c-0.674-1.147-1.229-2.277-1.558-3.312
				c-0.689-2.06-0.608-3.489-0.557-3.221c-0.105-2.524,0.768-4.663,1.656-5.985c0.89-1.354,1.828-1.983,2.264-2.107
				c0.485-0.092,0.583,0.405,0.298,1.592c-0.203,1.168-0.918,3.188-0.306,5.809c0.419,1.525,1.317,3.02,2.553,4.347
				c1.222,1.32,2.702,2.479,4.084,3.416c1.385,0.948,2.704,1.67,3.628,2.187c0.951,0.495,1.513,0.799,1.513,0.799
				c1.773,1.072,3.633,2.06,5.542,2.979c2.972,1.424,6.051,2.706,9.193,3.867l4.846,1.74l4.853,1.814
				c3.194,1.195,6.341,2.358,9.4,3.122c3.039,0.779,6.06,1.088,8.169,0.353c1.218-0.418,2.187-1.111,3.042-2.233
				c0.85-1.112,1.54-2.585,2.058-4.204c0.076-0.124,0.357-0.336,0.424-0.375c1.929-1.188,3.415-1.337,4.474-0.76
				c1.053,0.543,1.699,1.775,1.923,2.779c0.081,0.296,0.066,0.365,0.004,0.56C-214.624,270.987-215.582,273.191-217.138,275.234z"/>
		</g>
	</g>
	<g>
		<g>
			<g>
				<path fill="#EC255A" d="M-239.91,287.223c-2.193,1.45-4.549,2.215-6.845,2.665c-5.214,0.933-10.246,0.26-15.016-1.153
					c-2.006-0.66-3.977-1.422-5.861-2.44c0,0-1.236-0.707-2.915-1.995c-1.697-1.258-3.788-3.257-5.383-5.639
					c-1.633-2.358-2.607-5.108-2.97-7.123c-0.359-2.029-0.237-3.288-0.201-3.052c-0.008-2.307,0.609-4.295,1.183-5.713
					c0.653-1.404,1.304-2.277,1.718-2.497c0.439-0.208,0.662,0.233,0.694,1.48c0.004,0.613-0.058,1.429-0.005,2.475
					c0.002,0.519-0.021,1.082,0.07,1.712c0.075,0.62,0.079,1.298,0.273,2.011c0.656,3.434,2.953,6.772,5.466,8.701
					c1.208,1.017,2.426,1.72,3.281,2.21c0.875,0.474,1.418,0.723,1.418,0.723c1.677,0.946,3.484,1.73,5.354,2.324
					c3.797,1.13,7.935,1.609,11.58,0.922c1.586-0.308,3.064-0.832,4.175-1.582c1.119-0.747,1.831-1.646,2.199-2.739
					c0.055-0.084,0.317-0.21,0.384-0.241c1.758-0.836,3.216-1.453,4.351-1.013c1.089,0.363,1.938,1.685,2.089,2.889
					c0.068,0.352,0.043,0.443-0.038,0.672C-235.775,283.488-237.73,285.799-239.91,287.223z"/>
			</g>
		</g>
		<g>
			<g>
				<path fill="#EC255A" d="M-249.474,274.257c1.829,0.48,3.692,1.074,5.555,1.806l1.393,0.61l0.687,0.302l0.347,0.156l0.09,0.043
					v0.001c-0.868,3.028,1.942-6.766-1.939,6.786l-0.005-0.006h-0.013h-0.025l-0.041-0.008l-0.168-0.017l-2.686-0.244l0,0
					c-3.734-0.336-7.57-0.746-11.433-1.453c-1.933-0.377-3.875-0.796-5.829-1.415l-1.462-0.463l-1.776-0.684
					c-0.869-0.334-1.625-0.797-2.404-1.22l-1.164-0.644c-0.373-0.217-0.822-0.412-1.08-0.678l-1.785-1.482
					c-0.331-0.252-0.551-0.502-0.75-0.76l-0.638-0.77c-0.912-1.024-1.497-2.056-2.33-3.191l-1.26-1.816l-0.155-0.223
					c-0.055-0.039,0.01-0.053,0.052-0.069l0.131-0.049l0.528-0.205l1.054-0.399c1.337-0.497,2.512-0.972,3.791-1.389l0.94-0.325
					c0.345-0.09,0.742-0.139,1.113-0.208l1.122-0.202l0.562-0.1c0.197-0.025,0.423-0.019,0.638-0.025l2.586-0.072
					c0.875,0.052,1.765,0.168,2.646,0.249l0.664,0.064l0.326,0.041l0.19,0.035l0.766,0.145c0.506,0.11,1.027,0.184,1.518,0.319
					c1,0.237,1.991,0.496,2.953,0.812c1.644,0.506,3.234,1.124,4.802,1.798c0.821,0.376,1.351,0.579,2.819,1.371
					c0.633,0.344,1.252,0.628,1.894,1.022l1.917,1.203c1.286,0.802,2.397,1.618,3.646,2.459l0.471,0.319l0.227,0.164
					c0.07,0.053,0.2,0.103,0.101,0.157l-0.562,0.642l-1.289,1.471c-0.833,0.932-1.544,1.851-2.596,2.673
					c-0.513,0.409-1.119,0.786-1.703,1.152c-0.687,0.3-1.267,0.709-2.023,0.924c-0.745,0.243-1.428,0.531-2.239,0.69l-0.93,0.19
					l-0.718,0.099c-0.953,0.135-1.903,0.181-2.842,0.185c-1.874,0-3.71-0.219-5.5-0.633c-3.561-0.838-7.026-2.348-10.011-4.972
					c-0.851-0.748-1.646-1.607-2.339-2.592c-0.174-0.261-0.336-0.456-0.558-0.839l-0.623-1.189
					c-0.233-0.391-0.364-0.808-0.509-1.218c-0.131-0.412-0.327-0.826-0.403-1.233c-0.391-1.657-0.409-3.188-0.575-4.878
					c-0.005-0.1-0.021-0.212-0.019-0.306l0.286-0.108l0.563-0.21l1.133-0.43l0.801-0.302l0.588-0.141
					c1.567-0.322,3.142-0.873,4.858-0.771c1.047-0.052,2.012,0.056,3.002,0.122c0,0,0.363,0.034,0.954,0.159
					c0.591,0.136,1.464,0.268,2.438,0.539c1.989,0.488,4.494,1.354,6.889,2.334c4.783,1.978,9.016,4.658,8.597,4.518
					c3.521,2.296,5.952,4.926,6.029,5.894c0.049,0.482-0.443,0.55-1.617,0.133c-1.179-0.406-3.065-1.266-6.031-2.396
					c-3.531-1.263-7.862-2.532-11.279-3.211c-0.849-0.148-1.647-0.286-2.361-0.411c-0.708-0.087-1.334-0.163-1.857-0.232
					c-1.016-0.068-1.632-0.118-1.632-0.118c-0.828-0.124-1.633-0.143-2.426-0.197l-0.576,0.014c-0.078,0-0.021,0-0.046,0h-0.01
					c0,0-0.027,0.008-0.014,0.02l0.004,0.014l0.116,0.157c0.356,0.553,0.849,1.075,1.39,1.569c1.768,1.573,4.256,2.733,6.837,3.324
					c1.293,0.3,2.619,0.452,3.907,0.449c0.64-0.003,1.278-0.036,1.89-0.122l0.458-0.064l0.22-0.046c0.076-0.016,0.002,0,0.013-0.002
					c-0.027,0.006-0.006,0.002-0.006,0.002c0.018-0.007,0.033-0.022,0.006-0.028l-0.181-0.09c0.092,0.033-0.836-0.386-1.453-0.663
					c-1.335-0.576-2.701-1.103-4.081-1.525c-0.811-0.264-1.627-0.476-2.441-0.673c-0.411-0.116-0.818-0.176-1.224-0.255
					l-0.808-0.157l-0.104-0.012l-0.009,0.001c-0.025,0-0.004,0.019,0.007,0.021l0.014,0.006h0.012l0.255,0.099l0.574,0.221
					l1.203,0.381c1.61,0.51,3.313,0.878,5.042,1.216c3.484,0.639,7.075,1.028,10.77,1.361l0,0l2.716,0.25l0.166,0.012l0.044,0.007
					h0.021h0.019h0.003c-3.878,13.527-1.078,3.753-1.942,6.771h-0.003l-0.073-0.032l-0.274-0.117l-0.547-0.238l-1.089-0.485
					c-1.504-0.585-3.083-1.089-4.745-1.535c-3.638-0.983-7.729-1.735-11.831-3.386c-0.158-0.097-0.416-0.431-0.464-0.515
					c-1.304-2.251-0.912-3.656-0.139-4.575c0.79-0.924,1.99-1.385,2.819-1.572c0.253-0.078,0.301-0.06,0.442,0.001
					C-257.237,272.481-253.484,273.197-249.474,274.257z"/>
			</g>
		</g>
	</g>
	<g>
		<g>
			<path fill="#EC255A" d="M-52.273,145.3h0.053c0.007-0.15,0.009,0.361,0.019,0.709l0.05,1.037c0.07,1.117,0.2,1.708,0.314,1.75
				c-0.052-0.068-0.538,0.382-1.026,1.102c-0.131,0.185-0.245,0.358-0.367,0.552l-0.458,0.709l-0.218,0.359
				c-0.052,0.079-0.052,0.086-0.046,0.079h0.004l-0.017-0.006l-0.265-0.145l1.098,0.345c-8.015-1.087-16.251-0.989-24.569-0.345
				c0,0-2.045-0.151-4.07-0.295c-2.019-0.153-4.012-0.304-3.848-0.395c-3.358-0.537-5.638-1.911-0.476-3.934
				c1.509-0.696,3.385-1.31,4.87-1.765c1.489-0.461,2.614-0.709,2.614-0.709c8.664-0.686,17.582-0.86,26.484,0.342l0.578,0.071
				l0.521,0.269c0.197,0.105,0.384,0.195,0.65,0.347l0.215,0.131c0.072,0.04,0.168,0.109,0.296,0.197
				c0.085,0.061,0.301,0.22,0.508,0.42c0.099,0.092,0.19,0.197,0.276,0.295l0.127,0.163l0.063,0.085l0.147,0.218
				c0.186,0.304,0.329,0.648,0.417,0.986c0.192,0.626,0.147,1.63-0.146,2.276c-0.213,0.6-0.773,1.269-1.2,1.564
				c-0.236,0.17-0.498,0.321-0.764,0.435c-0.165,0.072-0.216,0.088-0.269,0.104l-0.179,0.053c-0.109,0.032-0.269,0.068-0.337,0.085
				l-0.364,0.053l-0.223,0.022c-0.238,0.017-0.4,0.012-0.512,0.012l-0.502-0.007c-0.043-0.027-0.101-0.23-0.114-0.287
				c-0.05-0.774-0.345-1.495-0.561-2.088c-0.203-0.578-0.428-1.217-0.501-1.811c-0.267-1.264,0.288-2.295,0.907-2.808
				c0.15-0.178,0.187-0.178,0.284-0.184L-52.273,145.3z"/>
		</g>
	</g>
	<g>
		<g>
			<path fill="#EC255A" d="M-321.354,56.198c0.881,0.534,1.787,1.049,2.603,1.682l5.012,3.644l3.574,3.035l1.784,1.527
				c0.587,0.515,1.126,1.076,1.685,1.61c1.388,1.377,2.835,2.706,4.169,4.115c0,0,0.816,0.991,2.031,2.475
				c0.607,0.74,1.307,1.599,2.058,2.518c0.713,0.94,1.467,1.938,2.224,2.933c3.039,3.96,5.766,7.936,5.463,7.647
				c4.448,6.756,6.517,11.78-2.901,2.715c-1.426-1.294-2.963-2.754-4.466-4.225c-1.529-1.461-3.011-2.889-4.322-4.136
				c-2.676-2.495-4.616-4.296-4.616-4.296c-0.724-0.808-1.473-1.583-2.254-2.314l-2.304-2.242c-0.532-0.502-1.038-1.035-1.588-1.512
				l-1.658-1.409l-3.326-2.819l-4.612-3.34c-0.746-0.591-1.575-1.049-2.392-1.539l-2.44-1.466c-0.119-0.104-0.282-0.445-0.317-0.523
				c-0.781-2.285-0.463-3.729,0.357-4.606c0.803-0.872,2.099-1.154,3.062-1.167c0.288-0.032,0.341,0.007,0.5,0.092L-321.354,56.198z
				"/>
		</g>
	</g>
	<g>
		<g>
			<path fill="#EC255A" d="M-84.902,75.473c-0.547,0.157-1.305,0.288-2.235,0.615c-1.851,0.565-4.329,1.575-6.787,2.762
				c-2.458,1.181-4.905,2.492-6.751,3.502c-1.854,1.017-3.087,1.693-3.087,1.693s-1.659,0.55-3.299,1.096
				c-1.656,0.53-3.316,0.99-3.224,0.846c-2.972,0.504-5.1-0.251-1.857-3.504c1.791-2.112,4.664-4.546,4.664-4.546
				s1.26-0.69,3.146-1.73c1.901-1.043,4.473-2.433,7.166-3.739c2.692-1.304,5.528-2.489,7.838-3.207
				c2.288-0.744,4.033-1.011,4.129-1.021c0.065,0.021,0.229,0.199,0.266,0.246c0.968,1.405,1.223,2.808,1.274,3.978
				c0.048,1.172-0.117,2.119-0.254,2.658c-0.036,0.187-0.053,0.187-0.105,0.201C-84.049,75.329-84.371,75.381-84.902,75.473z"/>
		</g>
	</g>
	<g>
		<g>
			<path fill="#EC255A" d="M-249.565,17.981c2.003,1.826,4.093,4.433,5.867,7.11c1.791,2.669,3.336,5.394,4.427,7.445
				c1.073,2.051,1.791,3.417,1.791,3.417s0.582,1.799,1.085,3.56c0.514,1.759,0.983,3.47,0.846,3.371
				c0.533,2.959,0.008,5.424-3.508,1.844c-2.226-2.049-4.641-5.228-4.641-5.228s-0.679-1.344-1.734-3.318
				c-1.058-1.981-2.518-4.559-4.129-6.974c-1.602-2.42-3.388-4.606-4.827-5.915c-0.707-0.697-1.326-1.089-1.754-1.403
				c-0.426-0.303-0.677-0.352-0.699-0.391c-0.021-0.043-0.003-0.266,0.008-0.325c0.25-1.622,0.578-3.033,1.139-4.061
				c0.54-1.026,1.298-1.659,1.87-1.936c0.172-0.107,0.201-0.094,0.277-0.055C-253.441,15.16-251.511,16.125-249.565,17.981z"/>
		</g>
	</g>
	<g>
		<g>
			<path fill="#EC255A" d="M-103.92,230.83c-0.338-0.477-0.705-0.988-1.093-1.524c-0.344-0.533-0.715-1.091-1.096-1.662
				c-0.75-1.144-1.55-2.365-2.348-3.581c-1.606-2.431-3.175-4.861-4.335-6.676c-1.167-1.824-1.942-3.028-1.942-3.028
				s-0.675-1.63-1.348-3.239c-0.645-1.598-1.269-3.178-1.124-3.1c-0.794-2.797-0.465-5.221,3.27-2.249
				c1.181,0.824,2.448,1.94,3.416,2.852c0.961,0.905,1.627,1.607,1.627,1.607s0.784,1.218,1.969,3.058
				c1.18,1.842,2.758,4.291,4.369,6.716c0.799,1.213,1.599,2.433,2.354,3.578c0.374,0.569,0.741,1.121,1.085,1.645
				c0.351,0.482,0.679,0.943,0.982,1.369c1.221,1.706,2.048,2.867,2.09,2.926c0.011,0.067-0.085,0.281-0.114,0.338
				c-1.643,3.007-4.048,4.1-5.186,4.251c-0.183,0.04-0.196,0.021-0.235-0.026C-101.624,234.012-102.555,232.728-103.92,230.83z"/>
		</g>
	</g>
	<g>
		<g>
			<path fill="#EC255A" d="M-309.339,142.086c0,0,8.577,0.46,8.235,0.646c3.47,0.559,5.794,1.949,0.447,3.945
				c-3.134,1.361-7.676,2.489-7.676,2.489s-28.252,2.458-28.64,2.49c-0.07-0.021-0.227-0.216-0.257-0.269
				c-1.855-2.941-1.118-5.618-0.538-6.687c0.087-0.182,0.114-0.184,0.181-0.19C-337.191,144.473-309.339,142.086-309.339,142.086z"
				/>
		</g>
	</g>
	<g>
		<g>
			<path fill="#EC255A" d="M-150.136,19.173c-0.518,2.042-1.125,4.005-1.761,5.946l-0.052,0.152
				c-0.618,1.85-1.269,3.674-1.936,5.483c0,0-2.063,4.674-4.228,9.125c-2.162,4.457-4.306,8.755-4.219,8.343
				c-1.928,3.548-3.662,6.372-4.531,6.775c-0.873,0.419-1.008-1.729,0.771-8.045c0.95-3.755,2.303-8.206,3.357-11.721
				c1.06-3.548,1.827-6.095,1.827-6.095c0.758-2.035,1.495-4.078,2.172-6.111l0.029-0.157c0.6-1.825,1.158-3.655,1.613-5.453
				c0.452-1.789,0.804-3.603,0.873-5.1c0.036-0.113,0.229-0.327,0.287-0.384c0.775-0.661,1.42-1.102,2.031-1.521
				c0.61-0.434,1.184-0.702,1.796-0.728c0.584-0.028,1.222,0.262,1.736,0.722c0.494,0.432,0.911,1.045,1.147,1.541
				c0.18,0.302,0.184,0.394,0.18,0.617C-149.166,15.029-149.628,17.122-150.136,19.173z"/>
		</g>
	</g>
</g>
<g>
	<g>
		<g>
			<path fill="#EC255A" d="M249.595,221.064c-0.39,0-0.777-0.006-1.163-0.025c-4.439-0.223-8.632-1.184-11.788-1.996
				c-2.854-0.742-5.609-1.583-8.275-2.395c-4.226-1.288-8.207-2.501-12.124-3.209l-2.39-0.351l-2.465-0.296
				c-1.68-0.201-3.353-0.402-5.009-0.634c-4.023-0.567-7.057-1.148-9.834-1.882c-3.658-0.954-6.706-2.147-9.314-3.647
				c-1.65-0.979-3.014-2.021-4.178-3.194l-0.441-0.462c-0.306-0.301-0.571-0.653-0.765-0.911c-0.082-0.109-0.146-0.195-0.21-0.272
				c-0.258-0.313-0.432-0.593-0.574-0.831l-0.283-0.461l-0.149-0.271c-0.128-0.208-0.266-0.551-0.354-0.793l-0.303-0.785
				c-0.112-0.311-0.191-0.619-0.269-0.945l-0.083-0.339c-0.436-1.845-0.423-4.075,0.031-5.974l0.101-0.394
				c0.134-0.526,0.259-1.021,0.454-1.481c0.058-0.139,0.114-0.271,0.169-0.394c-0.232-0.272-0.44-0.59-0.624-0.948
				c-0.1-0.206-0.304-0.693-0.279-1.236l0.004-0.084l0.021-0.164l8.873-40.888c0.516-2.397,1.043-4.817,1.574-7.256l0.231-1.063
				c1.05-4.808,2.238-10.257,3.354-15.595c1.115-5.326,2.058-10.667,3.055-16.323c0.511-2.895,1.022-5.791,1.56-8.703
				c1.549-8.313,3.366-17.219,6.149-26.039l1.028-3.228c0.354-1.091,0.832-2.27,1.423-3.507c1.298-2.616,2.883-4.775,4.718-6.431
				c1.959-1.815,4.431-3.207,7.139-4.015c2.086-0.617,4.344-0.93,6.715-0.93c0.365,0,0.729,0.007,1.092,0.022
				c4.297,0.17,8.703,1.12,14.287,3.078l9.665,3.158c0.652,0.217,1.31,0.393,1.966,0.569c0.442,0.119,0.852,0.229,1.257,0.345
				c4.508,1.287,9.163,2.484,13.665,3.642c4.24,1.09,8.626,2.217,12.952,3.435l0.757,0.205c0.882,0.238,1.766,0.478,2.706,0.788
				c1.21,0.429,2.48,0.912,3.713,1.591c1.342,0.722,2.481,1.511,3.475,2.406c1.131,1.026,2.079,2.19,2.82,3.461
				c1.334,2.258,2.077,5,2.207,8.143c0.116,2.772-0.215,5.35-0.553,7.505c-0.385,2.41-0.899,4.794-1.354,6.898
				c-0.476,2.235-0.948,4.46-1.417,6.684l-5.941,28.212c-0.788,3.751-1.604,7.631-2.47,11.408l-7.798,34.928
				c-0.177,0.824-0.34,1.692-0.502,2.554l-0.458,2.527c-0.608,3.394-1.237,6.905-2.012,10.353c-1.135,5.023-2.279,8.81-3.709,12.277
				c-0.979,2.349-1.955,4.226-3.073,5.911c-1.457,2.192-3.042,3.896-4.846,5.211c-0.813,0.558-2.028,1.334-3.452,1.818l-0.223,0.08
				c-0.232,0.086-0.474,0.171-0.711,0.232l-2.361,0.511c-0.935,0.155-1.774,0.232-2.515,0.301l-0.852,0.081h-0.116
				c-0.38,0-0.676,0.004-0.972,0.009C250.224,221.061,249.908,221.064,249.595,221.064z M187.964,198.805
				c0.104,0.118,0.173,0.173,0.237,0.228c0.142,0.119,0.244,0.208,0.345,0.301c0.164,0.153,0.331,0.286,0.512,0.412
				c0.114,0.081,0.223,0.163,0.331,0.246c0.127,0.097,0.209,0.162,0.302,0.217c1.852,1.225,4.106,2.224,6.94,3.082
				c2.368,0.716,5.021,1.299,8.344,1.836c2.381,0.387,4.818,0.679,7.4,0.988l1.87,0.225c3.023,0.341,6.273,1.016,10.22,2.123
				c2.037,0.563,4.099,1.189,6.093,1.796c4.511,1.373,9.176,2.792,13.928,3.581c2.003,0.321,3.8,0.479,5.489,0.479
				c1.549,0,3.016-0.138,4.358-0.411l1.274-0.271c0.114-0.031,0.283-0.097,0.454-0.16l0.39-0.144c0.484-0.239,1.087-0.554,1.6-0.979
				c1.136-0.89,2.16-2.06,3.066-3.496c1.601-2.526,2.937-5.695,4.205-9.975c0.943-3.211,1.755-6.739,2.631-11.439l1.093-6.033
				c0.309-1.769,0.715-3.749,1.28-6.226c0,0.001,7.08-31.706,8.373-37.482l8.21-38.998c0.153-0.724,0.309-1.446,0.465-2.167
				c0.801-3.702,1.551-7.169,1.749-10.616c0.12-2.178-0.058-3.967-0.544-5.468c-0.494-1.545-1.425-2.88-2.691-3.865
				c-0.65-0.507-1.396-0.967-2.285-1.407c-1.023-0.462-1.85-0.777-2.647-1.007c-1.289-0.371-2.614-0.729-3.942-1.086l-0.19-0.051
				c-0.787-0.212-1.574-0.425-2.355-0.641c-3.261-0.904-6.591-1.753-9.811-2.575l-3.296-0.843c-1.47-0.363-2.954-0.773-4.438-1.183
				c-0.781-0.216-1.472-0.407-2.163-0.593c-0.805-0.229-1.586-0.439-2.367-0.65c-1.396-0.377-2.841-0.767-4.274-1.217l-12.881-4.208
				c-3.77-1.114-7-1.66-9.849-1.66c-0.702,0-1.395,0.034-2.059,0.101c-1.869,0.18-3.59,0.684-5.119,1.499
				c-0.719,0.398-1.43,0.899-2.1,1.48c-0.563,0.5-1.145,1.142-1.77,1.955c-1.018,1.404-1.873,3.078-2.525,4.953l-1.959,6.166
				c-2.436,8.45-4.126,17.324-5.52,24.977c-0.395,2.172-0.779,4.339-1.163,6.499l-0.054,0.302
				c-1.063,5.994-2.151,12.135-3.42,18.051l-12.69,58.514c-0.51,2.319-0.854,3.904-0.882,4.039c-0.137,0.571-0.373,0.959-0.772,1.3
				c-0.021,0.025-0.108,0.11-0.247,0.22c0.019,0.359,0.012,0.77,0.004,1.258l-1.001,0.098l0.999,0.016
				c-0.005,0.329-0.011,0.689-0.006,1.065c0.013,0.093,0.021,0.191,0.025,0.297c0.021,0.465,0.073,1.563,0.352,2.527
				c0.085,0.362,0.209,0.655,0.329,0.938c0.088,0.246,0.167,0.377,0.246,0.517c0.059,0.102,0.113,0.198,0.163,0.293
				c0.09,0.181,0.167,0.288,0.233,0.376l0.281,0.39l0.034,0.066c0.036,0.067,0.141,0.236,0.348,0.487l0.312,0.402L187.964,198.805z"
				/>
			<path fill="#EC255A" d="M249.595,220.064c-0.373,0-0.744-0.006-1.112-0.024c-4.353-0.218-8.479-1.165-11.59-1.966
				c-2.823-0.734-5.573-1.572-8.232-2.383c-4.248-1.294-8.261-2.517-12.238-3.236L214,212.1l-2.491-0.3
				c-1.674-0.2-3.34-0.4-4.989-0.631c-3.985-0.563-6.981-1.136-9.718-1.858c-3.574-0.933-6.542-2.094-9.071-3.548
				c-1.567-0.929-2.861-1.918-3.966-3.031l-0.428-0.448c-0.28-0.276-0.513-0.587-0.7-0.836c-0.08-0.107-0.156-0.209-0.231-0.299
				c-0.217-0.263-0.365-0.506-0.483-0.703l-0.288-0.47l-0.123-0.227c-0.081-0.133-0.186-0.362-0.292-0.656l-0.31-0.804
				c-0.094-0.258-0.161-0.53-0.229-0.817l-0.085-0.346c-0.396-1.677-0.38-3.776,0.033-5.503l0.097-0.378
				c0.129-0.508,0.24-0.947,0.406-1.339c0.171-0.414,0.326-0.744,0.471-0.997c-0.335-0.246-0.666-0.623-0.957-1.191
				c-0.027-0.057-0.186-0.394-0.17-0.734l0.004-0.082l8.873-40.888c0.591-2.746,1.196-5.52,1.806-8.318
				c1.108-5.081,2.254-10.334,3.354-15.603c1.12-5.347,2.064-10.703,3.064-16.373c0.507-2.873,1.018-5.767,1.555-8.676
				c1.544-8.285,3.354-17.157,6.12-25.92l1.027-3.225c0.339-1.045,0.8-2.181,1.372-3.38c1.237-2.494,2.744-4.548,4.485-6.12
				c1.854-1.718,4.193-3.035,6.755-3.799c1.992-0.589,4.154-0.888,6.429-0.888c0.352,0,0.702,0.007,1.052,0.021
				c4.193,0.167,8.51,1.099,13.996,3.022l9.686,3.165c0.677,0.225,1.364,0.409,2.051,0.594c0.403,0.108,0.806,0.216,1.205,0.331
				c4.519,1.29,9.183,2.489,13.693,3.649c4.24,1.09,8.624,2.217,12.93,3.429l0.767,0.208c0.851,0.23,1.73,0.467,2.654,0.772
				c1.16,0.411,2.375,0.874,3.544,1.518c1.277,0.688,2.355,1.433,3.288,2.273c1.055,0.958,1.937,2.041,2.626,3.223
				c1.25,2.117,1.948,4.703,2.071,7.68c0.112,2.685-0.211,5.201-0.542,7.309c-0.381,2.386-0.894,4.761-1.346,6.856
				c-0.474,2.225-0.946,4.451-1.415,6.675l-5.912,28.073c-0.797,3.792-1.62,7.715-2.495,11.529l-7.799,34.934
				c-0.182,0.846-0.348,1.728-0.513,2.604l-0.456,2.517c-0.607,3.393-1.236,6.901-2.003,10.312
				c-1.123,4.97-2.252,8.706-3.658,12.116c-0.954,2.288-1.901,4.11-2.981,5.739c-1.391,2.092-2.896,3.713-4.602,4.955
				c-0.755,0.518-1.878,1.235-3.186,1.681l-0.237,0.085c-0.209,0.077-0.418,0.152-0.623,0.205l-2.323,0.502
				c-0.843,0.139-1.632,0.212-2.396,0.282l-0.808,0.077c0,0-0.063,0-0.068,0c-0.387,0-0.688,0.004-0.988,0.009
				C250.219,220.061,249.906,220.064,249.595,220.064z M185.914,197.883c0,0,0.13,0.235,0.433,0.601l0.323,0.419l0.573,0.596
				c0.124,0.143,0.238,0.234,0.351,0.33c0.093,0.078,0.185,0.157,0.273,0.239c0.194,0.182,0.397,0.344,0.616,0.497
				c0.103,0.072,0.2,0.146,0.299,0.222c0.13,0.099,0.259,0.2,0.404,0.285c1.899,1.259,4.225,2.288,7.154,3.176
				c2.415,0.729,5.108,1.322,8.475,1.866c2.409,0.392,4.868,0.686,7.471,0.997l1.839,0.222c2.979,0.335,6.181,1.001,10.069,2.093
				c2.018,0.557,4.079,1.184,6.072,1.79c4.542,1.382,9.238,2.811,14.055,3.61c2.061,0.331,3.911,0.492,5.653,0.492
				c1.614,0,3.147-0.145,4.558-0.431l1.284-0.274c0.212-0.056,0.438-0.143,0.666-0.228l0.313-0.115
				c0.638-0.308,1.306-0.661,1.893-1.146c1.211-0.948,2.306-2.198,3.274-3.733c1.652-2.608,3.023-5.857,4.318-10.224
				c0.955-3.253,1.773-6.813,2.655-11.54l1.094-6.038c0.304-1.744,0.707-3.71,1.271-6.182c0,0,7.081-31.71,8.374-37.487l8.213-39.01
				c0.152-0.721,0.308-1.441,0.464-2.161c0.805-3.721,1.566-7.236,1.77-10.771c0.128-2.305-0.065-4.214-0.591-5.834
				c-0.555-1.734-1.602-3.236-3.029-4.346c-0.702-0.548-1.505-1.043-2.454-1.514c-1.09-0.493-1.968-0.828-2.814-1.072
				c-1.318-0.379-2.673-0.744-4.029-1.11c-0.825-0.223-1.651-0.445-2.471-0.671c-3.251-0.901-6.595-1.755-9.829-2.58l-3.295-0.843
				c-1.469-0.363-2.944-0.771-4.42-1.178c-0.724-0.2-1.446-0.4-2.17-0.595c-0.796-0.226-1.581-0.438-2.366-0.65
				c-1.39-0.375-2.827-0.763-4.235-1.206l-12.87-4.205c-3.88-1.147-7.212-1.709-10.159-1.709c-0.736,0-1.463,0.036-2.158,0.105
				c-1.998,0.192-3.844,0.734-5.489,1.611c-0.79,0.438-1.563,0.981-2.285,1.607c-0.618,0.549-1.244,1.238-1.907,2.101
				c-1.086,1.498-1.992,3.266-2.677,5.233l-1.968,6.192c-2.458,8.528-4.153,17.429-5.55,25.1c-0.414,2.275-0.816,4.544-1.218,6.805
				c-1.055,5.949-2.145,12.1-3.413,18.016l-12.69,58.512c-0.512,2.33-0.858,3.924-0.885,4.057c-0.081,0.334-0.21,0.536-0.44,0.732
				c-0.1,0.103-0.331,0.312-0.66,0.489c0.088,0.412,0.078,0.963,0.065,1.758c-0.006,0.381-0.014,0.805-0.007,1.249
				c0.013,0.08,0.021,0.166,0.025,0.26c0.023,0.504,0.078,1.686,0.39,2.764c0.091,0.396,0.239,0.745,0.37,1.054
				c0.088,0.251,0.19,0.431,0.299,0.621c0.053,0.092,0.102,0.179,0.146,0.264c0.111,0.226,0.223,0.383,0.319,0.511l0.225,0.312
				L185.914,197.883z"/>
			<path fill="#EC255A" d="M249.595,220.064c-0.373,0-0.744-0.006-1.112-0.024c-4.353-0.218-8.479-1.165-11.59-1.966
				c-2.823-0.734-5.573-1.572-8.232-2.383c-4.248-1.294-8.261-2.517-12.238-3.236L214,212.1l-2.491-0.3
				c-1.674-0.2-3.34-0.4-4.989-0.631c-3.985-0.563-6.981-1.136-9.718-1.858c-3.574-0.933-6.542-2.094-9.071-3.548
				c-1.567-0.929-2.861-1.918-3.966-3.031l-0.428-0.448c-0.28-0.276-0.513-0.587-0.7-0.836c-0.08-0.107-0.156-0.209-0.231-0.299
				c-0.217-0.263-0.365-0.506-0.483-0.703l-0.288-0.47l-0.123-0.227c-0.081-0.133-0.186-0.362-0.292-0.656l-0.31-0.804
				c-0.094-0.258-0.161-0.53-0.229-0.817l-0.085-0.346c-0.396-1.677-0.38-3.776,0.033-5.503l0.097-0.378
				c0.129-0.508,0.24-0.947,0.406-1.339c0.171-0.414,0.326-0.744,0.471-0.997c-0.335-0.246-0.666-0.623-0.957-1.191
				c-0.027-0.057-0.186-0.394-0.17-0.734l0.004-0.082l8.873-40.888c0.591-2.746,1.196-5.52,1.806-8.318
				c1.108-5.081,2.254-10.334,3.354-15.603c1.12-5.347,2.064-10.703,3.064-16.373c0.507-2.873,1.018-5.767,1.555-8.676
				c1.544-8.285,3.354-17.157,6.12-25.92l1.027-3.225c0.339-1.045,0.8-2.181,1.372-3.38c1.237-2.494,2.744-4.548,4.485-6.12
				c1.854-1.718,4.193-3.035,6.755-3.799c1.992-0.589,4.154-0.888,6.429-0.888c0.352,0,0.702,0.007,1.052,0.021
				c4.193,0.167,8.51,1.099,13.996,3.022l9.686,3.165c0.677,0.225,1.364,0.409,2.051,0.594c0.403,0.108,0.806,0.216,1.205,0.331
				c4.519,1.29,9.183,2.489,13.693,3.649c4.24,1.09,8.624,2.217,12.93,3.429l0.767,0.208c0.851,0.23,1.73,0.467,2.654,0.772
				c1.16,0.411,2.375,0.874,3.544,1.518c1.277,0.688,2.355,1.433,3.288,2.273c1.055,0.958,1.937,2.041,2.626,3.223
				c1.25,2.117,1.948,4.703,2.071,7.68c0.112,2.685-0.211,5.201-0.542,7.309c-0.381,2.386-0.894,4.761-1.346,6.856
				c-0.474,2.225-0.946,4.451-1.415,6.675l-5.912,28.073c-0.797,3.792-1.62,7.715-2.495,11.529l-7.799,34.934
				c-0.182,0.846-0.348,1.728-0.513,2.604l-0.456,2.517c-0.607,3.393-1.236,6.901-2.003,10.312
				c-1.123,4.97-2.252,8.706-3.658,12.116c-0.954,2.288-1.901,4.11-2.981,5.739c-1.391,2.092-2.896,3.713-4.602,4.955
				c-0.755,0.518-1.878,1.235-3.186,1.681l-0.237,0.085c-0.209,0.077-0.418,0.152-0.623,0.205l-2.323,0.502
				c-0.843,0.139-1.632,0.212-2.396,0.282l-0.808,0.077c0,0-0.063,0-0.068,0c-0.387,0-0.688,0.004-0.988,0.009
				C250.219,220.061,249.906,220.064,249.595,220.064z M185.914,197.883c0,0,0.13,0.235,0.433,0.601l0.323,0.419l0.573,0.596
				c0.124,0.143,0.238,0.234,0.351,0.33c0.093,0.078,0.185,0.157,0.273,0.239c0.194,0.182,0.397,0.344,0.616,0.497
				c0.103,0.072,0.2,0.146,0.299,0.222c0.13,0.099,0.259,0.2,0.404,0.285c1.899,1.259,4.225,2.288,7.154,3.176
				c2.415,0.729,5.108,1.322,8.475,1.866c2.409,0.392,4.868,0.686,7.471,0.997l1.839,0.222c2.979,0.335,6.181,1.001,10.069,2.093
				c2.018,0.557,4.079,1.184,6.072,1.79c4.542,1.382,9.238,2.811,14.055,3.61c2.061,0.331,3.911,0.492,5.653,0.492
				c1.614,0,3.147-0.145,4.558-0.431l1.284-0.274c0.212-0.056,0.438-0.143,0.666-0.228l0.313-0.115
				c0.638-0.308,1.306-0.661,1.893-1.146c1.211-0.948,2.306-2.198,3.274-3.733c1.652-2.608,3.023-5.857,4.318-10.224
				c0.955-3.253,1.773-6.813,2.655-11.54l1.094-6.038c0.304-1.744,0.707-3.71,1.271-6.182c0,0,7.081-31.71,8.374-37.487l8.213-39.01
				c0.152-0.721,0.308-1.441,0.464-2.161c0.805-3.721,1.566-7.236,1.77-10.771c0.128-2.305-0.065-4.214-0.591-5.834
				c-0.555-1.734-1.602-3.236-3.029-4.346c-0.702-0.548-1.505-1.043-2.454-1.514c-1.09-0.493-1.968-0.828-2.814-1.072
				c-1.318-0.379-2.673-0.744-4.029-1.11c-0.825-0.223-1.651-0.445-2.471-0.671c-3.251-0.901-6.595-1.755-9.829-2.58l-3.295-0.843
				c-1.469-0.363-2.944-0.771-4.42-1.178c-0.724-0.2-1.446-0.4-2.17-0.595c-0.796-0.226-1.581-0.438-2.366-0.65
				c-1.39-0.375-2.827-0.763-4.235-1.206l-12.87-4.205c-3.88-1.147-7.212-1.709-10.159-1.709c-0.736,0-1.463,0.036-2.158,0.105
				c-1.998,0.192-3.844,0.734-5.489,1.611c-0.79,0.438-1.563,0.981-2.285,1.607c-0.618,0.549-1.244,1.238-1.907,2.101
				c-1.086,1.498-1.992,3.266-2.677,5.233l-1.968,6.192c-2.458,8.528-4.153,17.429-5.55,25.1c-0.414,2.275-0.816,4.544-1.218,6.805
				c-1.055,5.949-2.145,12.1-3.413,18.016l-12.69,58.512c-0.512,2.33-0.858,3.924-0.885,4.057c-0.081,0.334-0.21,0.536-0.44,0.732
				c-0.1,0.103-0.331,0.312-0.66,0.489c0.088,0.412,0.078,0.963,0.065,1.758c-0.006,0.381-0.014,0.805-0.007,1.249
				c0.013,0.08,0.021,0.166,0.025,0.26c0.023,0.504,0.078,1.686,0.39,2.764c0.091,0.396,0.239,0.745,0.37,1.054
				c0.088,0.251,0.19,0.431,0.299,0.621c0.053,0.092,0.102,0.179,0.146,0.264c0.111,0.226,0.223,0.383,0.319,0.511l0.225,0.312
				L185.914,197.883z"/>
			<path fill="#EC255A" d="M184.166,187.613c-0.017,0.066-0.021,0.089-0.106,0.161c-0.508,0.512-1.672,1.155-2.524-0.512
				c-0.016-0.032-0.064-0.17-0.062-0.233c0.019-0.087,0.373-1.72,0.896-4.125c2.474-11.391,5.143-23.697,7.959-36.679
				c1.675-7.783,3.46-15.781,5.161-23.928c1.703-8.13,3.047-16.537,4.624-25.072c1.59-8.53,3.381-17.217,6.091-25.8
				c0.342-1.072,0.682-2.148,1.025-3.222c0.352-1.083,0.815-2.191,1.322-3.254c1.053-2.121,2.426-4.158,4.253-5.808
				c1.802-1.669,4.033-2.885,6.371-3.583c2.348-0.695,4.783-0.919,7.155-0.826c4.769,0.189,9.321,1.43,13.704,2.967
				c2.15,0.704,4.309,1.407,6.466,2.114l3.24,1.057c1.077,0.358,2.195,0.62,3.289,0.935c8.77,2.503,17.737,4.576,26.63,7.08
				c1.113,0.307,2.207,0.581,3.378,0.968c1.142,0.405,2.283,0.842,3.375,1.444c1.093,0.588,2.15,1.283,3.102,2.14
				c0.945,0.859,1.779,1.866,2.432,2.983c1.322,2.24,1.835,4.795,1.936,7.218c0.102,2.438-0.169,4.806-0.531,7.112
				c-0.368,2.307-0.853,4.565-1.335,6.801c-0.475,2.228-0.947,4.455-1.416,6.68c-0.938,4.457-1.877,8.896-2.808,13.32
				c-0.928,4.422-1.858,8.827-2.78,13.208c-0.921,4.379-1.826,8.744-2.815,13.057c-1.93,8.638-3.834,17.173-5.71,25.564
				c-0.467,2.101-0.935,4.189-1.397,6.268c-0.23,1.038-0.465,2.074-0.693,3.109c-0.215,1-0.406,2.041-0.6,3.065
				c-0.749,4.137-1.455,8.286-2.371,12.363c-0.922,4.077-2.018,8.1-3.607,11.954c-0.801,1.92-1.722,3.806-2.89,5.567
				c-1.167,1.755-2.582,3.406-4.357,4.699c-0.902,0.618-1.86,1.182-2.92,1.543c-0.263,0.09-0.528,0.201-0.788,0.269l-0.762,0.166
				l-1.521,0.326c-1.015,0.165-2.032,0.235-3.042,0.337c-1.006-0.003-2.017,0.044-3.005-0.007
				c-3.975-0.198-7.765-1.001-11.392-1.936c-7.247-1.885-13.964-4.443-20.543-5.635c-0.825-0.119-1.642-0.242-2.456-0.36
				c-0.841-0.103-1.682-0.203-2.515-0.304c-1.669-0.199-3.328-0.398-4.971-0.628c-3.284-0.464-6.502-1.017-9.602-1.835
				c-3.095-0.808-6.096-1.877-8.827-3.448c-1.357-0.804-2.638-1.742-3.755-2.868c-0.138-0.144-0.274-0.286-0.408-0.429
				c-0.386-0.382-0.644-0.794-0.896-1.094c-0.249-0.302-0.39-0.586-0.507-0.76c-0.112-0.182-0.171-0.28-0.171-0.28
				s-0.035-0.063-0.099-0.184c-0.071-0.119-0.151-0.298-0.235-0.529c-0.09-0.231-0.197-0.508-0.315-0.818
				c-0.114-0.313-0.183-0.683-0.282-1.062c-0.363-1.545-0.32-3.515,0.039-5.017c0.165-0.634,0.281-1.158,0.451-1.559
				c0.165-0.401,0.307-0.701,0.433-0.917c0.244-0.423,0.414-0.501,0.509-0.34c0.212,0.331,0.089,1.581,0.113,3.046
				c0.046-0.153-0.017,1.618,0.453,3.247c0.093,0.413,0.256,0.803,0.411,1.168c0.125,0.371,0.335,0.683,0.48,0.959
				c0.14,0.283,0.292,0.496,0.404,0.646c0.108,0.151,0.17,0.236,0.17,0.236s0.157,0.305,0.552,0.78
				c0.094,0.12,0.193,0.255,0.31,0.401c0.064,0.067,0.131,0.139,0.198,0.21l0.108,0.111l0.324,0.342
				c0.193,0.224,0.445,0.406,0.67,0.614c0.225,0.21,0.464,0.401,0.721,0.582c0.258,0.182,0.492,0.387,0.771,0.551
				c2.122,1.408,4.666,2.451,7.371,3.271c2.713,0.819,5.606,1.412,8.605,1.896c3.003,0.488,6.125,0.831,9.348,1.224
				c3.301,0.372,6.638,1.142,9.92,2.063c6.581,1.814,13.206,4.257,20.233,5.424c3.495,0.562,7.111,0.757,10.573,0.056l1.295-0.277
				c0.417-0.107,0.771-0.262,1.161-0.398c0.741-0.356,1.479-0.752,2.14-1.298c1.341-1.05,2.508-2.427,3.482-3.97
				c1.965-3.104,3.323-6.735,4.432-10.474c1.102-3.754,1.937-7.656,2.68-11.641c0.359-2.007,0.729-4.021,1.095-6.044
				c0.353-2.029,0.804-4.131,1.261-6.137c0.909-4.058,1.822-8.16,2.748-12.295c1.847-8.27,3.721-16.68,5.627-25.196
				c1.799-8.536,3.618-17.18,5.453-25.897c0.918-4.359,1.838-8.734,2.763-13.125c0.928-4.406,2.005-8.763,2.253-13.081
				c0.119-2.147-0.016-4.281-0.638-6.2c-0.614-1.92-1.766-3.582-3.366-4.827c-0.799-0.623-1.688-1.156-2.624-1.62
				c-0.959-0.434-1.942-0.837-2.981-1.137c-2.125-0.611-4.343-1.186-6.512-1.784c-4.346-1.206-8.756-2.298-13.141-3.428
				c-2.196-0.542-4.387-1.18-6.579-1.771c-2.188-0.621-4.392-1.162-6.562-1.844c-4.296-1.402-8.583-2.804-12.859-4.201
				c-4.199-1.242-8.552-2.067-12.728-1.648c-2.08,0.2-4.079,0.774-5.86,1.724c-0.885,0.49-1.709,1.074-2.47,1.735
				c-0.755,0.669-1.424,1.438-2.045,2.247c-1.201,1.656-2.137,3.527-2.828,5.514c-0.66,2.08-1.317,4.149-1.977,6.217
				c-2.408,8.355-4.055,16.841-5.58,25.225c-1.528,8.385-2.89,16.693-4.625,24.791c-1.745,8.045-3.453,15.925-5.119,23.604
				c-2.679,12.354-5.22,24.062-7.571,34.905C184.533,185.911,184.183,187.525,184.166,187.613z"/>
		</g>
	</g>
	<g>
		<g>
			<path fill="#EC255A" d="M260.787,195.582c-0.249,0-0.523-0.028-0.797-0.063c-0.092-0.012-3.755-0.385-3.755-0.385
				c-0.848-0.07-1.704-0.208-2.353-0.32c-0.438-0.075-0.872-0.145-1.307-0.213c-1.073-0.171-2.116-0.337-3.146-0.574
				c-4.532-0.912-8.866-2.068-13.059-3.188l-0.339-0.091c-0.96-0.256-1.911-0.51-2.854-0.756c-1.271-0.325-2.545-0.652-3.798-0.978
				l-3.68-0.86l-7.182-1.364l-13.071-2.048l-2.551-0.594c-1.997-0.56-3.523-1.023-4.71-1.43c-2.188-0.684-4.479-1.398-4.157-3.491
				c0.04-0.267,0.124-0.513,0.248-0.732c-0.118-0.137-0.231-0.283-0.341-0.44c-0.252-0.408-0.387-0.764-0.432-1.104l-0.033-0.245
				l0.029-0.249c0.008-0.087,0.357-4.174,0.357-4.174l0.256-2.596c0.104-0.841,0.195-1.641,0.287-2.443l0.016-0.13
				c0.234-2.032,0.47-4.072,0.799-6.122l0.643-4.353c0,0,0.552-3.171,0.775-4.477c0.325-1.994,0.726-4.013,1.113-5.965
				c0.203-1.023,0.406-2.05,0.603-3.084c2.612-12.671,5.928-25.672,9.1-37.903l0.361-1.403c1.538-5.954,3.129-12.111,4.653-18.36
				c0.773-3.114,1.514-6.279,2.387-10.075c0.262-1.122,0.503-2.242,0.743-3.364l1.208-5.581c0.228-1.178,1.216-1.725,2.036-1.725
				h0.097l0.193,0.019l16.835,3.283c0.595,0.115,1.187,0.259,1.778,0.403l11.784,2.818c1.565,0.371,3.186,0.755,4.796,1.214
				l10.316,2.81c2.512,0.66,5.036,1.405,7.478,2.127c0.948,0.28,12.223,3.587,12.223,3.587c0.868,0.221,1.669,1.124,1.454,2.406
				l-0.27,2.813c-0.58,5.875-1.988,11.467-3.35,16.875c-0.36,1.433-0.719,2.859-1.06,4.281c-0.673,2.629-1.155,5.37-1.622,8.02
				l-0.362,2.047c-0.394,2.155-0.754,4.318-1.112,6.472l-0.101,0.603c-0.174,1.039-0.347,2.076-0.524,3.107l-1.758,10.098
				c-0.388,2.064-0.794,4.092-1.198,6.11l-0.038,0.191c-0.247,1.228-0.491,2.451-0.73,3.671l-4.241,19.229
				c-0.571,2.708-1.233,5.409-1.873,8.022l-0.023,0.098c0-0.002-3.217,13.21-3.571,14.649l-1.396,5.752l-1.396,0.154
				C261.047,195.576,260.92,195.582,260.787,195.582z M200.173,177.419c0.533,0.057,1.397,0.155,2.831,0.328
				c0.705,0.097,1.394,0.161,1.987,0.215l1.743,0.163l11.523,1.78c1.479,0.239,2.973,0.524,4.491,0.815c0,0,1.729,0.33,2.486,0.47
				c4.238,0.829,8.465,1.956,12.94,3.149l1.899,0.505c5.197,1.38,10.301,2.68,15.588,3.425c0.461,0.082,0.854,0.117,1.246,0.153
				c0.141,0.014,0.273,0.025,0.402,0.039l4.492-18.443c0.456-1.925,0.886-3.886,1.318-5.862c0.234-1.075,0.471-2.155,0.714-3.239
				l3.109-14.09l0.954-4.755c0.32-1.599,0.641-3.209,0.959-4.827l0.854-4.859c0.583-3.275,1.144-6.583,1.698-9.915
				c0.422-2.574,0.886-5.179,1.352-7.794l0.866-4.86c0.122-0.607,0.253-1.168,0.384-1.73l0.208-0.905
				c0.29-1.274,0.603-2.527,0.915-3.78l0.326-1.312c0.936-3.695,1.7-6.772,2.337-9.966l0.163-0.842
				c0.112-0.575,0.214-1.088,0.294-1.603l0.378-2.525c0.038-0.264,0.069-0.532,0.098-0.801c-1.499-0.438-2.998-0.88-4.498-1.324
				c-4.74-1.4-9.59-2.833-14.408-4.101c-1.201-0.322-2.395-0.649-3.587-0.976l-0.108-0.03c-2.146-0.588-4.291-1.175-6.446-1.724
				l-10.173-2.434c-0.598-0.139-1.207-0.287-1.814-0.435c-1.116-0.271-2.169-0.526-3.227-0.747
				c-0.005-0.001-8.45-1.649-12.014-2.343l-0.412,1.914c-0.284,1.342-0.598,2.685-0.911,4.026l-0.247,1.056
				c-0.593,2.628-1.24,5.278-1.866,7.84l-0.532,2.179c-1.709,6.855-3.485,13.736-4.997,19.564
				c-3.449,13.423-6.493,25.475-8.79,37.021l-0.867,4.432c-0.177,0.916-0.334,1.833-0.491,2.747l-0.276,1.6
				c-0.435,2.366-0.779,4.723-1.113,7.002l-0.228,1.551c-0.278,1.911-0.5,3.846-0.716,5.718c-0.103,0.901-0.2,1.748-0.301,2.59
				c0-0.001-0.471,5.502-0.479,5.59C200.218,177.19,200.199,177.307,200.173,177.419z"/>
			<path fill="#EC255A" d="M260.787,194.582c-0.21,0-0.44-0.025-0.671-0.055c-0.108-0.014-0.217-0.027-0.32-0.035l-3.459-0.353
				c-0.811-0.067-1.61-0.194-2.284-0.311c-0.453-0.078-0.904-0.149-1.354-0.221c-1.001-0.159-2.037-0.323-3.042-0.556
				c-4.546-0.915-8.879-2.072-13.069-3.19c-1.062-0.283-2.113-0.564-3.155-0.837c-1.275-0.326-2.548-0.652-3.8-0.978l-3.703-0.866
				l-7.223-1.373l-13.103-2.054l-2.479-0.579c-1.954-0.549-3.449-1.004-4.613-1.402c-2.59-0.809-3.657-1.323-3.493-2.394
				c0.072-0.479,0.369-0.751,0.748-0.906c-0.331-0.199-0.676-0.51-1.007-0.987c-0.079-0.129-0.227-0.391-0.263-0.665l-0.017-0.122
				l0.015-0.122c0.007-0.073,0.36-4.208,0.36-4.208l0.255-2.582c0.106-0.863,0.203-1.708,0.301-2.558
				c0.229-1.981,0.464-4.03,0.793-6.078l0.645-4.364c0.26-1.493,0.517-2.966,0.771-4.454c0.322-1.972,0.722-3.989,1.108-5.939
				c0.204-1.025,0.408-2.056,0.604-3.093c2.604-12.631,5.916-25.618,9.085-37.838l0.362-1.404
				c1.545-5.981,3.142-12.166,4.656-18.373c0.782-3.15,1.521-6.311,2.39-10.088c0.263-1.125,0.505-2.251,0.746-3.379l1.208-5.578
				c0.143-0.739,0.725-0.937,1.059-0.937h0.099l16.835,3.283c0.58,0.112,1.156,0.253,1.732,0.394c0.3,0.073,0.599,0.147,0.899,0.216
				l10.89,2.604c1.561,0.37,3.175,0.753,4.755,1.203l10.327,2.813c2.503,0.657,5.021,1.401,7.457,2.121
				c0.948,0.28,12.225,3.587,12.225,3.587c0.435,0.111,0.869,0.564,0.749,1.281l-0.278,2.881
				c-0.572,5.791-1.971,11.351-3.324,16.727c-0.361,1.437-0.721,2.867-1.063,4.292c-0.683,2.667-1.17,5.444-1.643,8.129
				l-0.354,1.997c-0.394,2.155-0.755,4.323-1.114,6.482c-0.207,1.239-0.412,2.475-0.624,3.705l-1.758,10.097
				c-0.396,2.112-0.815,4.199-1.231,6.276c-0.247,1.229-0.492,2.454-0.731,3.675l-4.236,19.205
				c-0.577,2.735-1.246,5.462-1.892,8.098c0,0-3.216,13.209-3.57,14.648l-1.232,5.074l-0.698,0.077
				C260.971,194.578,260.881,194.582,260.787,194.582z M199.245,178.345c0.12,0,0.371,0,3.639,0.396
				c0.705,0.097,1.409,0.162,2.016,0.218l1.742,0.163l11.464,1.772c1.463,0.236,2.946,0.521,4.455,0.81
				c0.824,0.157,1.655,0.316,2.494,0.471c4.187,0.819,8.401,1.942,12.863,3.132l1.9,0.506c5.232,1.389,10.37,2.696,15.705,3.448
				c0.465,0.083,0.895,0.122,1.324,0.162c0.242,0.022,0.483,0.045,0.725,0.073c0,0,0.442,0.046,0.504,0.053
				c0.145-0.593,4.699-19.293,4.699-19.293c0.459-1.936,0.89-3.902,1.323-5.885c0.234-1.074,0.471-2.152,0.713-3.234l3.11-14.094
				l0.958-4.774c0.32-1.601,0.641-3.211,0.96-4.831l0.857-4.879c0.583-3.276,1.144-6.588,1.699-9.923
				c0.422-2.572,0.885-5.172,1.35-7.783l0.866-4.86c0.116-0.574,0.244-1.126,0.373-1.678l0.209-0.908
				c0.29-1.275,0.603-2.526,0.915-3.778l0.322-1.296c0.938-3.708,1.706-6.795,2.347-10.012l0.164-0.847
				c0.107-0.546,0.216-1.092,0.301-1.64l0.379-2.53c0.076-0.528,0.126-1.066,0.175-1.601c0.002-0.025,0.005-0.051,0.007-0.077
				c-1.779-0.518-3.558-1.043-5.338-1.569c-4.704-1.39-9.568-2.826-14.387-4.094c-1.232-0.33-2.46-0.667-3.687-1.002
				c-2.15-0.589-4.302-1.179-6.463-1.729l-10.188-2.437c-0.601-0.14-1.206-0.287-1.811-0.434c-1.085-0.263-2.169-0.527-3.259-0.754
				c0,0-10.369-2.023-12.989-2.532c-0.205,0.958-0.411,1.915-0.618,2.87c-0.289,1.369-0.608,2.732-0.927,4.094l-0.228,0.973
				c-0.602,2.666-1.258,5.348-1.892,7.942l-0.505,2.068c-1.678,6.729-3.391,13.373-4.993,19.55
				c-3.454,13.439-6.501,25.507-8.803,37.077l-0.868,4.435c-0.186,0.96-0.35,1.921-0.514,2.877l-0.258,1.491
				c-0.434,2.362-0.781,4.733-1.117,7.027l-0.228,1.55c-0.283,1.945-0.508,3.905-0.726,5.801c-0.097,0.849-0.194,1.693-0.295,2.533
				c0,0-0.474,5.532-0.481,5.62c-0.026,0.302-0.129,0.528-0.341,0.76c-0.091,0.121-0.284,0.344-0.564,0.553
				c0.256,0.013,0.527,0.03,0.813,0.052H199.245z"/>
			<path fill="#EC255A" d="M260.787,194.582c-0.21,0-0.44-0.025-0.671-0.055c-0.108-0.014-0.217-0.027-0.32-0.035l-3.459-0.353
				c-0.811-0.067-1.61-0.194-2.284-0.311c-0.453-0.078-0.904-0.149-1.354-0.221c-1.001-0.159-2.037-0.323-3.042-0.556
				c-4.546-0.915-8.879-2.072-13.069-3.19c-1.062-0.283-2.113-0.564-3.155-0.837c-1.275-0.326-2.548-0.652-3.8-0.978l-3.703-0.866
				l-7.223-1.373l-13.103-2.054l-2.479-0.579c-1.954-0.549-3.449-1.004-4.613-1.402c-2.59-0.809-3.657-1.323-3.493-2.394
				c0.072-0.479,0.369-0.751,0.748-0.906c-0.331-0.199-0.676-0.51-1.007-0.987c-0.079-0.129-0.227-0.391-0.263-0.665l-0.017-0.122
				l0.015-0.122c0.007-0.073,0.36-4.208,0.36-4.208l0.255-2.582c0.106-0.863,0.203-1.708,0.301-2.558
				c0.229-1.981,0.464-4.03,0.793-6.078l0.645-4.364c0.26-1.493,0.517-2.966,0.771-4.454c0.322-1.972,0.722-3.989,1.108-5.939
				c0.204-1.025,0.408-2.056,0.604-3.093c2.604-12.631,5.916-25.618,9.085-37.838l0.362-1.404
				c1.545-5.981,3.142-12.166,4.656-18.373c0.782-3.15,1.521-6.311,2.39-10.088c0.263-1.125,0.505-2.251,0.746-3.379l1.208-5.578
				c0.143-0.739,0.725-0.937,1.059-0.937h0.099l16.835,3.283c0.58,0.112,1.156,0.253,1.732,0.394c0.3,0.073,0.599,0.147,0.899,0.216
				l10.89,2.604c1.561,0.37,3.175,0.753,4.755,1.203l10.327,2.813c2.503,0.657,5.021,1.401,7.457,2.121
				c0.948,0.28,12.225,3.587,12.225,3.587c0.435,0.111,0.869,0.564,0.749,1.281l-0.278,2.881
				c-0.572,5.791-1.971,11.351-3.324,16.727c-0.361,1.437-0.721,2.867-1.063,4.292c-0.683,2.667-1.17,5.444-1.643,8.129
				l-0.354,1.997c-0.394,2.155-0.755,4.323-1.114,6.482c-0.207,1.239-0.412,2.475-0.624,3.705l-1.758,10.097
				c-0.396,2.112-0.815,4.199-1.231,6.276c-0.247,1.229-0.492,2.454-0.731,3.675l-4.236,19.205
				c-0.577,2.735-1.246,5.462-1.892,8.098c0,0-3.216,13.209-3.57,14.648l-1.232,5.074l-0.698,0.077
				C260.971,194.578,260.881,194.582,260.787,194.582z M199.245,178.345c0.12,0,0.371,0,3.639,0.396
				c0.705,0.097,1.409,0.162,2.016,0.218l1.742,0.163l11.464,1.772c1.463,0.236,2.946,0.521,4.455,0.81
				c0.824,0.157,1.655,0.316,2.494,0.471c4.187,0.819,8.401,1.942,12.863,3.132l1.9,0.506c5.232,1.389,10.37,2.696,15.705,3.448
				c0.465,0.083,0.895,0.122,1.324,0.162c0.242,0.022,0.483,0.045,0.725,0.073c0,0,0.442,0.046,0.504,0.053
				c0.145-0.593,4.699-19.293,4.699-19.293c0.459-1.936,0.89-3.902,1.323-5.885c0.234-1.074,0.471-2.152,0.713-3.234l3.11-14.094
				l0.958-4.774c0.32-1.601,0.641-3.211,0.96-4.831l0.857-4.879c0.583-3.276,1.144-6.588,1.699-9.923
				c0.422-2.572,0.885-5.172,1.35-7.783l0.866-4.86c0.116-0.574,0.244-1.126,0.373-1.678l0.209-0.908
				c0.29-1.275,0.603-2.526,0.915-3.778l0.322-1.296c0.938-3.708,1.706-6.795,2.347-10.012l0.164-0.847
				c0.107-0.546,0.216-1.092,0.301-1.64l0.379-2.53c0.076-0.528,0.126-1.066,0.175-1.601c0.002-0.025,0.005-0.051,0.007-0.077
				c-1.779-0.518-3.558-1.043-5.338-1.569c-4.704-1.39-9.568-2.826-14.387-4.094c-1.232-0.33-2.46-0.667-3.687-1.002
				c-2.15-0.589-4.302-1.179-6.463-1.729l-10.188-2.437c-0.601-0.14-1.206-0.287-1.811-0.434c-1.085-0.263-2.169-0.527-3.259-0.754
				c0,0-10.369-2.023-12.989-2.532c-0.205,0.958-0.411,1.915-0.618,2.87c-0.289,1.369-0.608,2.732-0.927,4.094l-0.228,0.973
				c-0.602,2.666-1.258,5.348-1.892,7.942l-0.505,2.068c-1.678,6.729-3.391,13.373-4.993,19.55
				c-3.454,13.439-6.501,25.507-8.803,37.077l-0.868,4.435c-0.186,0.96-0.35,1.921-0.514,2.877l-0.258,1.491
				c-0.434,2.362-0.781,4.733-1.117,7.027l-0.228,1.55c-0.283,1.945-0.508,3.905-0.726,5.801c-0.097,0.849-0.194,1.693-0.295,2.533
				c0,0-0.474,5.532-0.481,5.62c-0.026,0.302-0.129,0.528-0.341,0.76c-0.091,0.121-0.284,0.344-0.564,0.553
				c0.256,0.013,0.527,0.03,0.813,0.052H199.245z"/>
			<path fill="#EC255A" d="M198.236,176.892c-0.006,0.066-0.007,0.091-0.082,0.173c-0.438,0.57-1.512,1.383-2.572-0.147
				c-0.018-0.029-0.085-0.16-0.094-0.227c0.01-0.086,0.151-1.766,0.363-4.235c0.081-0.84,0.167-1.698,0.254-2.568
				c0.348-2.813,0.621-5.685,1.086-8.576c0.214-1.449,0.431-2.911,0.646-4.378c0.256-1.468,0.513-2.941,0.768-4.431
				c0.487-2.98,1.134-5.969,1.71-9.015c2.504-12.141,5.7-24.776,9.07-37.773c1.679-6.503,3.389-13.096,5.022-19.791
				c0.829-3.342,1.613-6.714,2.393-10.102c0.396-1.693,0.745-3.397,1.119-5.103c0.271-1.248,0.543-2.499,0.813-3.749
				c0.041-0.083,0.01-0.27,0.109-0.267l0.32,0.063l0.645,0.125l1.269,0.247l1.461,0.283c3.466,0.678,6.94,1.354,10.43,2.036
				l2.615,0.511c0.874,0.169,1.733,0.404,2.6,0.603c1.73,0.412,3.463,0.826,5.195,1.24c1.734,0.416,3.47,0.83,5.205,1.247
				c1.735,0.413,3.477,0.817,5.193,1.307c3.444,0.936,6.891,1.878,10.339,2.815c3.457,0.908,6.864,1.958,10.286,2.952
				c1.711,0.503,3.419,1.001,5.126,1.504l2.978,0.874l1.273,0.373c0.11,0.028,0.014,0.2,0.028,0.289l-0.032,0.331l-0.063,0.66
				l-0.176,1.828c-0.716,7.244-2.741,14.116-4.364,20.881c-0.854,3.341-1.395,6.782-2.008,10.182
				c-0.619,3.392-1.159,6.819-1.739,10.195c-0.59,3.388-1.176,6.754-1.758,10.094c-0.627,3.338-1.315,6.647-1.959,9.931
				c-1.438,6.514-2.848,12.918-4.231,19.182c-0.662,3.138-1.434,6.219-2.179,9.268c-0.742,3.049-1.475,6.061-2.197,9.03
				c-0.361,1.486-0.72,2.961-1.08,4.425c-0.184,0.755-0.363,1.504-0.547,2.251c-0.175,0.717-0.351,1.434-0.522,2.146
				c-0.319,0.035-0.723-0.054-1.082-0.079l-1.081-0.11c-0.786-0.08-1.568-0.161-2.348-0.24c-0.753-0.063-1.487-0.176-2.216-0.301
				c-1.462-0.253-2.929-0.439-4.341-0.766c-5.702-1.148-11.066-2.676-16.195-4.021c-1.28-0.327-2.552-0.653-3.803-0.978
				c-1.259-0.295-2.501-0.586-3.727-0.872c-2.48-0.473-4.902-0.933-7.264-1.382c-3.796-0.595-7.396-1.162-10.777-1.689
				c-0.487-0.077-0.912-0.141-1.26-0.196c-0.697-0.109-1.095-0.173-1.095-0.173s-1.023-0.24-2.407-0.565
				c-1.378-0.388-3.111-0.894-4.518-1.375c-4.799-1.499-2.687-1.721,0.385-1.473c-0.148-0.059,1.682,0.153,3.543,0.379
				c0.926,0.127,1.879,0.202,2.595,0.272c0.714,0.068,1.194,0.111,1.194,0.111s0.39,0.06,1.075,0.167
				c1.052,0.163,2.327,0.359,3.792,0.586c2.113,0.33,4.291,0.665,6.533,1.012c2.244,0.362,4.552,0.842,6.922,1.275
				c4.737,0.928,9.631,2.28,14.688,3.621c5.062,1.343,10.32,2.696,15.821,3.472c0.687,0.124,1.382,0.158,2.073,0.238
				c0.46,0.048,0.92,0.098,1.383,0.142c0.214-0.871,0.431-1.751,0.643-2.638c0.691-2.836,1.395-5.712,2.104-8.628
				c0.709-2.917,1.431-5.876,2.161-8.873c0.711-2.997,1.35-6.054,2.04-9.137c0.681-3.087,1.369-6.201,2.064-9.354
				c0.348-1.575,0.698-3.158,1.047-4.744c0.318-1.591,0.64-3.187,0.962-4.792c0.32-1.602,0.641-3.213,0.961-4.833
				c0.286-1.628,0.574-3.26,0.861-4.901c0.583-3.277,1.144-6.593,1.7-9.931c0.546-3.331,1.161-6.705,1.76-10.088l0.454-2.544
				c0.172-0.846,0.384-1.696,0.573-2.544c0.388-1.703,0.817-3.372,1.232-5.053c0.849-3.353,1.687-6.692,2.356-10.056
				c0.157-0.842,0.342-1.685,0.473-2.529l0.38-2.536c0.122-0.844,0.177-1.699,0.267-2.54l0.001-0.016l-0.34-0.098
				c-6.709-1.946-13.422-4.018-20.205-5.803c-3.387-0.907-6.76-1.868-10.157-2.733c-3.404-0.814-6.808-1.629-10.202-2.44
				c-1.702-0.396-3.393-0.838-5.097-1.194c-1.71-0.333-3.417-0.666-5.12-0.998c-2.956-0.578-5.907-1.154-8.847-1.724
				c-0.273,1.277-0.547,2.553-0.823,3.826c-0.357,1.695-0.76,3.374-1.15,5.053c-0.76,3.363-1.589,6.687-2.395,10
				c-1.648,6.612-3.328,13.129-4.989,19.536c-3.295,12.82-6.447,25.228-8.815,37.132c-0.289,1.489-0.583,2.969-0.869,4.439
				c-0.284,1.469-0.518,2.935-0.774,4.386c-0.533,2.901-0.931,5.78-1.35,8.604c-0.412,2.826-0.693,5.62-1.024,8.36
				c-0.041,0.521-0.087,1.026-0.129,1.526C198.385,175.173,198.244,176.804,198.236,176.892z"/>
		</g>
	</g>
	<g>
		<g>
			<path fill="#EC255A" d="M230.317,206.827l-0.487-0.137l-0.904-0.292c-0.745-0.247-1.478-0.504-2.14-0.75
				c-1.006-0.345-1.797-0.644-2.41-0.96c-0.527,0.49-1.11,0.762-1.384,0.89l-0.142,0.059c-0.36,0.127-0.629,0.177-0.897,0.177
				l-0.432-0.032l-0.217-0.073c-0.421-0.141-1.01-0.241-1.634-0.348l-0.503-0.087c-0.67-0.114-1.503-0.255-2.431-0.6
				c-0.672-0.246-1.287-0.579-1.826-0.987c-0.327-0.257-0.612-0.525-0.885-0.83l-0.125-0.153c-0.22-0.279-0.486-0.618-0.669-1.043
				c-0.508-0.956-0.809-2.095-0.885-3.411c-0.021-2.159,0.628-4.255,1.875-6.109c1.305-1.929,2.764-3.226,4.594-4.081
				c0.65-0.311,1.442-0.522,2.167-0.581c0.224-0.015,0.417-0.021,0.594-0.021c0.158,0,0.304,0.006,0.432,0.016
				c0.211,0.011,0.485,0.026,0.722,0.057c0.852,0.079,1.659,0.23,2.411,0.377c1.595,0.323,3.08,0.695,4.549,1.14
				c0.625,0.188,1.458,0.453,2.363,0.825c0.232,0.094,0.479,0.198,0.754,0.342c0.18,0.089,0.282,0.142,0.427,0.229
				c0.089,0.053,0.215,0.137,0.344,0.223l0.283,0.188l0.055,0.05c0.233,0.21,0.379,0.378,0.503,0.531l0.306,0.37
				c0.186,0.197,0.342,0.47,0.456,0.669l0.071,0.12c0.616,1.085,0.972,2.199,1.114,3.453c0.091,0.927,0.08,1.844-0.032,2.903
				l-0.063,0.5c-0.014,0.122-0.036,0.277-0.06,0.426l-0.124,0.722c-0.106,0.535-0.207,1.012-0.313,1.478l-0.499,1.579l-1.171,4.194
				L230.317,206.827z M227.907,200.296c0.246,0.004,0.502,0.033,1.333,0.149l0.021-0.118c0.104-0.476,0.185-0.854,0.247-1.226
				l0.019-0.109c0.053-0.328,0.096-0.595,0.143-1.173c0.061-0.706-0.001-1.321-0.165-1.707c-0.098-0.04-0.202-0.08-0.305-0.119
				c-0.544-0.211-1.16-0.4-1.797-0.593c-1.31-0.38-2.6-0.692-3.823-0.927c-0.723-0.132-1.286-0.214-1.766-0.257
				c-0.072-0.005-0.146-0.011-0.213-0.013c-0.042,0.018-0.096,0.042-0.168,0.073c-0.096,0.054-0.421,0.28-0.807,0.643
				c-0.334,0.346-0.611,0.688-0.812,1.011c-0.467,0.721-0.728,1.502-0.708,2.106c0.006,0.104,0.027,0.222,0.063,0.337
				c0.319,0.112,0.876,0.205,1.466,0.304c0.825,0.138,1.757,0.293,2.755,0.609c0.493,0.177,0.817,0.399,1.106,0.752
				c0.061,0.064,0.119,0.133,0.177,0.205c0.426-0.079,0.825-0.079,1.093-0.079C226.338,200.165,227.059,200.209,227.907,200.296z"/>
			<path fill="#EC255A" d="M230.577,205.861l-0.478-0.134l-0.866-0.28c-0.726-0.241-1.447-0.494-2.1-0.736
				c-1.467-0.504-2.439-0.896-2.97-1.339c-0.424,0.752-1.274,1.15-1.595,1.3l-0.098,0.04c-0.203,0.07-0.363,0.102-0.519,0.102
				l-0.227-0.019l-0.101-0.034c-0.496-0.165-1.123-0.272-1.787-0.386l-0.499-0.087c-0.662-0.112-1.413-0.239-2.255-0.552
				c-0.58-0.213-1.109-0.498-1.569-0.847c-0.269-0.211-0.514-0.442-0.743-0.699l-0.091-0.113c-0.188-0.239-0.4-0.509-0.53-0.812
				c-0.474-0.898-0.737-1.905-0.806-3.075c-0.018-1.925,0.573-3.807,1.707-5.492c1.198-1.772,2.528-2.958,4.188-3.734
				c0.541-0.258,1.225-0.441,1.823-0.489c0.187-0.013,0.357-0.019,0.514-0.019c0.131,0,0.252,0.005,0.357,0.013
				c0.21,0.011,0.456,0.024,0.669,0.052c0.833,0.078,1.617,0.224,2.347,0.366c1.557,0.315,3.011,0.68,4.451,1.115
				c0.606,0.184,1.413,0.44,2.272,0.793c0.21,0.085,0.428,0.177,0.671,0.304c0.163,0.081,0.25,0.124,0.373,0.198
				c0.082,0.049,0.191,0.122,0.304,0.197l0.226,0.149l0.059,0.053c0.133,0.119,0.241,0.247,0.334,0.362l0.313,0.38
				c0.148,0.159,0.267,0.366,0.362,0.533c0.031,0.054,0.062,0.107,0.095,0.159c0.525,0.927,0.838,1.928,0.963,3.026
				c0.082,0.845,0.071,1.693-0.033,2.686l-0.061,0.479c-0.014,0.121-0.033,0.259-0.055,0.391l-0.122,0.714
				c-0.1,0.499-0.198,0.967-0.303,1.424l-0.478,1.498c-0.032,0.115-0.065,0.227-0.094,0.344l-0.82,2.932L230.577,205.861z
				 M227.914,201.296c0.148,0,0.369,0.024,1.386,0.167l0.762,0.109l0.185-1.076c0.099-0.446,0.183-0.841,0.248-1.229l0.019-0.112
				c0.056-0.344,0.103-0.628,0.153-1.255c0.091-1.072-0.058-1.961-0.417-2.512l-0.058-0.065c-0.178-0.087-0.408-0.178-0.636-0.265
				c-0.57-0.221-1.207-0.417-1.864-0.615c-1.346-0.391-2.669-0.712-3.925-0.952c-0.779-0.143-1.358-0.226-1.865-0.271
				c-0.139-0.01-0.258-0.018-0.358-0.018c-0.139,0-0.15,0-0.512,0.158c-0.281,0.148-0.68,0.445-1.089,0.828
				c-0.411,0.424-0.733,0.82-0.978,1.213c-0.575,0.888-0.885,1.854-0.857,2.668c0.018,0.34,0.114,0.704,0.271,1.008
				c0.006,0.015,0.075,0.089,0.389,0.213c0.417,0.158,1.013,0.258,1.703,0.373c0.79,0.132,1.687,0.281,2.618,0.576
				c0.304,0.109,0.48,0.237,0.657,0.46c0.168,0.172,0.35,0.434,0.483,0.747c0.475-0.281,1.143-0.282,1.537-0.282
				c0.549,0,1.25,0.044,2.086,0.131H227.914z"/>
			<path fill="#EC255A" d="M230.577,205.861l-0.478-0.134l-0.866-0.28c-0.726-0.241-1.447-0.494-2.1-0.736
				c-1.467-0.504-2.439-0.896-2.97-1.339c-0.424,0.752-1.274,1.15-1.595,1.3l-0.098,0.04c-0.203,0.07-0.363,0.102-0.519,0.102
				l-0.227-0.019l-0.101-0.034c-0.496-0.165-1.123-0.272-1.787-0.386l-0.499-0.087c-0.662-0.112-1.413-0.239-2.255-0.552
				c-0.58-0.213-1.109-0.498-1.569-0.847c-0.269-0.211-0.514-0.442-0.743-0.699l-0.091-0.113c-0.188-0.239-0.4-0.509-0.53-0.812
				c-0.474-0.898-0.737-1.905-0.806-3.075c-0.018-1.925,0.573-3.807,1.707-5.492c1.198-1.772,2.528-2.958,4.188-3.734
				c0.541-0.258,1.225-0.441,1.823-0.489c0.187-0.013,0.357-0.019,0.514-0.019c0.131,0,0.252,0.005,0.357,0.013
				c0.21,0.011,0.456,0.024,0.669,0.052c0.833,0.078,1.617,0.224,2.347,0.366c1.557,0.315,3.011,0.68,4.451,1.115
				c0.606,0.184,1.413,0.44,2.272,0.793c0.21,0.085,0.428,0.177,0.671,0.304c0.163,0.081,0.25,0.124,0.373,0.198
				c0.082,0.049,0.191,0.122,0.304,0.197l0.226,0.149l0.059,0.053c0.133,0.119,0.241,0.247,0.334,0.362l0.313,0.38
				c0.148,0.159,0.267,0.366,0.362,0.533c0.031,0.054,0.062,0.107,0.095,0.159c0.525,0.927,0.838,1.928,0.963,3.026
				c0.082,0.845,0.071,1.693-0.033,2.686l-0.061,0.479c-0.014,0.121-0.033,0.259-0.055,0.391l-0.122,0.714
				c-0.1,0.499-0.198,0.967-0.303,1.424l-0.478,1.498c-0.032,0.115-0.065,0.227-0.094,0.344l-0.82,2.932L230.577,205.861z
				 M227.914,201.296c0.148,0,0.369,0.024,1.386,0.167l0.762,0.109l0.185-1.076c0.099-0.446,0.183-0.841,0.248-1.229l0.019-0.112
				c0.056-0.344,0.103-0.628,0.153-1.255c0.091-1.072-0.058-1.961-0.417-2.512l-0.058-0.065c-0.178-0.087-0.408-0.178-0.636-0.265
				c-0.57-0.221-1.207-0.417-1.864-0.615c-1.346-0.391-2.669-0.712-3.925-0.952c-0.779-0.143-1.358-0.226-1.865-0.271
				c-0.139-0.01-0.258-0.018-0.358-0.018c-0.139,0-0.15,0-0.512,0.158c-0.281,0.148-0.68,0.445-1.089,0.828
				c-0.411,0.424-0.733,0.82-0.978,1.213c-0.575,0.888-0.885,1.854-0.857,2.668c0.018,0.34,0.114,0.704,0.271,1.008
				c0.006,0.015,0.075,0.089,0.389,0.213c0.417,0.158,1.013,0.258,1.703,0.373c0.79,0.132,1.687,0.281,2.618,0.576
				c0.304,0.109,0.48,0.237,0.657,0.46c0.168,0.172,0.35,0.434,0.483,0.747c0.475-0.281,1.143-0.282,1.537-0.282
				c0.549,0,1.25,0.044,2.086,0.131H227.914z"/>
			<path fill="#EC255A" d="M222.786,201.193c0.072,0.026,0.101,0.034,0.178,0.131c0.28,0.291,0.534,0.806,0.439,1.245
				c-0.085,0.46-0.505,0.845-1.258,1.197c-0.028,0.01-0.15,0.052-0.203,0.046c-0.595-0.198-1.287-0.313-2.032-0.44
				c-0.752-0.136-1.563-0.233-2.477-0.573c-0.428-0.157-0.888-0.384-1.315-0.707c-0.21-0.165-0.413-0.358-0.6-0.567
				c-0.175-0.224-0.382-0.476-0.461-0.685c-0.468-0.869-0.66-1.789-0.714-2.708c-0.016-1.838,0.616-3.504,1.539-4.876
				c0.935-1.382,2.084-2.592,3.781-3.386c0.401-0.191,0.961-0.357,1.479-0.398c0.264-0.018,0.52-0.021,0.711-0.006
				c0.214,0.011,0.433,0.022,0.622,0.047c0.799,0.075,1.537,0.21,2.283,0.355c1.477,0.299,2.913,0.655,4.353,1.091
				c0.722,0.219,1.436,0.454,2.184,0.761c0.186,0.075,0.375,0.154,0.586,0.265c0.108,0.057,0.185,0.087,0.318,0.168
				c0.121,0.072,0.29,0.191,0.438,0.287c0.136,0.122,0.229,0.261,0.315,0.355l0.229,0.278c0.163,0.178,0.261,0.401,0.392,0.603
				c0.47,0.833,0.71,1.737,0.807,2.594c0.084,0.858,0.05,1.679-0.033,2.469l-0.059,0.455c-0.014,0.123-0.031,0.245-0.05,0.362
				l-0.12,0.701c-0.093,0.463-0.189,0.922-0.292,1.37c0,0-0.095,0.29-0.248,0.779c-0.042,0.119-0.082,0.252-0.128,0.393
				c-0.022,0.067-0.045,0.143-0.072,0.222c-0.04,0.138-0.083,0.281-0.12,0.433c-0.166,0.591-0.352,1.243-0.547,1.946
				c-0.599-0.161-1.228-0.333-1.877-0.505l-0.463-0.13l-0.291-0.093l-0.535-0.175c-0.708-0.236-1.419-0.484-2.062-0.724
				c-4.75-1.631-2.673-1.8,0.415-1.467c-0.083-0.039,0.45,0.032,1.264,0.146c0.408,0.059,0.884,0.125,1.389,0.2l0.189,0.03
				c0.042,0.003,0.038-0.004,0.055-0.004l0.069-0.012c0.043-0.008,0.077-0.019,0.099-0.03c-0.005-0.091-0.017-0.15-0.032-0.191
				l-0.006-0.013l0.023-0.127c0.015-0.091,0.034-0.171,0.045-0.258c0.032-0.165,0.056-0.322,0.083-0.462
				c0.096-0.561,0.157-0.924,0.157-0.924c0.092-0.413,0.18-0.824,0.248-1.229c0.068-0.424,0.122-0.715,0.183-1.452
				c0.107-1.272-0.078-2.427-0.623-3.209l-0.118-0.133c-0.043-0.049-0.08-0.095-0.081-0.103c-0.029-0.026,0.046,0.022-0.104-0.059
				c-0.218-0.116-0.522-0.24-0.824-0.355c-0.606-0.234-1.274-0.439-1.932-0.638c-1.324-0.385-2.679-0.72-4.025-0.978
				c-0.671-0.122-1.342-0.229-1.967-0.284c-0.714-0.053-0.814-0.017-1.356,0.22c-0.464,0.241-0.934,0.604-1.372,1.014
				c-0.42,0.432-0.822,0.899-1.144,1.415c-0.657,1.014-1.043,2.185-1.008,3.23c0.026,0.521,0.17,1.023,0.381,1.433
				c0.139,0.294,0.426,0.493,0.91,0.685C219.467,200.628,221.099,200.659,222.786,201.193z"/>
		</g>
	</g>
</g>
<g>
	<g>
		<g>
			<path fill="#EC255A" d="M59.622,241.294c-1.683,0-3.125-0.107-4.408-0.328c-1.451-0.227-2.532-0.589-3.385-1.137
				c-0.202-0.125-0.481-0.314-0.741-0.603l-0.276-0.299l-0.047-0.074c-0.066-0.105-0.129-0.208-0.188-0.311
				c-0.143-0.206-0.258-0.511-0.313-0.868c-0.026-0.109-0.063-0.315-0.049-0.557c-0.419-0.127-0.853-0.322-1.298-0.587
				c-0.164-0.111-0.504-0.363-0.68-0.656l-0.076-0.128l-0.036-0.144l-0.063-0.149c-0.134-0.346-0.387-1-0.705-1.918l-0.735-2.411
				c-0.197-0.604-0.352-1.267-0.516-1.967c-0.086-0.369-0.176-0.751-0.276-1.142l-0.135-0.565l-0.061-0.28l-0.575-2.979
				c-0.144-0.812-0.278-1.601-0.412-2.386c-0.541-3.163-1.051-6.15-1.859-9.181l-1.458-6.459c-1.343-5.943-2.732-12.09-4.084-18.297
				l-5.492-26.015l-1.4-6.728c-0.31-1.474-0.583-2.955-0.856-4.44c-0.145-0.787-0.291-1.576-0.441-2.366
				c-0.858-4.553-1.721-9.13-2.584-13.745c-0.219-1.126-0.434-2.263-0.649-3.401c-0.648-3.427-1.319-6.971-2.132-10.427
				l-1.721-7.761c-0.199-0.9-0.397-1.801-0.613-2.683l-0.243-0.974c-0.214-0.85-0.435-1.729-0.631-2.679l-0.025-0.137
				c-0.243-1.313-0.544-2.946-0.099-4.92l0.186-0.704c0.097-0.285,0.187-0.494,0.275-0.7c0.202-0.518,0.448-0.899,0.666-1.236
				l0.125-0.196c0.242-0.357,0.476-0.62,0.702-0.874l0.218-0.248c0.331-0.327,0.605-0.567,0.881-0.808l0.12-0.104
				c0.768-0.585,1.414-1.013,2.03-1.351c0.326-0.203,0.66-0.357,0.955-0.493l0.887-0.414c0.994-0.493,2.013-0.903,2.999-1.299
				l0.571-0.23c4.274-1.675,8.927-3.034,14.656-4.279c6.604-1.308,13.329-2.498,19.832-3.649c12.713-2.25,25.859-4.578,38.508-7.848
				c0.722-0.194,1.453-0.386,2.184-0.577c1.619-0.423,3.293-0.86,4.924-1.357l0.829-0.24c2.146-0.622,4.364-1.265,6.768-1.712
				c1.544-0.282,2.85-0.413,4.111-0.413l0.303,0.002c1.893,0.057,3.577,0.432,5.02,1.115c1.567,0.741,3.028,1.906,4.113,3.281
				c0.897,1.118,1.646,2.381,2.355,3.968c0.639,1.446,1.083,2.874,1.4,3.958c0.277,0.97,0.482,1.867,0.682,2.734l8.631,36.949
				l3.137,14.165l6.116,27.754l8.125,34.263c0.166,0.708,0.33,1.408,0.516,2.093l0.245,0.943c0.202,0.766,0.408,1.551,0.595,2.385
				c0.246,1.161,0.503,2.52,0.467,4.096c-0.027,1.721-0.557,3.494-1.452,4.857l-0.153,0.225c-0.191,0.28-0.386,0.562-0.599,0.803
				l-0.804,0.854l-0.209,0.181c-0.49,0.425-0.998,0.863-1.566,1.206l-0.854,0.551l-2.416,1.166
				c-4.506,2.021-8.98,3.065-12.822,3.887c-1.967,0.418-3.924,0.781-5.816,1.132c-2.15,0.399-4.181,0.775-6.174,1.218l-11.478,2.719
				c-2.415,0.552-4.815,1.068-7.186,1.579c-1.363,0.293-2.716,0.585-4.055,0.879c-3.433,0.749-6.788,1.429-10.032,2.085
				c-3.766,0.763-7.322,1.482-10.845,2.275c0,0-12.155,2.761-14.952,3.398l-2.248,0.519l-1.98,0.435
				c-0.141,0.023-2.02,0.313-4.625,0.543C63.088,241.171,61.383,241.294,59.622,241.294z M53.615,236.28
				c0.192,0.018,0.444,0.03,0.757,0.03c0.343,0,0.72-0.016,1.109-0.05c0.181-0.043,0.366-0.062,0.526-0.077
				c0.289-0.029,0.707-0.071,1.22-0.138c1.149-0.146,2.742-0.432,4.266-0.766c3.161-0.688,6.424-1.634,6.457-1.643l1.945-0.438
				l5.679-1.315l13.73-3.097l15.029-3.068l13.124-2.841c0,0,6.378-1.519,8.243-1.959c3.286-0.826,7.077-1.627,11.575-2.444
				c4.13-0.768,7.841-1.491,11.407-2.576c0.173-0.054,0.356-0.104,0.539-0.155c0.271-0.076,0.544-0.15,0.801-0.248l2.742-1.012
				c0.194-0.088,0.44-0.209,0.687-0.33l1.791-0.858c0.198-0.084,0.308-0.164,0.417-0.238l0.542-0.353
				c0.494-0.387,0.878-0.786,1.071-1.138c0.217-0.382,0.299-0.768,0.291-1.341c-0.007-0.603-0.119-1.368-0.353-2.413
				c-0.18-0.746-0.391-1.565-0.608-2.407c-0.324-1.258-0.661-2.566-0.94-3.814l-6.359-26.83c-0.96-4.03-1.953-8.197-2.845-12.371
				l-7.558-34.344l-9.038-38.707c-0.243-1.059-0.517-2.188-0.877-3.291c-0.766-2.34-1.652-4.001-2.632-4.937
				c-0.575-0.545-1.103-0.867-1.71-1.042c-0.574-0.174-1.218-0.26-1.927-0.26c-0.171,0-0.345,0.005-0.522,0.015
				c-2.041,0.109-4.404,0.725-6.459,1.294c-0.837,0.232-1.686,0.479-2.542,0.729c-1.495,0.437-3.041,0.888-4.592,1.274
				c-0.775,0.199-1.556,0.409-2.337,0.619c-1.603,0.431-3.259,0.875-4.913,1.238c-9.152,2.213-18.252,3.952-29.092,5.882
				l-14.458,2.57l-7.177,1.333c-2.101,0.39-4.541,0.856-6.92,1.467c-5.223,1.305-9.505,2.746-13.096,4.407l-1.514,0.711
				l-0.012,0.012c-0.369,0.216-0.718,0.42-0.994,0.635c-0.676,0.513-0.875,0.834-0.923,1.016c-0.097,0.312-0.123,0.953,0.061,1.926
				c0.144,0.781,0.361,1.644,0.591,2.556l0.181,0.723c0.702,2.992,1.352,5.946,2,8.89c0.374,1.698,0.746,3.392,1.127,5.084
				c0.36,1.527,0.649,3.079,0.929,4.58c0.147,0.79,0.294,1.579,0.451,2.366l1.313,6.886l2.536,13.543l0.63,3.343
				c0.225,1.087,2.052,9.849,2.052,9.849l5.431,25.664l4.35,19.389c0.355,1.585,0.708,3.163,1.109,4.794
				c0.644,2.682,1.104,5.34,1.55,7.911c0.229,1.322,0.454,2.618,0.696,3.877l0.305,1.555l0.144,0.586
				c0.379,1.723,0.817,3.134,1.168,4.267l0.176,0.57c0.261,0.741,0.48,1.305,0.6,1.609c0.044,0.114,0.101,0.269,0.101,0.269
				c0.131,0.345,0.134,0.613,0.012,0.993C54.599,234.591,54.319,235.528,53.615,236.28z"/>
			<path fill="#EC255A" d="M53.73,233.603c0.042,0.11,0.054,0.147-0.005,0.33c-0.142,0.617-0.491,1.454-1.162,1.954
				c-0.668,0.496-1.665,0.658-3.135-0.215c-0.054-0.038-0.27-0.206-0.332-0.311c-0.02-0.08-0.34-0.844-0.793-2.152
				c-0.203-0.665-0.447-1.466-0.724-2.375c-0.295-0.905-0.493-1.948-0.78-3.066c-0.036-0.139-0.067-0.283-0.103-0.422l-0.024-0.11
				l-0.014-0.052l-0.044-0.214c-0.189-0.985-0.378-1.978-0.573-2.971c-0.699-3.955-1.261-7.788-2.287-11.632
				c-1.79-7.959-3.69-16.26-5.531-24.711c-1.786-8.458-3.62-17.144-5.49-26.008c-0.464-2.231-0.932-4.472-1.4-6.725
				c-0.474-2.254-0.859-4.518-1.295-6.791c-0.855-4.54-1.719-9.122-2.583-13.741c-0.893-4.599-1.706-9.261-2.792-13.873
				c-0.513-2.315-1.027-4.638-1.545-6.97c-0.259-1.164-0.511-2.339-0.791-3.483c-0.279-1.144-0.596-2.312-0.866-3.617
				c-0.24-1.301-0.541-2.807-0.128-4.634l0.177-0.669c0.077-0.218,0.174-0.436,0.266-0.65c0.171-0.447,0.434-0.814,0.679-1.202
				c0.256-0.379,0.551-0.676,0.834-1.005c0.294-0.285,0.597-0.545,0.9-0.81c0.606-0.46,1.222-0.88,1.853-1.227
				c0.324-0.2,0.615-0.333,0.907-0.468l0.877-0.41c1.171-0.58,2.348-1.033,3.523-1.51c4.719-1.85,9.566-3.157,14.492-4.229
				c19.461-3.852,39.217-6.553,58.377-11.506c2.389-0.644,4.774-1.222,7.149-1.945c2.402-0.691,4.833-1.431,7.488-1.926
				c1.327-0.242,2.723-0.419,4.214-0.394c1.486,0.045,3.104,0.307,4.609,1.019c1.5,0.709,2.81,1.797,3.756,2.997
				c0.963,1.201,1.658,2.482,2.227,3.756c0.563,1.276,0.982,2.56,1.353,3.83c0.371,1.301,0.611,2.468,0.901,3.687
				c0.566,2.417,1.132,4.829,1.693,7.241c1.128,4.823,2.248,9.626,3.366,14.411c1.119,4.784,2.23,9.549,3.338,14.292
				c1.049,4.745,2.095,9.464,3.135,14.153c2.065,9.38,4.109,18.646,6.115,27.753c2.151,9.072,4.263,17.986,6.332,26.712
				c0.518,2.181,1.032,4.351,1.544,6.506c0.263,1.081,0.496,2.149,0.775,3.184c0.27,1.055,0.569,2.122,0.83,3.286
				c0.247,1.166,0.476,2.425,0.442,3.854c-0.022,1.414-0.438,3.038-1.288,4.332c-0.216,0.311-0.427,0.644-0.666,0.915l-0.746,0.792
				c-0.522,0.45-1.043,0.919-1.599,1.253l-0.827,0.534l-0.791,0.379L156,219.51c-4.209,1.887-8.46,2.925-12.596,3.81
				c-4.132,0.877-8.185,1.506-11.998,2.351c-3.897,0.924-7.731,1.83-11.493,2.723c-3.787,0.865-7.56,1.648-11.225,2.454
				c-7.332,1.6-14.252,2.869-20.881,4.361c-5.267,1.198-10.261,2.328-14.955,3.399c-0.869,0.199-1.625,0.375-2.249,0.519
				c-1.255,0.275-1.971,0.433-1.971,0.433s-1.896,0.293-4.499,0.523c-2.603,0.213-5.928,0.384-8.751-0.102
				c-1.199-0.188-2.221-0.483-3.015-0.993c-0.2-0.124-0.38-0.255-0.537-0.43c-0.076-0.08-0.147-0.155-0.218-0.234
				c-0.059-0.094-0.115-0.185-0.167-0.275c-0.114-0.169-0.167-0.351-0.194-0.526c-0.038-0.169-0.054-0.319-0.026-0.455
				c0.031-0.274,0.099-0.465,0.2-0.603c0.086-0.132,0.167-0.22,0.236-0.271c0.153-0.092,0.275-0.054,0.36,0.088
				c0.118,0.126,0.151,0.354,0.289,0.536c0.102,0.208,0.293,0.257,0.495,0.331c0.463,0.161,1.604,0.218,2.854,0.102
				c-0.126-0.036,0.555-0.063,1.696-0.212c1.14-0.145,2.737-0.427,4.35-0.78c3.232-0.704,6.522-1.659,6.522-1.659
				s0.685-0.154,1.885-0.423c1.576-0.363,3.488-0.808,5.686-1.316c2.913-0.656,5.918-1.336,9.017-2.036
				c1.546-0.347,3.115-0.701,4.708-1.06c1.603-0.327,3.227-0.661,4.876-0.996c3.293-0.673,6.673-1.363,10.133-2.068
				c3.404-0.737,6.894-1.493,10.45-2.263c0.891-0.193,1.786-0.388,2.683-0.58c0.905-0.215,1.815-0.433,2.728-0.649
				c1.826-0.437,3.671-0.874,5.535-1.313c3.676-0.925,7.651-1.73,11.524-2.434c3.888-0.723,7.775-1.465,11.52-2.604
				c0.464-0.145,0.954-0.255,1.404-0.426l1.365-0.506l1.367-0.502c0.436-0.192,0.852-0.41,1.279-0.611l1.284-0.613
				c0.231-0.097,0.398-0.212,0.563-0.323l0.51-0.33c0.624-0.483,1.12-0.98,1.403-1.495c0.288-0.509,0.426-1.063,0.415-1.837
				c-0.009-0.76-0.163-1.662-0.377-2.618c-0.456-1.895-1.083-4.144-1.549-6.222c-0.999-4.211-2.009-8.474-3.029-12.785
				c-1.023-4.312-2.056-8.67-3.097-13.069c-1.048-4.4-2.114-8.838-3.075-13.337c-1.975-8.99-3.988-18.13-6.025-27.386
				c-0.51-2.314-1.021-4.636-1.535-6.964c-0.539-2.315-1.081-4.638-1.624-6.967c-1.088-4.657-2.181-9.338-3.28-14.04
				c-1.098-4.702-2.2-9.421-3.309-14.156l-0.829-3.556c-0.277-1.21-0.551-2.306-0.9-3.375c-0.691-2.111-1.62-4.135-2.893-5.349
				c-0.636-0.603-1.304-1.043-2.123-1.279c-0.808-0.245-1.75-0.341-2.784-0.283c-2.07,0.11-4.362,0.69-6.669,1.329
				c-2.305,0.639-4.697,1.396-7.109,1.997c-2.404,0.618-4.8,1.319-7.222,1.85c-9.648,2.333-19.384,4.153-29.054,5.875
				c-4.828,0.857-9.647,1.717-14.457,2.569c-2.398,0.446-4.796,0.89-7.186,1.335c-2.364,0.438-4.688,0.892-6.985,1.481
				c-4.582,1.145-9.135,2.557-13.267,4.468l-1.519,0.714c-0.418,0.245-0.841,0.487-1.194,0.762c-0.725,0.549-1.14,1.045-1.275,1.545
				c-0.16,0.513-0.149,1.347,0.044,2.372c0.188,1.018,0.494,2.163,0.784,3.334c1.102,4.695,2.082,9.33,3.122,13.953
				c0.544,2.308,0.916,4.623,1.375,6.922c0.438,2.299,0.879,4.591,1.312,6.875c0.853,4.55,1.699,9.067,2.536,13.541
				c0.212,1.118,0.423,2.233,0.63,3.343c0.229,1.106,0.46,2.209,0.69,3.305c0.458,2.201,0.913,4.387,1.366,6.563
				c1.852,8.749,3.663,17.319,5.431,25.668c0.928,4.141,1.843,8.226,2.748,12.254c0.452,2.015,0.898,4.009,1.346,5.992
				c0.447,1.985,0.874,3.936,1.373,5.968c0.965,4.021,1.522,8.044,2.235,11.739l0.271,1.384l0.036,0.178l0.013,0.05l0.045,0.195
				l0.095,0.384c0.45,2.046,0.995,3.7,1.358,4.89C53.42,232.837,53.711,233.527,53.73,233.603z"/>
		</g>
	</g>
	<g>
		<g>
			<path fill="#EC255A" d="M41.479,258.729c-0.268,0-0.548-0.037-0.835-0.11c-0.263-0.066-0.517-0.158-0.774-0.281
				c-0.233-0.113-0.467-0.251-0.718-0.422c-0.027-0.019-0.478-0.354-0.69-0.727l-0.041-0.072l-0.029-0.078
				c-0.577-1.564-0.81-2.922-1.035-4.235l-0.406-2.393l-0.177-0.884l-2.701-11.337l-2.292-10.567l-0.561-2.643l-7.455-39.403
				c-0.246-1.254-0.481-2.519-0.717-3.783c-0.41-2.198-0.834-4.472-1.31-6.677l-2.187-10.429
				c-1.827-9.164-3.967-18.462-6.037-27.455c-1.091-4.737-2.182-9.478-3.236-14.227c-0.26-1.27-0.521-2.524-0.782-3.778
				c-0.471-2.263-0.941-4.525-1.387-6.783l-1.935-10.497l-0.702-3.181c-0.193-0.952-0.333-1.845-0.43-2.747
				c-0.001-0.006-0.02-0.171-0.013-0.517l0.016-1.148l0.163-1.396l0.143-0.59c0.15-0.705,0.406-1.292,0.653-1.861l0.145-0.336
				c0.613-1.277,1.677-3.023,3.375-4.334c1.641-1.314,3.593-1.861,4.939-2.086c1.247-0.229,2.258-0.27,3.081-0.281
				c0.003,0,0.006,0,0.01,0c0.811,0,1.417,0.029,1.899,0.085c0.689,0.071,1.45,0.233,1.771,0.886
				c0.187,0.381,0.159,0.82-0.079,1.203c-0.193,0.309-0.633,0.787-2.25,1.424c-0.343,0.139-0.732,0.282-1.142,0.432
				c-0.646,0.236-1.314,0.481-1.96,0.771c-0.075,0.049-0.157,0.095-0.249,0.138c-0.583,0.277-2.358,1.122-3.045,2.766l-0.023,0.056
				l-0.03,0.053c-0.103,0.181-0.189,0.424-0.281,0.682l-0.034,0.095c-0.102,0.234-0.143,0.418-0.188,0.596l-0.083,0.317
				c-0.063,0.19-0.069,0.287-0.08,0.432L11.753,93.7l0.018,0.481c-0.004,0.195,0.018,0.306,0.033,0.409l0.054,0.427
				c0.01,0.084,0.016,0.16,0.033,0.232l0.108,0.548c0.098,0.757,0.248,1.496,0.382,2.127l0.42,1.842
				c0.074,0.311,0.126,0.54,0.157,0.753l0.474,2.553c0.23,1.22,0.454,2.448,0.678,3.677c0.399,2.189,0.811,4.453,1.259,6.643
				l2.125,10.216l5.892,25.583l1.093,5.179l4.329,20.647c0.454,2.248,0.875,4.49,1.297,6.732c0.226,1.203,0.452,2.407,0.683,3.61
				l6.839,36.149l0.493,2.575l2.754,12.69l2.435,10.228c0.341,1.278,0.559,2.593,0.77,3.864c0.235,1.415,0.457,2.752,0.813,3.695
				c0.13,0.317,0.122,0.62-0.039,0.979c-0.05,0.136-0.115,0.286-0.192,0.451c-0.059,0.128-0.116,0.233-0.183,0.357l-0.057,0.104
				c-0.199,0.35-0.423,0.745-0.728,1.13c-0.441,0.583-1.013,0.956-1.686,1.093C41.838,258.711,41.665,258.729,41.479,258.729z"/>
			<path fill="#EC255A" d="M43.958,254.918c0.031,0.076,0.041,0.1-0.029,0.245c-0.042,0.12-0.101,0.256-0.172,0.407
				c-0.068,0.148-0.131,0.255-0.215,0.412c-0.167,0.294-0.37,0.653-0.631,0.982c-0.248,0.327-0.6,0.632-1.101,0.733
				c-0.253,0.049-0.556,0.044-0.918-0.049c-0.182-0.046-0.379-0.113-0.592-0.215c-0.187-0.091-0.379-0.205-0.586-0.346
				c-0.058-0.042-0.306-0.259-0.385-0.396c-0.605-1.642-0.818-3.088-1.06-4.474l-0.334-1.976l-0.183-0.913l-0.237-0.994
				l-2.472-10.378l-2.288-10.548l-0.56-2.639l-0.498-2.625l-0.993-5.25l-1.985-10.502l-3.976-21.004
				c-0.683-3.491-1.284-7.019-2.032-10.485l-2.186-10.423c-2.772-13.908-6.184-27.764-9.275-41.693
				c-0.719-3.513-1.472-7.031-2.164-10.537l-1.932-10.485l-0.708-3.215c-0.171-0.841-0.313-1.72-0.412-2.638
				c0,0-0.013-0.125-0.007-0.389c0.004-0.26,0.01-0.632,0.016-1.104c0.029-0.248,0.06-0.524,0.094-0.821
				c0.019-0.146,0.036-0.3,0.055-0.458c0.042-0.17,0.081-0.347,0.126-0.525c0.166-0.778,0.458-1.368,0.75-2.053
				c0.645-1.34,1.651-2.841,3.066-3.934c1.399-1.121,3.085-1.656,4.493-1.891c1.2-0.22,2.16-0.257,2.928-0.267
				c0.767-0.002,1.347,0.028,1.78,0.079c0.858,0.089,1.135,0.285,0.958,0.569c-0.177,0.283-0.834,0.653-1.766,1.02
				c-0.926,0.375-2.118,0.75-3.246,1.267c0.267-0.013-2.672,0.91-3.706,3.385c-0.162,0.285-0.273,0.615-0.387,0.934
				c-0.136,0.302-0.201,0.658-0.292,0.978c-0.118,0.353-0.104,0.58-0.129,0.798l-0.019,0.165l0.009,0.2
				c0.005,0.127,0.006,0.249,0.012,0.369c-0.01,0.222,0.045,0.487,0.066,0.694c0.03,0.212,0.04,0.39,0.08,0.556
				c0.063,0.322,0.1,0.509,0.1,0.509c0.086,0.684,0.228,1.404,0.385,2.141l0.253,1.122l0.068,0.299l0.103,0.439
				c0.055,0.233,0.111,0.46,0.142,0.671l0.48,2.591c0.65,3.443,1.244,6.928,1.941,10.338l2.126,10.22l4.717,20.483l1.179,5.12
				l1.089,5.161l2.164,10.323l2.165,10.323c0.695,3.441,1.316,6.885,1.977,10.326l3.907,20.656l1.957,10.325l0.975,5.165
				l0.494,2.578l0.549,2.542l2.21,10.172l2.439,10.247C43.076,250.008,43.241,253.021,43.958,254.918z"/>
		</g>
	</g>
	<g>
		<g>
			<path fill="#EC255A" d="M163.578,240.843c-0.35,0-1.258-0.004-1.68-0.68c-0.226-0.362-0.24-0.804-0.04-1.212
				c0.336-0.735,1.398-1.361,3.769-2.704c0.402-0.228,0.823-0.466,1.253-0.714c0.274-0.203,0.677-0.447,1.246-0.793l0.227-0.138
				c1.177-0.773,2.064-1.56,2.609-2.316c0.573-0.762,0.928-1.71,1.067-2.836c0.002-0.137,0.02-0.338,0.035-0.521
				c0.019-0.213,0.036-0.413,0.024-0.523l-0.02-0.6l0.025-0.567l-0.024-0.43l-0.046-1.053l-0.166-1.364
				c-0.02-0.212-0.044-0.367-0.073-0.523l-0.198-1.156c-0.184-0.976-0.417-2.002-0.649-3.026c-0.13-0.568-0.259-1.137-0.38-1.698
				l-2.15-9.582l-2.306-9.583l-2.289-9.636c-0.194-0.835-0.39-1.662-0.586-2.489c-0.559-2.354-1.135-4.788-1.614-7.229l-2.024-9.727
				l-7.763-38.722l-0.98-4.835l-8.99-40.976l-0.278-1.307c-0.093-0.512-0.166-0.982-0.223-1.44c-0.21-1.77-0.334-3.459-0.453-5.094
				c-0.121-1.654-0.235-3.216-0.429-4.774c-0.203-1.719-0.456-3.159-0.776-4.408c-0.394-1.489-0.867-2.631-1.406-3.387
				c-0.271-0.386-0.553-0.678-0.841-0.874c-0.128-0.091-0.291-0.17-0.454-0.243c-0.269-0.089-0.534-0.185-0.799-0.287
				c-0.541-0.138-1.178-0.206-1.944-0.206c-0.495,0-1.036,0.028-1.653,0.086c-0.665,0.083-1.384,0.173-2.119,0.332
				c-0.729,0.123-1.423,0.29-2.158,0.466l-0.118,0.028c-0.776,0.184-1.544,0.389-2.325,0.598c-0.778,0.208-1.568,0.419-2.386,0.615
				l-9.667,2.431c-2.08,0.491-4.18,0.934-6.211,1.363c-1.176,0.248-2.351,0.496-3.525,0.754c-3.331,0.726-6.712,1.4-9.982,2.052
				c-3.083,0.615-6.272,1.251-9.386,1.924l-9.628,2.055l-9.653,2.142l-9.627,2.146c-1.168,0.28-2.354,0.559-3.54,0.837
				c-2.003,0.471-4.005,0.942-5.996,1.436l-9.463,2.506c-3.079,0.863-6.147,1.5-9.115,2.116l-0.761,0.158
				c-2.512,0.495-5.348,1.054-8.186,1.529c-0.123,0.018-0.198,0.024-0.272,0.024c-0.285,0-0.506-0.092-0.686-0.183
				c-1.174-0.48-2.071-1.429-2.329-2.508c-0.275-1.149,0.125-2.359,1.189-3.596c0.045-0.05,0.381-0.402,0.737-0.542l0.098-0.039
				l0.103-0.017c2.668-0.446,5.368-0.972,7.979-1.481c2.979-0.611,6.365-1.307,9.513-2.189l9.817-2.601l9.857-2.339l19.643-4.36
				l9.883-2.104c2.9-0.618,5.811-1.198,8.717-1.776c3.604-0.717,7.331-1.459,10.953-2.263l7.346-1.57l12.033-3.029
				c3.362-0.913,6.772-1.838,10.721-1.956l0.135,0.002c0.999,0.025,2.032,0.052,3.146,0.318l0.19,0.037
				c0.216,0.041,0.433,0.084,0.643,0.149l0.782,0.271l0.763,0.278l0.876,0.418c1.14,0.629,2.15,1.498,2.97,2.538
				c0.662,0.836,1.228,1.783,1.729,2.892c0.91,2.072,1.354,4.084,1.638,5.606c0.283,1.566,0.5,3.249,0.684,5.303l0.39,5.049
				c0.065,0.793,0.132,1.591,0.228,2.343c0.046,0.367,0.096,0.724,0.157,1.063L148.482,83l8.752,39.895
				c0.915,4.271,1.779,8.62,2.614,12.826c0.457,2.306,0.915,4.612,1.384,6.916c0.664,3.298,1.324,6.599,1.983,9.899
				c1.938,9.689,3.939,19.71,6.024,29.429c1.058,4.572,2.155,9.156,3.256,13.749c1.991,8.311,4.051,16.904,5.868,25.492l0.267,1.551
				c0.03,0.167,0.061,0.334,0.082,0.505l0.149,1.282c0.06,0.46,0.098,0.937,0.112,1.405l0.016,0.35
				c0.016,0.338,0.03,0.674,0.034,1.014l-0.059,1.444c-0.002,0.032-0.013,0.189-0.054,0.48l-0.239,1.148
				c-0.124,0.596-0.529,2.16-1.616,3.926c-0.896,1.423-2.3,2.746-3.96,3.734c-1.518,0.927-3.1,1.462-4.445,1.862
				c-1.86,0.567-3.492,0.882-4.845,0.931C163.807,240.839,163.58,240.843,163.578,240.843z"/>
			<path fill="#EC255A" d="M18.588,87.779c-0.122,0.018-0.165,0.025-0.342-0.064c-1.214-0.5-3.027-2.01-0.833-4.559
				c0.043-0.045,0.238-0.222,0.345-0.264c2.67-0.446,5.337-0.966,8.005-1.486c3.243-0.666,6.51-1.344,9.592-2.208l9.803-2.597
				l9.832-2.333l9.83-2.184l9.798-2.173l9.875-2.102c6.564-1.399,13.177-2.598,19.679-4.041l4.893-1.046l2.445-0.522l2.414-0.605
				l9.654-2.432c3.295-0.894,6.644-1.811,10.506-1.926c0.982,0.025,1.979,0.045,3.019,0.293c0.255,0.054,0.518,0.09,0.767,0.168
				l0.751,0.261l0.748,0.273l0.784,0.379c1.051,0.582,1.94,1.394,2.62,2.256c0.686,0.867,1.193,1.778,1.604,2.685
				c0.798,1.817,1.237,3.616,1.566,5.378c0.318,1.765,0.517,3.498,0.67,5.208l0.389,5.037c0.067,0.813,0.135,1.626,0.232,2.392
				c0.048,0.383,0.101,0.758,0.165,1.113l0.101,0.512l0.134,0.607l4.31,19.654l4.313,19.655c1.405,6.557,2.658,13.149,3.994,19.727
				c2.649,13.148,5.227,26.359,8.011,39.339c3.008,13.013,6.319,25.989,9.123,39.238l0.225,1.315
				c0.037,0.219,0.082,0.437,0.11,0.659l0.035,0.302l0.036,0.325l0.077,0.647c0.056,0.43,0.092,0.867,0.105,1.317
				c0.019,0.45,0.045,0.894,0.05,1.344l-0.058,1.393c0,0-0.01,0.134-0.045,0.38c-0.053,0.257-0.134,0.626-0.229,1.09
				c-0.19,0.91-0.652,2.244-1.488,3.602c-0.859,1.365-2.211,2.561-3.62,3.399c-1.412,0.862-2.894,1.369-4.219,1.764
				c-2.235,0.682-3.714,0.857-4.596,0.89c-0.878,0.03-1.163-0.146-1.015-0.448c0.282-0.616,2.354-1.681,4.662-3.015
				c-0.133,0.04,0.489-0.334,1.454-0.92c0.934-0.613,2.133-1.519,2.901-2.587c0.79-1.049,1.122-2.277,1.248-3.297
				c0.021-0.531,0.098-0.939,0.062-1.275c-0.011-0.322-0.014-0.508-0.014-0.508l0.024-0.503l-0.024-0.525l-0.046-1.05l-0.128-1.087
				l-0.032-0.272l-0.015-0.103c-0.016-0.188-0.045-0.378-0.081-0.568l-0.195-1.139c-0.291-1.55-0.695-3.183-1.037-4.767l-2.152-9.59
				l-2.309-9.598l-2.289-9.634c-0.747-3.22-1.551-6.415-2.191-9.68l-2.026-9.738l-1.943-9.685l-3.878-19.352l-1.94-9.679
				l-0.98-4.837l-1.057-4.822l-4.233-19.291l-2.117-9.646l-1.057-4.822l-0.529-2.412l-0.277-1.301
				c-0.084-0.463-0.153-0.916-0.208-1.356c-0.415-3.495-0.49-6.714-0.882-9.867c-0.185-1.567-0.433-3.1-0.8-4.533
				c-0.375-1.417-0.879-2.764-1.56-3.719c-0.336-0.479-0.702-0.855-1.094-1.121c-0.187-0.133-0.407-0.24-0.654-0.35
				c-0.288-0.094-0.57-0.197-0.854-0.306c-1.151-0.307-2.543-0.299-3.998-0.162c-0.732,0.091-1.471,0.185-2.237,0.351
				c-0.754,0.125-1.526,0.314-2.297,0.499c-1.545,0.366-3.072,0.82-4.711,1.213l-9.677,2.434c-3.229,0.762-6.472,1.401-9.706,2.11
				c-6.466,1.41-12.947,2.588-19.365,3.976l-9.626,2.055l-9.661,2.144l-9.628,2.146c-3.187,0.764-6.388,1.492-9.559,2.279
				l-9.478,2.51c-3.318,0.93-6.558,1.583-9.824,2.262C24.027,86.791,21.323,87.321,18.588,87.779z"/>
		</g>
	</g>
	<g>
		<g>
			<path fill="#EC255A" d="M49.684,265.315c-0.913,0-1.795-0.05-2.622-0.149c-1.691-0.236-3.491-0.61-5.319-1.756
				c-1.016-0.651-1.877-1.479-2.497-2.399c-0.346-0.502-0.608-1.067-0.819-1.553l-0.025-0.058c0,0-0.095-0.311-0.136-0.438
				c-0.125-0.384-0.267-0.818-0.31-1.27c-0.037-0.283-0.032-0.508,0.103-0.871c0.159-0.554,0.477-1.09,0.899-1.514
				c0.452-0.473,1.006-0.789,1.589-0.901c0.178-0.032,0.349-0.048,0.523-0.048c0.455,0,0.928,0.11,1.405,0.327
				c0.247,0.109,0.523,0.262,0.86,0.477c0.111,0.071,0.221,0.149,0.333,0.229c0.122,0.088,0.246,0.182,0.395,0.259
				c0.235,0.138,0.572,0.381,0.706,0.755l0.032,0.088l0.015,0.093c0.066,0.42,0.17,0.609,0.691,0.974
				c0.459,0.307,1.343,0.566,2.407,0.7c0.562,0.07,1.146,0.105,1.785,0.105c0.414,0,0.837-0.015,1.275-0.041l3.532-0.279
				c0.761-0.036,1.491-0.148,2.263-0.266c0.413-0.063,0.826-0.126,1.24-0.178l1.752-0.25l1.728-0.329
				c4.128-0.746,8.345-1.781,12.423-2.781l1.755-0.431c2.387-0.586,4.807-1.16,7.234-1.716l3.685-0.786l18.023-3.635
				c2.001-0.386,4.028-0.84,5.987-1.279l12.188-2.724c3.449-0.768,7.014-1.561,10.513-2.39l19.568-4.55
				c0.142-0.025,7.629-1.23,12.922-1.684c1.661-0.185,3.005-0.279,3.969-0.279c0.878,0,2.512,0,2.717,1.222
				c0.152,0.906-0.181,1.754-5.833,3.709l-0.012-0.034c-0.85,0.391-2.648,0.932-6.376,2.051c-3.192,0.959-6.387,1.901-6.387,1.901
				l-20.444,4.76c-3.021,0.713-6.061,1.388-9.1,2.063c-1.687,0.375-3.374,0.749-5.058,1.131l-10.627,2.371l-17.821,3.599
				c-2.297,0.455-4.502,0.927-6.718,1.401l-0.283,0.061l-6.977,1.678l-2.037,0.495c-3.985,0.973-8.106,1.978-12.3,2.728
				l-0.681,0.129c-0.384,0.074-0.768,0.149-1.156,0.21l-1.862,0.266c-0.355,0.047-0.701,0.099-1.046,0.149
				c-0.886,0.132-1.803,0.268-2.741,0.318l-3.708,0.29C50.765,265.298,50.229,265.315,49.684,265.315z"/>
			<path fill="#EC255A" d="M38.952,257.599c-0.021-0.168-0.033-0.229,0.059-0.464c0.108-0.405,0.346-0.809,0.657-1.121
				c0.305-0.318,0.668-0.547,1.069-0.624c0.413-0.075,0.846-0.011,1.325,0.207c0.238,0.105,0.485,0.25,0.737,0.41
				c0.257,0.163,0.492,0.369,0.802,0.531c0.043,0.025,0.204,0.14,0.228,0.205c0.124,0.78,0.449,1.177,1.105,1.637
				c0.666,0.444,1.731,0.731,2.855,0.873c1.032,0.13,2.09,0.14,3.245,0.07l3.55-0.28c1.188-0.057,2.362-0.301,3.548-0.448
				l1.77-0.252l1.773-0.337c4.729-0.854,9.45-2.056,14.229-3.223c2.383-0.585,4.798-1.158,7.22-1.713l3.67-0.782l3.606-0.729
				l14.406-2.904c2.403-0.464,4.796-1.015,7.188-1.548l7.176-1.604c4.786-1.074,9.576-2.115,14.356-3.248l19.564-4.549
				c0,0,7.464-1.206,12.78-1.661c8.974-0.992,5.721,0.884,0.44,2.71c0.591-0.024-12.73,3.904-12.73,3.904l-20.387,4.745
				c-4.699,1.108-9.437,2.125-14.151,3.192l-7.084,1.584l-3.54,0.786l-3.562,0.72l-14.24,2.875
				c-2.396,0.475-4.696,0.969-7.013,1.465l-7.001,1.683c-4.692,1.136-9.412,2.341-14.278,3.211
				c-0.607,0.109-1.207,0.239-1.818,0.336l-1.846,0.263c-1.232,0.164-2.453,0.393-3.7,0.459l-3.733,0.292
				c-1.278,0.074-2.658,0.07-4.044-0.097c-1.573-0.22-3.25-0.571-4.907-1.61c-0.813-0.521-1.604-1.227-2.199-2.11
				c-0.297-0.432-0.527-0.921-0.732-1.393C39.204,258.578,38.997,258.071,38.952,257.599z"/>
		</g>
	</g>
	<g>
		<g>
			<path fill="#EC255A" d="M103.104,249.094c-0.338,0-0.644-0.042-0.924-0.087l-1.23-0.171l-0.365-0.271
				c-0.231-0.172-0.462-0.344-0.681-0.525c-0.267-0.204-0.506-0.467-0.717-0.698l-0.099-0.108c-0.167-0.178-0.317-0.346-0.398-0.462
				l-0.169-0.218c-0.506-0.672-0.947-1.362-1.395-2.182c-0.298-0.57-0.601-1.176-0.858-1.857c-0.085-0.203-0.169-0.461-0.252-0.719
				l-0.085-0.265l-0.154-0.593c-0.083-0.256-0.13-0.659-0.149-0.871l-0.026-0.213c-0.027-0.211-0.052-0.423-0.058-0.631l0.039-0.905
				l0.007-0.051c0.077-0.518,0.214-1.044,0.432-1.654c0.063-0.203,0.136-0.453,0.349-0.687l0.332-0.313
				c0.167-0.168,0.376-0.335,0.591-0.503c0.372-0.349,0.826-0.568,1.228-0.763c0.106-0.052,0.212-0.103,0.315-0.157
				c0.434-0.208,0.671-0.292,0.887-0.368c0.084-0.029,0.164-0.057,0.255-0.095l0.926-0.299c0.594-0.173,1.157-0.327,1.714-0.467
				c1.014-0.255,2.101-0.492,3.321-0.728c0.796-0.15,1.595-0.284,2.412-0.403c0.475-0.063,0.883-0.118,1.319-0.159
				c0.291-0.026,0.547-0.035,0.788-0.035c0.209,0,0.405,0.007,0.601,0.014l0.219,0.007c0.076,0.006,0.479,0.048,1.189,0.171
				l0.267,0.06c0.325,0.073,0.729,0.164,1.232,0.356c0.684,0.234,1.431,0.66,2.069,1.187c0.893,0.787,1.402,1.688,1.676,2.31
				c0.287,0.694,0.492,1.395,0.634,2.162c0.043,0.197,0.077,0.41,0.11,0.624l0.049,0.305l0.051,0.379l0.149,0.89
				c0.148,0.937,0.296,1.884,0.438,2.825l0.132,0.877l-0.854,0.236c-1.028,0.284-1.909,0.503-2.694,0.669l-0.27,0.061
				c-0.334,0.076-0.666,0.15-0.963,0.197c-0.292,0.035-0.536,0.066-0.779,0.102c-2,0.273-3.27,0.519-4.159,0.707
				c-0.149,0.613-0.439,1.22-0.881,1.84c-0.021,0.029-0.348,0.444-0.726,0.62l-0.079,0.037l-0.084,0.022
				c-0.86,0.23-1.548,0.393-2.229,0.525c-0.235,0.055-0.539,0.099-0.843,0.141l-0.394,0.058c-0.147,0.021-0.295,0.035-0.455,0.041
				l-0.446,0.024C103.334,249.089,103.218,249.094,103.104,249.094z M106.946,241.639c0.44,0.145,0.846,0.34,1.206,0.58
				c0.153,0.094,0.299,0.2,0.435,0.317c0.136-0.106,0.279-0.21,0.427-0.309c0.829-0.563,2.004-1.14,3.493-1.713
				c0.078-0.049,0.167-0.093,0.27-0.133l0.076-0.03c-0.07-0.207-0.15-0.454-0.229-0.702c-0.12-0.317-0.295-0.783-0.407-0.946
				c-0.024-0.037-0.043-0.065-0.058-0.087c-0.051-0.01-0.125-0.024-0.209-0.037c-0.181-0.022-0.393-0.038-0.599-0.038l-0.172-0.003
				c-0.106,0-0.204,0.006-0.287,0.011c0,0-0.574,0.028-0.626,0.03l-0.366,0.04l-0.868,0.12c-0.585,0.089-1.197,0.199-1.806,0.309
				c-1.009,0.193-1.994,0.409-2.914,0.64c-0.475,0.118-0.936,0.246-1.392,0.379l-0.124,0.039c0.134,0.336,0.292,0.646,0.458,0.965
				c0.191,0.349,0.397,0.686,0.601,0.979c0.109-0.015,0.222-0.031,0.348-0.061c0.615-0.111,1.226-0.268,1.802-0.422
				c0.121-0.028,0.235-0.054,0.38-0.054C106.607,241.514,106.792,241.573,106.946,241.639z"/>
			<path fill="#EC255A" d="M106.262,242.533c0.114-0.025,0.151-0.038,0.331,0.042c0.313,0.1,0.67,0.252,1.006,0.476
				c0.354,0.218,0.659,0.514,0.853,0.882c0.19,0.369,0.269,0.805,0.19,1.32c-0.077,0.511-0.29,1.091-0.78,1.779
				c-0.037,0.049-0.227,0.244-0.333,0.294c-0.681,0.183-1.398,0.361-2.161,0.51c-0.363,0.083-0.802,0.128-1.205,0.192
				c-0.098,0.014-0.212,0.024-0.336,0.029l-0.459,0.024c-0.369,0.032-0.698-0.01-1.028-0.063l-0.997-0.139
				c-0.27-0.201-0.542-0.397-0.798-0.61c-0.268-0.205-0.49-0.465-0.72-0.715c-0.112-0.12-0.246-0.26-0.312-0.355l-0.199-0.258
				c-0.509-0.677-0.926-1.35-1.309-2.051c-0.291-0.558-0.568-1.117-0.8-1.731c-0.124-0.295-0.218-0.629-0.325-0.947l-0.134-0.523
				c-0.054-0.171-0.098-0.447-0.122-0.713c-0.028-0.262-0.073-0.525-0.081-0.784l0.036-0.779c0.074-0.499,0.212-0.981,0.384-1.464
				c0.05-0.115,0.06-0.255,0.145-0.348l0.276-0.258c0.179-0.18,0.377-0.331,0.577-0.487c0.367-0.347,0.876-0.539,1.338-0.78
				c0.543-0.26,0.745-0.295,1.06-0.425l0.848-0.271c0.557-0.162,1.108-0.313,1.654-0.45c1.094-0.274,2.175-0.505,3.267-0.715
				c0.78-0.147,1.564-0.279,2.368-0.396c0.403-0.054,0.82-0.11,1.268-0.152c0.588-0.055,1.021-0.024,1.484-0.011
				c0,0,0.379,0.04,1.047,0.156c0.365,0.087,0.772,0.157,1.313,0.364c0.517,0.178,1.174,0.516,1.791,1.024
				c0.619,0.546,1.093,1.252,1.397,1.941c0.277,0.67,0.452,1.327,0.566,1.941c0.068,0.317,0.104,0.609,0.157,0.918l0.029,0.222
				l0.015,0.115l0.032,0.181l0.123,0.742c0.146,0.927,0.294,1.872,0.436,2.812c-0.915,0.253-1.807,0.479-2.634,0.654
				c-0.406,0.09-0.822,0.191-1.184,0.249c-0.259,0.03-0.512,0.063-0.764,0.099c-2.213,0.303-3.531,0.57-4.36,0.748
				c-0.81,0.193-1.16,0.136-1.102-0.198c0.065-0.309,0.554-0.96,1.46-1.567c0.89-0.604,2.146-1.175,3.454-1.671
				c-0.045,0.003-0.007-0.026,0.112-0.072c0.06-0.024,0.137-0.053,0.229-0.093c0.083-0.033,0.246-0.088,0.257-0.103
				c0.158-0.101,0.378-0.216,0.515-0.351c-0.066-0.152-0.135-0.293-0.201-0.413l-0.048-0.087l-0.023-0.038
				c-0.004-0.009-0.006-0.003-0.013-0.025l-0.03-0.102c-0.083-0.246-0.166-0.502-0.248-0.759c-0.173-0.462-0.351-0.939-0.535-1.207
				c-0.183-0.289-0.322-0.385-0.42-0.427c-0.106-0.037-0.288-0.086-0.527-0.121c-0.253-0.032-0.522-0.051-0.782-0.049
				c-0.244-0.01-0.462,0.011-0.605,0.016c-0.142,0.008-0.219,0.01-0.219,0.01c-0.128-0.002-0.182,0.014-0.287,0.014l-0.411,0.045
				l-0.896,0.124c-0.607,0.092-1.228,0.203-1.846,0.314c-1.002,0.192-2.004,0.41-2.979,0.653c-0.488,0.122-0.961,0.253-1.43,0.39
				l-0.672,0.215l-0.424,0.159c0,0-0.001-0.014,0.016,0.064l0.066,0.256c0.07,0.188,0.111,0.366,0.199,0.559
				c0.137,0.384,0.339,0.782,0.542,1.172c0.271,0.495,0.58,0.989,0.895,1.405l0.136,0.178c0.037-0.003-0.152,0.013,0.208-0.017
				c0.276-0.049,0.518-0.063,0.824-0.135C105.005,242.86,105.617,242.706,106.262,242.533z"/>
		</g>
	</g>
</g>
</svg>
