<?xml version="1.0" encoding="utf-8"?>
<!-- Generator: Adobe Illustrator 16.0.0, SVG Export Plug-In . SVG Version: 6.00 Build 0)  -->
<!DOCTYPE svg PUBLIC "-//W3C//DTD SVG 1.1//EN" "http://www.w3.org/Graphics/SVG/1.1/DTD/svg11.dtd">
<svg version="1.1" id="Capa_1" xmlns="http://www.w3.org/2000/svg" xmlns:xlink="http://www.w3.org/1999/xlink" x="0px" y="0px"
	 width="300px" height="300px" viewBox="0 0 300 300" enable-background="new 0 0 300 300" xml:space="preserve">
<g>
	<g>
		<g>
			<path fill="#EC255A" d="M-207.315,231.966c1.541-2.218,3.059-4.469,4.569-6.729l4.56-6.896c0.764-1.12,1.491-2.321,2.28-3.377
				l4.089,0.337l1.963,0.157c0.632,0.065,1.268,0.012,1.899,0.021c1.275-0.015,2.546,0.045,3.802-0.124
				c1.257-0.141,2.536-0.159,3.771-0.438c10.033-1.56,19.374-6.636,26.878-13.716c7.536-7.08,13.387-16.029,17.335-25.702
				c3.942-9.676,6.074-20.149,5.772-30.5c-0.151-5.168-0.936-10.298-2.455-15.162c-0.195-0.606-0.349-1.222-0.58-1.819l-0.694-1.772
				c-0.414-1.183-1.017-2.36-1.6-3.539l-1.743-3.542c-0.301-0.58-0.55-1.193-0.892-1.754l-1.023-1.673
				c-5.257-9.058-12.269-17.026-20.717-23.055c-8.389-6.14-18.333-9.93-28.578-11.734c-10.262-1.857-20.939-1.351-31.168,0.862
				c-10.183,2.092-19.748,6.729-27.695,13.357c-7.957,6.611-14.256,15.197-18.385,24.732c-4.13,9.526-6.108,20.001-5.75,30.385
				c0.339,10.374,3.083,20.69,7.927,29.818l0.909,1.658c0.292,0.558,0.602,1.115,0.993,1.647l1.111,1.618
				c0.355,0.514,0.802,1.233,1.19,1.844l0.607,0.951c0.2,0.326,0.366,0.729,0.547,1.086c0.344,0.744,0.744,1.482,1.014,2.231
				l0.703,2.314c0.485,1.209,0.494,2.613,0.005,3.879c-0.597,1.487-0.922,1.903-1.305,2.608c-0.38,0.654-0.757,1.253-1.139,1.858
				l-2.27,3.483c-1.501,2.281-2.993,4.53-4.318,6.765c-0.664,1.106-1.281,2.229-1.746,3.248c-0.103,0.246-0.216,0.502-0.288,0.708
				v-0.006l0.005-0.007c0.136,0.15,0.281,0.315,0.499,0.481l0.594,0.505l0.698,0.5c0.949,0.665,2.033,1.299,3.151,1.904
				c2.247,1.211,4.662,2.313,7.121,3.384c2.462,1.084,4.976,2.071,7.655,3.375c2.412,1.148,4.809,2.302,7.294,3.365l3.34,1.455
				l1.584,0.67l3.155,1.344c0,0,4.53,2.229,8.937,4.583c2.2,1.204,4.357,2.438,5.9,3.357c1.531,0.982,2.47,1.611,2.259,1.538
				c0.848,0.592,1.665,1.14,2.377,1.714c0.706,0.595,1.343,1.152,1.876,1.657c1.064,1.016,1.738,1.821,1.833,2.29
				c0.09,0.48-0.384,0.598-1.615,0.277c-0.615-0.166-1.411-0.441-2.417-0.849c-0.495-0.206-1.047-0.439-1.664-0.697
				c-0.624-0.24-1.313-0.502-2.07-0.792c-0.879-0.336-1.813-0.693-2.76-1.052c-0.964-0.344-1.948-0.689-2.928-1.041
				c-1.94-0.713-3.893-1.379-5.63-1.966c-3.462-1.195-6.031-2.076-6.031-2.076l-9.362-4.019c-2.573-1.101-5.15-2.366-7.704-3.567
				c-2.224-1.068-4.927-2.144-7.48-3.276c-2.597-1.138-5.207-2.333-7.811-3.795c-1.301-0.729-2.601-1.537-3.915-2.516
				c-0.326-0.22-0.659-0.54-0.986-0.809c-0.325-0.269-0.655-0.553-0.987-0.926l-0.647-0.702c-0.233-0.251-0.388-0.557-0.556-0.845
				l-0.491-0.88c-0.157-0.292-0.364-0.564-0.383-0.909c-0.325-1.313-0.05-2.667,0.41-4.01c0.334-0.92,0.665-1.613,1.012-2.323
				c0.702-1.396,1.445-2.657,2.199-3.892c1.504-2.461,3.069-4.791,4.583-7.098c0.75-1.149,1.503-2.299,2.175-3.407
				c0.342-0.548,0.666-1.103,0.905-1.574c0.061-0.124,0.02-0.044,0.034-0.071l-0.014-0.033l-0.011-0.026l-0.065-0.203l-0.25-0.853
				c-0.092-0.275-0.147-0.58-0.266-0.836l-0.363-0.752c-0.388-0.984-1.134-2.05-1.801-3.104c-0.771-1.193-1.664-2.323-2.383-3.619
				c-0.71-1.31-1.472-2.608-2.12-3.924c-0.616-1.32-1.271-2.628-1.85-3.965c-0.539-1.355-1.111-2.694-1.616-4.062
				c-1.998-5.478-3.352-11.192-4.032-16.978c-1.377-11.576-0.08-23.441,3.735-34.447c3.801-11.003,10.142-21.167,18.557-29.301
				c8.392-8.15,18.86-14.141,30.122-17.296c1.4-0.458,2.819-0.729,4.233-1.03l4.251-0.893l4.289-0.589
				c1.431-0.21,2.858-0.404,4.308-0.454l4.328-0.262c1.444-0.092,2.892,0.019,4.341,0.014c1.452,0.063,2.899-0.02,4.339,0.157
				l4.329,0.427c1.446,0.092,2.873,0.394,4.304,0.655c1.426,0.271,2.856,0.509,4.279,0.801l4.212,1.154l2.105,0.584
				c0.692,0.217,1.364,0.502,2.049,0.747l4.094,1.532c1.361,0.521,2.639,1.237,3.963,1.848l1.97,0.953l0.983,0.482l0.938,0.557
				l3.739,2.271c9.927,6.195,18.029,14.995,24.163,24.767l2.249,3.709l0.561,0.932l0.479,0.967l0.955,1.941l1.901,3.875
				c0.331,0.637,0.62,1.313,0.882,2.014l0.814,2.079c2.049,5.582,3.168,11.429,3.539,17.274c0.728,11.703-1.41,23.367-5.565,34.16
				c-4.191,10.785-10.473,20.835-18.867,29.015c-4.196,4.072-8.932,7.654-14.143,10.46c-5.204,2.812-10.888,4.829-16.759,5.826
				c-0.731,0.117-1.459,0.288-2.203,0.36l-2.225,0.203c-0.743,0.058-1.479,0.149-2.227,0.183l-2.23,0.011l-2.226,0.008l-2.22-0.178
				l-0.277-0.023c-0.075-0.007-0.02,0-0.039-0.003h0.004l0,0h-0.004l-4.403,6.655c-1.55,2.317-3.109,4.636-4.713,6.942
				c-2.302,3.302-4.551,6.548-7.3,9.847c-0.136,0.117-0.559,0.267-0.647,0.291c-1.248,0.269-2.38,0.255-3.042-0.082
				c-0.672-0.333-1.063-0.875-1.299-1.415c-0.249-0.556-0.397-1.128-0.514-1.605c-0.118-0.476-0.099-1.054-0.073-1.446
				c0-0.262,0.034-0.284,0.132-0.415C-211.839,238.421-209.544,235.153-207.315,231.966z"/>
		</g>
	</g>
	<g>
		<g>
			<path fill="#EC255A" d="M-227.977,220.968c3.642-6.584,7.366-13.25,11.87-19.579c2.228-3.181,4.748-6.229,7.496-9.104
				c2.785-2.868,5.987-5.458,9.549-7.564l2.735-1.472c0.868-0.416,1.75-0.827,2.629-1.212l5.139-2.275
				c3.331-1.504,6.624-3.064,9.212-4.957c1.25-0.932,2.354-1.984,2.807-2.882c0.27-0.456,0.351-0.826,0.377-1.203
				c0.053-0.368-0.038-0.782-0.213-1.277c-0.728-2.001-3.532-4.761-6.051-6.391c-2.637-1.715-5.71-2.705-8.235-2.361
				c-1.259,0.17-2.38,0.63-3.39,1.423l-0.735,0.655c-0.248,0.21-0.467,0.53-0.706,0.79c-0.497,0.552-0.78,1.02-0.965,1.454
				c-0.37,0.865-0.343,1.584,0.065,2.447c0.397,0.842,1.303,1.688,2.188,2.046c0.429,0.184,0.846,0.254,1.057,0.222
				c0.219-0.037,0.216-0.052,0.311-0.124c0.088-0.079,0.28-0.361,0.417-0.853c0.085-0.223,0.118-0.537,0.176-0.829l0.124-1.218
				c0.283-3.283-0.16-6.447-1.597-8.423c-1.343-1.987-3.898-3.013-6.962-3.076c-3.029-0.066-6.354,0.761-9.126,2.171
				c-1.366,0.689-2.645,1.621-3.267,2.411l-0.158,0.213l0.183,0.125l0.231-0.578c0.204-0.58,0.358-1.271,0.447-1.989
				c0.361-2.896-0.25-6.233-1.684-8.301c-1.389-2.027-3.586-2.777-5.753-2.027c-2.283,0.742-4.711,3.168-6.188,5.786
				c-0.371,0.656-0.681,1.328-0.882,1.922c-0.112,0.301-0.153,0.551-0.192,0.728c-0.004,0.04,0.003,0.046-0.004,0.072l-0.006,0.032
				c-0.1-0.017-0.317-0.025-0.469-0.023c-0.729,0.044-1.27,0.116-1.657,0.276c-0.355,0.107-0.508,0.344-0.422,0.226
				c0.01-0.025,0.014-0.046,0.014-0.06c1.052-5.021,0.344-1.383,0.599-2.498l0.086,0.02l0.341,0.086l0.344,0.085
				c0.092,0.017-0.056-0.053-0.079-0.053c-0.018-0.059-0.064,0.132-0.089,0.227c-0.026,0.113-0.046,0.234-0.054,0.352
				c-0.01,0.304-0.018,0.35-0.01,0.491c0.013,0.124,0.045,0.255,0.103,0.387c0.041,0.094,0.037,0.094,0.037,0.094
				c0,0.013,0.003,0.019,0.005,0.032c0,0.014,0.047,0.085,0.036,0.062c-0.049-0.075-0.106-0.127-0.164-0.168
				c-0.037,0.003-0.432-0.334-0.709-0.406c-0.079-0.028-0.128-0.021-0.237-0.071c-0.121-0.059-0.232-0.1-0.35-0.146
				c-0.008-0.006-0.004-0.012,0.005-0.019c0.039-0.164,0.041-0.784-0.064-1.41c-0.125-0.65-0.307-1.359-0.577-2.065
				c-0.504-1.419-1.288-2.802-2.174-3.982c-0.882-1.194-1.955-2.123-2.867-2.531c-0.455-0.205-0.838-0.31-1.178-0.277
				c-0.34-0.022-0.685,0.109-1.109,0.299c-0.845,0.443-1.847,1.453-2.733,2.706c-0.74,1.069-1.137,2.195-1.28,3.515
				c-0.279,2.651,0.724,5.894,2.151,9.015c1.432,3.153,3.299,6.283,5.228,9.472c0.969,1.598,1.955,3.215,2.928,4.907
				c0.964,1.705,1.933,3.433,2.74,5.498c0.41,0.976,0.789,2.292,0.945,3.571c0.133,1.22,0.158,2.388,0.072,3.481
				c-0.149,2.2-0.561,4.231-1.052,6.188c-0.502,1.952-1.093,3.838-1.736,5.678l-0.953,2.613l-0.635,1.648l-1.331,3.259
				c0,0-0.57,1.142-1.418,2.842c-0.86,1.686-2.025,3.909-3.183,6.089c-2.337,4.35-4.528,8.562-4.434,8.156
				c-1.974,3.478-3.513,6.283-4.325,6.77c-0.802,0.525-1.306-1.703,0.582-8.084c1.008-3.777,2.546-8.197,3.746-11.671
				c1.199-3.456,2.083-6.016,2.083-6.016l1.314-3.169l0.628-1.586l0.301-0.789l0.149-0.397l0.348-0.951l0.458-1.298
				c1.192-3.433,2.187-6.977,2.348-10.103c0.029-0.753,0.002-1.507-0.106-2.081c-0.042-0.516-0.338-1.218-0.626-1.96
				c-0.642-1.495-1.51-3.075-2.432-4.669c-1.865-3.188-3.951-6.442-5.869-9.91c-1.896-3.483-3.748-7.163-4.682-11.555
				c-0.44-2.188-0.65-4.601-0.155-7.082c0.262-1.221,0.626-2.465,1.227-3.595c0.557-1.159,1.297-2.169,1.988-3.036
				c1.439-1.763,3.373-3.659,6.305-4.559c1.475-0.379,3.096-0.473,4.564-0.124c1.445,0.344,2.776,0.931,3.825,1.684
				c2.178,1.466,3.642,3.303,4.883,5.2c1.22,1.918,2.138,3.945,2.755,6.211c0.289,1.157,0.537,2.325,0.52,3.764
				c0.021,0.332-0.029,0.744-0.071,1.128c-0.024,0.364-0.122,0.813-0.26,1.266c-0.098,0.416-0.325,0.936-0.605,1.433
				c-0.217,0.47-0.719,1.011-1.18,1.453c-0.477,0.437-1.132,0.777-1.729,1.037c-0.567,0.168-1.186,0.318-1.763,0.345
				c-0.568,0.006-1.203-0.046-1.707-0.131l-0.698-0.17l-0.172-0.051c-0.622-0.173-0.398-0.135-0.643-0.219
				c-0.131-0.063-0.262-0.126-0.389-0.193c-0.525-0.267-0.95-0.641-1.316-1.079c-0.702-0.859-0.925-1.694-1.041-2.309
				c-0.179-1.221-0.042-2.034,0.092-2.75c0.297-1.419,0.767-2.491,1.27-3.549c0.516-1.042,1.101-2.001,1.752-2.924
				c1.292-1.835,2.834-3.504,4.731-4.929c1.903-1.388,4.253-2.587,7.003-2.843c1.355-0.125,2.76-0.02,4.086,0.325
				c1.292,0.352,2.557,0.908,3.688,1.671c2.256,1.545,3.828,3.735,4.776,5.933c0.976,2.219,1.437,4.495,1.595,6.764
				c0.11,2.277-0.03,4.552-0.763,6.948c-0.199,0.615-0.422,1.195-0.743,1.859c-0.423,0.854-0.978,1.629-1.611,2.302
				c-0.632,0.686-1.42,1.169-2.238,1.558c-0.842,0.341-1.745,0.49-2.652,0.419c-0.878-0.129-1.744-0.361-2.593-0.821
				c-0.218-0.105-0.422-0.189-0.636-0.32l-0.594-0.359c-0.288-0.18-0.667-0.483-0.982-0.736c-1.436-1.213-2.458-2.953-2.55-4.827
				c-0.046-0.93,0.111-1.869,0.429-2.759c0.315-0.875,0.88-1.777,1.284-2.298c0.877-1.135,1.824-1.949,2.778-2.665
				c1.911-1.409,3.906-2.367,5.954-3.128c2.058-0.747,4.184-1.252,6.385-1.501c2.205-0.242,4.487-0.216,6.821,0.262
				c2.315,0.48,4.709,1.5,6.696,3.186c2.007,1.662,3.407,3.958,4.207,6.24c0.773,2.3,1.06,4.596,1.063,6.781
				c0.007,1.096-0.046,2.178-0.157,3.227l-0.074,0.795l-0.161,0.945c-0.105,0.634-0.298,1.315-0.555,1.993
				c-0.509,1.345-1.453,2.852-2.974,3.901c-1.511,1.063-3.383,1.46-4.966,1.353c-3.183-0.271-5.568-1.791-7.402-3.813
				c-1.809-2.019-3.003-5.003-2.636-8.031c0.16-1.492,0.689-2.894,1.38-4.067c0.331-0.624,0.725-1.089,1.098-1.602l1.148-1.338
				c1.667-1.752,3.895-3.233,6.353-3.955c2.462-0.746,5.032-0.757,7.346-0.317c2.328,0.435,4.457,1.281,6.409,2.351
				c1.93,1.055,3.771,2.418,5.306,3.857c1.567,1.462,3.123,3.089,4.359,5.326c0.616,1.091,1.107,2.424,1.328,3.876
				c0.242,1.457,0.05,3.062-0.41,4.454c-0.984,2.846-2.831,4.652-4.536,6.112c-3.513,2.821-7.152,4.504-10.708,6.153l-5.263,2.328
				c-1.713,0.755-3.428,1.542-4.86,2.359c-2.976,1.659-5.759,3.767-8.244,6.337c-2.494,2.541-4.834,5.314-6.952,8.324
				c-4.294,5.963-7.963,12.536-11.645,19.184c-1.903,3.457-3.812,6.962-5.824,10.444c-0.113,0.138-0.46,0.321-0.539,0.352
				c-4.58,1.735-5.646-1.624-5.748-3.454c-0.044-0.281-0.008-0.338,0.074-0.484C-231.806,227.904-229.919,224.449-227.977,220.968z"
				/>
		</g>
	</g>
	<g>
		<g>
			<path fill="#EC255A" d="M-208.417,248.167c0.421,0.592,0.749,1.255,1.093,1.89c0.249,0.688,0.518,1.377,0.68,2.086
				c0.105,0.718,0.28,1.449,0.261,2.178c0.027,1.422-0.227,2.972-0.74,4.297c-0.249,0.668-0.583,1.277-0.923,1.892
				c-0.398,0.608-0.82,1.21-1.36,1.775c-1.144,1.238-2.741,2.224-4.344,2.668c-1.604,0.464-3.142,0.507-4.532,0.394
				c-2.795-0.249-5.136-1.063-7.334-1.947c-2.201-0.899-4.234-1.934-6.198-2.972l-2.867-1.523l-2.867-1.45
				c-7.824-3.98-15.524-8.164-23.063-12.775c-1.642-1.01-3.277-2.042-4.896-3.109c0,0-4.157-3.01-7.969-6.476
				c-1.897-1.726-3.701-3.611-4.893-5.183c-1.199-1.568-1.771-2.841-1.605-2.633c-0.276-0.553-0.497-1.115-0.686-1.811
				c-0.187-0.682-0.27-1.434-0.198-2.094c0.12-1.336,0.819-2.405,1.617-3.023c0.808-0.623,1.632-0.884,2.144-0.96
				c0.544-0.09,0.941-0.037,1.168,0.047c0.456,0.214,0.206,0.648-0.64,1.478c-0.404,0.426-0.835,0.919-1.022,1.659
				c-0.074,0.375-0.052,0.794,0.105,1.185c0.152,0.391,0.383,0.737,0.801,1.31c1.014,1.226,2.55,2.491,4.146,3.663
				c1.603,1.17,3.292,2.258,4.806,3.197c3.046,1.87,5.382,3.166,5.382,3.166c1.794,1.199,3.629,2.355,5.479,3.495
				c7.301,4.457,14.888,8.581,22.561,12.478l2.953,1.495l2.89,1.535c1.878,0.991,3.728,1.923,5.558,2.667
				c1.819,0.744,3.659,1.322,5.213,1.439c0.766,0.068,1.438,0.014,1.928-0.13c0.5-0.146,0.809-0.357,1.145-0.703
				c1.453-1.616,1.462-4.185-0.183-5.67c-0.054-0.075-0.062-0.352-0.057-0.424c0.065-1.907,0.009-3.489,0.868-4.369
				c0.396-0.438,0.964-0.7,1.611-0.814c0.322-0.064,0.662-0.087,0.997-0.07c0.316,0.039,0.638,0.108,0.931,0.198
				c0.363,0.085,0.433,0.146,0.62,0.31C-209.297,246.999-208.879,247.612-208.417,248.167z"/>
		</g>
	</g>
	<g>
		<g>
			<path fill="#EC255A" d="M-214.746,270.773c-1.017,1.479-2.663,2.334-4.571,2.521c-0.486,0.021-0.958,0.105-1.451,0.073
				l-1.454-0.079c-0.598-0.078-1.195-0.162-1.745-0.274c-1.13-0.218-2.185-0.482-3.216-0.788c-3.107-0.919-5.994-2.058-8.848-3.289
				l-2.132-0.959l-2.023-0.96c-1.269-0.587-2.652-1.167-4.016-1.752c-5.521-2.328-11.129-4.734-16.606-7.531
				c-1.741-0.876-3.458-1.819-5.17-2.792c0,0-1.096-0.711-2.693-1.85c-1.602-1.126-3.688-2.73-5.628-4.552
				c-1.938-1.811-3.701-3.91-4.727-5.714c-1.052-1.783-1.366-3.163-1.237-2.924c-0.16-0.607-0.328-1.18-0.353-1.798
				c-0.068-0.605-0.1-1.174-0.014-1.747c0.052-0.556,0.115-1.082,0.301-1.557c0.174-0.472,0.263-0.935,0.507-1.291
				c0.799-1.533,1.786-2.168,2.209-2.306c0.479-0.095,0.567,0.412,0.327,1.592c-0.151,1.167-0.642,3.117,0.652,5.481
				c1.561,2.773,5.112,5.354,8.09,7.109c1.479,0.9,2.839,1.61,3.804,2.117c0.976,0.491,1.558,0.788,1.558,0.788
				c1.824,1.075,3.701,2.103,5.621,3.073c5.206,2.651,10.625,4.984,16.154,7.313c1.388,0.589,2.768,1.167,4.226,1.832l2.037,0.974
				l1.973,0.886c2.646,1.146,5.352,2.201,7.999,2.975c0.873,0.257,1.736,0.475,2.558,0.629c0.418,0.092,0.802,0.136,1.187,0.19
				c0.048,0.007,0.017,0.007,0.026,0.007v-0.007c0.037,0.007,0.234-0.041,0.291-0.065c0.179-0.058,0.346-0.157,0.502-0.271
				c0.123-0.188,0.22-0.401,0.328-0.584c0.22-0.379,0.458-0.718,0.703-1.001c0.485-0.576,1.023-0.917,1.61-1.064
				c0.581-0.145,1.195-0.076,1.789,0.136c0.152,0.052,0.297,0.112,0.441,0.178c0.141,0.058,0.282,0.148,0.431,0.313
				c0.292,0.288,0.572,0.613,0.83,0.947c0.306,0.384,0.396,0.506,0.436,0.832C-213.538,267.45-213.738,269.294-214.746,270.773z"/>
		</g>
	</g>
	<g>
		<g>
			<path fill="#EC255A" d="M-217.138,275.234c-1.521,2.046-3.886,3.819-6.436,4.641c-2.212,0.734-4.43,0.879-6.45,0.755
				c-2.034-0.129-3.929-0.495-5.74-0.95c-3.617-0.914-6.928-2.158-10.175-3.367l-4.808-1.804l-4.864-1.745
				c-3.311-1.227-6.588-2.595-9.815-4.141c-1.778-0.862-3.535-1.787-5.275-2.798c0,0-1.117-0.716-2.725-1.916
				c-1.603-1.199-3.69-2.912-5.53-4.966c-0.925-1.008-1.763-2.153-2.479-3.26c-0.674-1.147-1.229-2.277-1.558-3.312
				c-0.689-2.06-0.608-3.489-0.557-3.221c-0.105-2.524,0.768-4.663,1.656-5.985c0.89-1.354,1.828-1.983,2.264-2.107
				c0.485-0.092,0.583,0.405,0.298,1.592c-0.203,1.168-0.918,3.188-0.306,5.809c0.419,1.525,1.317,3.02,2.553,4.347
				c1.222,1.32,2.702,2.479,4.084,3.416c1.385,0.948,2.704,1.67,3.628,2.187c0.951,0.495,1.513,0.799,1.513,0.799
				c1.773,1.072,3.633,2.06,5.542,2.979c2.972,1.424,6.051,2.706,9.193,3.867l4.846,1.74l4.853,1.814
				c3.194,1.195,6.341,2.358,9.4,3.122c3.039,0.779,6.06,1.088,8.169,0.353c1.218-0.418,2.187-1.111,3.042-2.233
				c0.85-1.112,1.54-2.585,2.058-4.204c0.076-0.124,0.357-0.336,0.424-0.375c1.929-1.188,3.415-1.337,4.474-0.76
				c1.053,0.543,1.699,1.775,1.923,2.779c0.081,0.296,0.066,0.365,0.004,0.56C-214.624,270.987-215.582,273.191-217.138,275.234z"/>
		</g>
	</g>
	<g>
		<g>
			<g>
				<path fill="#EC255A" d="M-239.91,287.223c-2.193,1.45-4.549,2.215-6.845,2.665c-5.214,0.933-10.246,0.26-15.016-1.153
					c-2.006-0.66-3.977-1.422-5.861-2.44c0,0-1.236-0.707-2.915-1.995c-1.697-1.258-3.788-3.257-5.383-5.639
					c-1.633-2.358-2.607-5.108-2.97-7.123c-0.359-2.029-0.237-3.288-0.201-3.052c-0.008-2.307,0.609-4.295,1.183-5.713
					c0.653-1.404,1.304-2.277,1.718-2.497c0.439-0.208,0.662,0.233,0.694,1.48c0.004,0.613-0.058,1.429-0.005,2.475
					c0.002,0.519-0.021,1.082,0.07,1.712c0.075,0.62,0.079,1.298,0.273,2.011c0.656,3.434,2.953,6.772,5.466,8.701
					c1.208,1.017,2.426,1.72,3.281,2.21c0.875,0.474,1.418,0.723,1.418,0.723c1.677,0.946,3.484,1.73,5.354,2.324
					c3.797,1.13,7.935,1.609,11.58,0.922c1.586-0.308,3.064-0.832,4.175-1.582c1.119-0.747,1.831-1.646,2.199-2.739
					c0.055-0.084,0.317-0.21,0.384-0.241c1.758-0.836,3.216-1.453,4.351-1.013c1.089,0.363,1.938,1.685,2.089,2.889
					c0.068,0.352,0.043,0.443-0.038,0.672C-235.775,283.488-237.73,285.799-239.91,287.223z"/>
			</g>
		</g>
		<g>
			<g>
				<path fill="#EC255A" d="M-249.474,274.257c1.829,0.48,3.692,1.074,5.555,1.806l1.393,0.61l0.687,0.302l0.347,0.156l0.09,0.043
					v0.001c-0.868,3.028,1.942-6.766-1.939,6.786l-0.005-0.006h-0.013h-0.025l-0.041-0.008l-0.168-0.017l-2.686-0.244l0,0
					c-3.734-0.336-7.57-0.746-11.433-1.453c-1.933-0.377-3.875-0.796-5.829-1.415l-1.462-0.463l-1.776-0.684
					c-0.869-0.334-1.625-0.797-2.404-1.22l-1.164-0.644c-0.373-0.217-0.822-0.412-1.08-0.678l-1.785-1.482
					c-0.331-0.252-0.551-0.502-0.75-0.76l-0.638-0.77c-0.912-1.024-1.497-2.056-2.33-3.191l-1.26-1.816l-0.155-0.223
					c-0.055-0.039,0.01-0.053,0.052-0.069l0.131-0.049l0.528-0.205l1.054-0.399c1.337-0.497,2.512-0.972,3.791-1.389l0.94-0.325
					c0.345-0.09,0.742-0.139,1.113-0.208l1.122-0.202l0.562-0.1c0.197-0.025,0.423-0.019,0.638-0.025l2.586-0.072
					c0.875,0.052,1.765,0.168,2.646,0.249l0.664,0.064l0.326,0.041l0.19,0.035l0.766,0.145c0.506,0.11,1.027,0.184,1.518,0.319
					c1,0.237,1.991,0.496,2.953,0.812c1.644,0.506,3.234,1.124,4.802,1.798c0.821,0.376,1.351,0.579,2.819,1.371
					c0.633,0.344,1.252,0.628,1.894,1.022l1.917,1.203c1.286,0.802,2.397,1.618,3.646,2.459l0.471,0.319l0.227,0.164
					c0.07,0.053,0.2,0.103,0.101,0.157l-0.562,0.642l-1.289,1.471c-0.833,0.932-1.544,1.851-2.596,2.673
					c-0.513,0.409-1.119,0.786-1.703,1.152c-0.687,0.3-1.267,0.709-2.023,0.924c-0.745,0.243-1.428,0.531-2.239,0.69l-0.93,0.19
					l-0.718,0.099c-0.953,0.135-1.903,0.181-2.842,0.185c-1.874,0-3.71-0.219-5.5-0.633c-3.561-0.838-7.026-2.348-10.011-4.972
					c-0.851-0.748-1.646-1.607-2.339-2.592c-0.174-0.261-0.336-0.456-0.558-0.839l-0.623-1.189
					c-0.233-0.391-0.364-0.808-0.509-1.218c-0.131-0.412-0.327-0.826-0.403-1.233c-0.391-1.657-0.409-3.188-0.575-4.878
					c-0.005-0.1-0.021-0.212-0.019-0.306l0.286-0.108l0.563-0.21l1.133-0.43l0.801-0.302l0.588-0.141
					c1.567-0.322,3.142-0.873,4.858-0.771c1.047-0.052,2.012,0.056,3.002,0.122c0,0,0.363,0.034,0.954,0.159
					c0.591,0.136,1.464,0.268,2.438,0.539c1.989,0.488,4.494,1.354,6.889,2.334c4.783,1.978,9.016,4.658,8.597,4.518
					c3.521,2.296,5.952,4.926,6.029,5.894c0.049,0.482-0.443,0.55-1.617,0.133c-1.179-0.406-3.065-1.266-6.031-2.396
					c-3.531-1.263-7.862-2.532-11.279-3.211c-0.849-0.148-1.647-0.286-2.361-0.411c-0.708-0.087-1.334-0.163-1.857-0.232
					c-1.016-0.068-1.632-0.118-1.632-0.118c-0.828-0.124-1.633-0.143-2.426-0.197l-0.576,0.014c-0.078,0-0.021,0-0.046,0h-0.01
					c0,0-0.027,0.008-0.014,0.02l0.004,0.014l0.116,0.157c0.356,0.553,0.849,1.075,1.39,1.569c1.768,1.573,4.256,2.733,6.837,3.324
					c1.293,0.3,2.619,0.452,3.907,0.449c0.64-0.003,1.278-0.036,1.89-0.122l0.458-0.064l0.22-0.046c0.076-0.016,0.002,0,0.013-0.002
					c-0.027,0.006-0.006,0.002-0.006,0.002c0.018-0.007,0.033-0.022,0.006-0.028l-0.181-0.09c0.092,0.033-0.836-0.386-1.453-0.663
					c-1.335-0.576-2.701-1.103-4.081-1.525c-0.811-0.264-1.627-0.476-2.441-0.673c-0.411-0.116-0.818-0.176-1.224-0.255
					l-0.808-0.157l-0.104-0.012l-0.009,0.001c-0.025,0-0.004,0.019,0.007,0.021l0.014,0.006h0.012l0.255,0.099l0.574,0.221
					l1.203,0.381c1.61,0.51,3.313,0.878,5.042,1.216c3.484,0.639,7.075,1.028,10.77,1.361l0,0l2.716,0.25l0.166,0.012l0.044,0.007
					h0.021h0.019h0.003c-3.878,13.527-1.078,3.753-1.942,6.771h-0.003l-0.073-0.032l-0.274-0.117l-0.547-0.238l-1.089-0.485
					c-1.504-0.585-3.083-1.089-4.745-1.535c-3.638-0.983-7.729-1.735-11.831-3.386c-0.158-0.097-0.416-0.431-0.464-0.515
					c-1.304-2.251-0.912-3.656-0.139-4.575c0.79-0.924,1.99-1.385,2.819-1.572c0.253-0.078,0.301-0.06,0.442,0.001
					C-257.237,272.481-253.484,273.197-249.474,274.257z"/>
			</g>
		</g>
	</g>
	<g>
		<g>
			<path fill="#EC255A" d="M-52.273,145.3h0.053c0.007-0.15,0.009,0.361,0.019,0.709l0.05,1.037c0.07,1.117,0.2,1.708,0.314,1.75
				c-0.052-0.068-0.538,0.382-1.026,1.102c-0.131,0.185-0.245,0.358-0.367,0.552l-0.458,0.709l-0.218,0.359
				c-0.052,0.079-0.052,0.086-0.046,0.079h0.004l-0.017-0.006l-0.265-0.145l1.098,0.345c-8.015-1.087-16.251-0.989-24.569-0.345
				c0,0-2.045-0.151-4.07-0.295c-2.019-0.153-4.012-0.304-3.848-0.395c-3.358-0.537-5.638-1.911-0.476-3.934
				c1.509-0.696,3.385-1.31,4.87-1.765c1.489-0.461,2.614-0.709,2.614-0.709c8.664-0.686,17.582-0.86,26.484,0.342l0.578,0.071
				l0.521,0.269c0.197,0.105,0.384,0.195,0.65,0.347l0.215,0.131c0.072,0.04,0.168,0.109,0.296,0.197
				c0.085,0.061,0.301,0.22,0.508,0.42c0.099,0.092,0.19,0.197,0.276,0.295l0.127,0.163l0.063,0.085l0.147,0.218
				c0.186,0.304,0.329,0.648,0.417,0.986c0.192,0.626,0.147,1.63-0.146,2.276c-0.213,0.6-0.773,1.269-1.2,1.564
				c-0.236,0.17-0.498,0.321-0.764,0.435c-0.165,0.072-0.216,0.088-0.269,0.104l-0.179,0.053c-0.109,0.032-0.269,0.068-0.337,0.085
				l-0.364,0.053l-0.223,0.022c-0.238,0.017-0.4,0.012-0.512,0.012l-0.502-0.007c-0.043-0.027-0.101-0.23-0.114-0.287
				c-0.05-0.774-0.345-1.495-0.561-2.088c-0.203-0.578-0.428-1.217-0.501-1.811c-0.267-1.264,0.288-2.295,0.907-2.808
				c0.15-0.178,0.187-0.178,0.284-0.184L-52.273,145.3z"/>
		</g>
	</g>
	<g>
		<g>
			<path fill="#EC255A" d="M-321.354,56.198c0.881,0.534,1.787,1.049,2.603,1.682l5.012,3.644l3.574,3.035l1.784,1.527
				c0.587,0.515,1.126,1.076,1.685,1.61c1.388,1.377,2.835,2.706,4.169,4.115c0,0,0.816,0.991,2.031,2.475
				c0.607,0.74,1.307,1.599,2.058,2.518c0.713,0.94,1.467,1.938,2.224,2.933c3.039,3.96,5.766,7.936,5.463,7.647
				c4.448,6.756,6.517,11.78-2.901,2.715c-1.426-1.294-2.963-2.754-4.466-4.225c-1.529-1.461-3.011-2.889-4.322-4.136
				c-2.676-2.495-4.616-4.296-4.616-4.296c-0.724-0.808-1.473-1.583-2.254-2.314l-2.304-2.242c-0.532-0.502-1.038-1.035-1.588-1.512
				l-1.658-1.409l-3.326-2.819l-4.612-3.34c-0.746-0.591-1.575-1.049-2.392-1.539l-2.44-1.466c-0.119-0.104-0.282-0.445-0.317-0.523
				c-0.781-2.285-0.463-3.729,0.357-4.606c0.803-0.872,2.099-1.154,3.062-1.167c0.288-0.032,0.341,0.007,0.5,0.092L-321.354,56.198z
				"/>
		</g>
	</g>
	<g>
		<g>
			<path fill="#EC255A" d="M-84.902,75.473c-0.547,0.157-1.305,0.288-2.235,0.615c-1.851,0.565-4.329,1.575-6.787,2.762
				c-2.458,1.181-4.905,2.492-6.751,3.502c-1.854,1.017-3.087,1.693-3.087,1.693s-1.659,0.55-3.299,1.096
				c-1.656,0.53-3.316,0.99-3.224,0.846c-2.972,0.504-5.1-0.251-1.857-3.504c1.791-2.112,4.664-4.546,4.664-4.546
				s1.26-0.69,3.146-1.73c1.901-1.043,4.473-2.433,7.166-3.739c2.692-1.304,5.528-2.489,7.838-3.207
				c2.288-0.744,4.033-1.011,4.129-1.021c0.065,0.021,0.229,0.199,0.266,0.246c0.968,1.405,1.223,2.808,1.274,3.978
				c0.048,1.172-0.117,2.119-0.254,2.658c-0.036,0.187-0.053,0.187-0.105,0.201C-84.049,75.329-84.371,75.381-84.902,75.473z"/>
		</g>
	</g>
	<g>
		<g>
			<path fill="#EC255A" d="M-249.565,17.981c2.003,1.826,4.093,4.433,5.867,7.11c1.791,2.669,3.336,5.394,4.427,7.445
				c1.073,2.051,1.791,3.417,1.791,3.417s0.582,1.799,1.085,3.56c0.514,1.759,0.983,3.47,0.846,3.371
				c0.533,2.959,0.008,5.424-3.508,1.844c-2.226-2.049-4.641-5.228-4.641-5.228s-0.679-1.344-1.734-3.318
				c-1.058-1.981-2.518-4.559-4.129-6.974c-1.602-2.42-3.388-4.606-4.827-5.915c-0.707-0.697-1.326-1.089-1.754-1.403
				c-0.426-0.303-0.677-0.352-0.699-0.391c-0.021-0.043-0.003-0.266,0.008-0.325c0.25-1.622,0.578-3.033,1.139-4.061
				c0.54-1.026,1.298-1.659,1.87-1.936c0.172-0.107,0.201-0.094,0.277-0.055C-253.441,15.16-251.511,16.125-249.565,17.981z"/>
		</g>
	</g>
	<g>
		<g>
			<path fill="#EC255A" d="M-103.92,230.83c-0.338-0.477-0.705-0.988-1.093-1.524c-0.344-0.533-0.715-1.091-1.096-1.662
				c-0.75-1.144-1.55-2.365-2.348-3.581c-1.606-2.431-3.175-4.861-4.335-6.676c-1.167-1.824-1.942-3.028-1.942-3.028
				s-0.675-1.63-1.348-3.239c-0.645-1.598-1.269-3.178-1.124-3.1c-0.794-2.797-0.465-5.221,3.27-2.249
				c1.181,0.824,2.448,1.94,3.416,2.852c0.961,0.905,1.627,1.607,1.627,1.607s0.784,1.218,1.969,3.058
				c1.18,1.842,2.758,4.291,4.369,6.716c0.799,1.213,1.599,2.433,2.354,3.578c0.374,0.569,0.741,1.121,1.085,1.645
				c0.351,0.482,0.679,0.943,0.982,1.369c1.221,1.706,2.048,2.867,2.09,2.926c0.011,0.067-0.085,0.281-0.114,0.338
				c-1.643,3.007-4.048,4.1-5.186,4.251c-0.183,0.04-0.196,0.021-0.235-0.026C-101.624,234.012-102.555,232.728-103.92,230.83z"/>
		</g>
	</g>
	<g>
		<g>
			<path fill="#EC255A" d="M-309.339,142.086c0,0,8.577,0.46,8.235,0.646c3.47,0.559,5.794,1.949,0.447,3.945
				c-3.134,1.361-7.676,2.489-7.676,2.489s-28.252,2.458-28.64,2.49c-0.07-0.021-0.227-0.216-0.257-0.269
				c-1.855-2.941-1.118-5.618-0.538-6.687c0.087-0.182,0.114-0.184,0.181-0.19C-337.191,144.473-309.339,142.086-309.339,142.086z"
				/>
		</g>
	</g>
	<g>
		<g>
			<path fill="#EC255A" d="M-150.136,19.173c-0.518,2.042-1.125,4.005-1.761,5.946l-0.052,0.152
				c-0.618,1.85-1.269,3.674-1.936,5.483c0,0-2.063,4.674-4.228,9.125c-2.162,4.457-4.306,8.755-4.219,8.343
				c-1.928,3.548-3.662,6.372-4.531,6.775c-0.873,0.419-1.008-1.729,0.771-8.045c0.95-3.755,2.303-8.206,3.357-11.721
				c1.06-3.548,1.827-6.095,1.827-6.095c0.758-2.035,1.495-4.078,2.172-6.111l0.029-0.157c0.6-1.825,1.158-3.655,1.613-5.453
				c0.452-1.789,0.804-3.603,0.873-5.1c0.036-0.113,0.229-0.327,0.287-0.384c0.775-0.661,1.42-1.102,2.031-1.521
				c0.61-0.434,1.184-0.702,1.796-0.728c0.584-0.028,1.222,0.262,1.736,0.722c0.494,0.432,0.911,1.045,1.147,1.541
				c0.18,0.302,0.184,0.394,0.18,0.617C-149.166,15.029-149.628,17.122-150.136,19.173z"/>
		</g>
	</g>
</g>
<g>
	<g>
		<g>
			<path fill="#EC255A" d="M263.431,145.711c0.164,0.175,0.23,0.259,0.294,0.634c0.151,0.638,0.26,1.428,0.174,2.263
				c-0.036,0.438-0.132,0.847-0.299,1.243c-0.16,0.38-0.454,0.613-0.744,0.814c-0.296,0.171-0.632,0.299-0.996,0.37
				c-0.366,0.075-0.767,0.069-1.177,0.083c-0.423-0.004-0.823,0.141-1.265,0.21c-0.465,0.063-0.956,0.119-1.55,0.104
				c-0.092-0.007-0.445-0.059-0.578-0.146c-0.61-0.675-1.375-1.402-2.167-2.119c-0.797-0.72-1.638-1.441-2.487-2.167
				c-1.713-1.453-3.484-2.885-5.309-4.461l-1.157-1.032c-0.395-0.365-0.811-0.778-1.126-1.081l-2.029-1.974l-4.079-3.915
				c-2.73-2.572-5.487-5.078-8.323-7.436c-2.856-2.334-5.743-4.575-8.813-6.564c-0.766-0.495-1.518-1.024-2.296-1.495l-2.329-1.418
				c-0.776-0.464-1.579-0.862-2.367-1.302l-1.185-0.64l-1.212-0.572c-1.082-0.518-2.16-1.041-3.274-1.455l-1.655-0.666
				c-0.551-0.225-1.12-0.374-1.679-0.563c0,0-0.677-0.284-1.808-0.75c-0.578-0.199-1.271-0.432-2.054-0.695
				c-0.394-0.136-0.809-0.276-1.246-0.424c-0.437-0.13-0.899-0.233-1.375-0.36c-1.874-0.554-4.148-0.929-6.366-1.258
				c-2.191-0.32-4.492-0.314-6.719-0.291c-1.864,0.065-3.467,0.086-4.765,0.027c-1.318-0.095-2.311-0.196-3.043-0.419
				c-1.451-0.389-1.787-0.828-1.394-1.226c0.196-0.206,0.571-0.409,1.085-0.609c0.256-0.099,0.547-0.198,0.866-0.296
				c0.322-0.115,0.68-0.239,1.06-0.359c1.522-0.458,3.495-1.1,5.806-1.692c-0.242-0.004,0.983-0.341,3.126-0.729
				c0.532-0.103,1.147-0.167,1.787-0.255c0.644-0.103,1.337-0.139,2.063-0.175c0.365-0.019,0.732-0.036,1.107-0.056
				c0.364,0.002,0.729,0.005,1.102,0.006c0.744,0.008,1.501,0.015,2.262,0.021c0.765-0.019,1.528,0.101,2.285,0.162
				c0.758,0.078,1.506,0.152,2.232,0.226c1.435,0.219,2.765,0.494,3.917,0.704c1.142,0.243,2.072,0.525,2.736,0.689
				c0.659,0.172,1.038,0.278,1.038,0.278c2.204,0.814,4.392,1.677,6.474,2.714l1.373,0.649l1.33,0.714
				c0.881,0.484,1.785,0.94,2.639,1.454l2.56,1.547c0.854,0.518,1.662,1.083,2.494,1.622c3.326,2.159,6.471,4.592,9.514,7.083
				c3.026,2.509,5.912,5.133,8.73,7.779l4.17,3.998l2.072,2.011l0.928,0.896l0.976,0.868c1.645,1.425,3.442,2.875,5.226,4.387
				c0.898,0.757,1.796,1.529,2.698,2.348C261.593,143.842,262.498,144.685,263.431,145.711z"/>
		</g>
	</g>
	<g>
		<g>
			<path fill="#EC255A" d="M110.44,186.589c-0.033-0.182-0.042-0.247,0.108-0.526c0.39-0.888,1.137-2.098,2.333-2.85
				c1.186-0.706,2.86-0.953,5.22,1.068c0.081,0.069,0.389,0.423,0.463,0.621c0.965,4.907,1.3,9.414,2.174,13.58l0.261,1.259
				l0.309,1.148c0.12,0.387,0.164,0.758,0.337,1.163l0.459,1.196l0.455,1.195l0.522,1.206c0.359,0.801,0.682,1.617,1.089,2.396
				c1.511,3.165,3.291,6.194,5.333,9.025c0.48,0.731,1.05,1.392,1.573,2.09c0.516,0.693,1.098,1.372,1.687,2.05
				c1.154,1.326,2.37,2.778,3.585,4.083c2.424,2.642,5.005,5.182,7.7,7.607c1.834,1.668,3.728,3.276,5.646,4.846
				c0,0,0.556,0.526,1.508,1.394c0.938,0.884,2.293,2.076,3.851,3.457c3.132,2.742,7.216,6.045,10.729,8.629
				c1.513,1.045,2.77,1.915,3.794,2.625c1.018,0.734,1.815,1.271,2.376,1.732c1.124,0.926,1.339,1.448,0.829,1.689
				c-0.503,0.222-1.738,0.16-3.431-0.186c-0.83-0.196-1.774-0.455-2.803-0.768c-1.002-0.348-2.085-0.752-3.21-1.201
				c0.198,0.164-0.996-0.371-2.904-1.282c-0.942-0.472-2.044-1.059-3.248-1.691c-1.172-0.672-2.451-1.375-3.703-2.136
				c-2.505-1.512-4.992-3.124-6.813-4.4c-1.839-1.258-3.037-2.156-3.037-2.156c-1.748-1.428-3.454-2.909-5.127-4.423
				c-2.861-2.573-5.613-5.28-8.246-8.143c-1.333-1.429-2.517-2.844-3.814-4.339c-0.638-0.73-1.271-1.47-1.875-2.276
				c-0.6-0.791-1.246-1.555-1.795-2.386c-2.333-3.228-4.353-6.67-6.064-10.248c-0.457-0.879-0.83-1.8-1.234-2.705l-0.59-1.367
				l-0.545-1.421l-0.539-1.42c-0.195-0.459-0.301-1.021-0.453-1.526l-0.417-1.559c-0.118-0.506-0.208-0.989-0.311-1.483
				C111.627,195.348,111.264,190.675,110.44,186.589z"/>
		</g>
	</g>
	<g>
		<g>
			<path fill="#EC255A" d="M176.263,253.319c0.061,0.258,0.092,0.342-0.028,0.733c-0.154,0.678-0.438,1.463-0.921,2.143
				c-0.466,0.673-1.168,1.184-1.849,1.255c-0.346,0.02-0.701-0.012-1.062-0.108c-0.357-0.094-0.72-0.276-1.109-0.439
				c-0.758-0.335-1.617-0.626-2.621-1.099c-0.064-0.028-0.36-0.226-0.43-0.349c-0.206-0.786-0.567-1.744-0.977-2.757
				c-0.41-1.02-0.873-2.089-1.331-3.356c-0.114-0.323-0.222-0.658-0.337-1.024l-0.165-0.595c-0.059-0.207-0.065-0.318-0.102-0.48
				l-0.341-1.82c-0.211-1.206-0.491-2.429-0.634-3.624l-0.507-4.467l-0.297-4.405c-0.158-2.906-0.238-5.642-0.375-8.664
				l-0.092-2.222l0.036-2.234c0.045-1.485,0.015-2.994,0.145-4.453l0.144-2.208c0.033-0.431,0.126-2.24,0.307-3.523l0.989-8.178
				l0.061-0.512l0.031-0.258l0.018-0.125c0.03,0,0.076,0.03,0.113,0.041l0.943,0.426l1.889,0.854l3.701,1.679
				c0.612,0.26,1.236,0.611,1.854,0.942l1.862,1.003l1.228,0.676l0.917,0.511l1.77,0.947c0.587,0.306,1.148,0.543,1.722,0.822
				c0.282,0.148,0.562,0.229,0.845,0.343l0.766,0.292l0.065,0.03c0.009-0.005-0.007,0.008,0.021-0.018l0.357-0.336
				c0.28-0.263,0.558-0.528,0.845-0.763c1.142-0.953,2.282-1.97,3.424-2.854l6.703-5.31c0.963-0.777,1.863-1.575,2.8-2.358
				c0.87-0.812,1.747-1.619,2.594-2.445c0,0,0.529-0.491,1.422-1.311c0.225-0.201,0.471-0.43,0.739-0.674
				c0.269-0.248,0.543-0.553,0.843-0.853c0.589-0.618,1.276-1.28,1.967-2.037c2.805-2.972,6.062-7.064,8.734-10.566
				c2.2-3.005,3.676-4.986,4.704-6.032c1.024-1.051,1.567-1.188,1.749-0.659c0.351,1.059-0.692,4.825-2.604,9.201
				c0.327-0.389-2.07,4.781-5.209,9.819c-1.609,2.503-3.301,4.956-4.766,6.767c-0.756,0.902-1.38,1.661-1.822,2.188
				c-0.455,0.508-0.728,0.781-0.728,0.781c-0.858,0.79-1.698,1.642-2.577,2.378c-0.875,0.733-1.75,1.507-2.627,2.211l-6.73,5.335
				c-1.114,0.865-2.107,1.756-3.155,2.632c-0.268,0.215-0.503,0.446-0.746,0.676l-1.208,1.131l-1.554,1.438l-0.781,0.72
				c-0.07,0.045-0.124,0.148-0.205,0.148l-0.256-0.068l-0.516-0.145l-2.059-0.572l-1.025-0.287c-0.335-0.096-0.71-0.185-0.965-0.294
				l-1.235-0.47c-0.382-0.155-0.788-0.288-1.139-0.464c-0.716-0.343-1.465-0.672-2.148-1.025c-0.668-0.357-1.368-0.715-2.006-1.071
				l-1.607-0.9l-0.185,2.771c-0.121,1.389-0.087,2.74-0.129,4.106l-0.035,2.05l0.089,2.061c0.122,2.68,0.214,5.653,0.368,8.454
				l0.281,4.138l0.46,4.048c0.126,1.079,0.375,2.092,0.552,3.143l0.289,1.564c0.022,0.116,0.045,0.292,0.07,0.358l0.065,0.234
				l0.203,0.608c0.319,0.894,0.761,1.929,1.207,3.031C175.403,250.706,175.877,251.889,176.263,253.319z"/>
		</g>
	</g>
	<g>
		<g>
			<path fill="#EC255A" d="M179.182,103.437c0.126,0.158,0.177,0.217,0.191,0.548c0.288,2.186-0.401,6.07-5.923,5.007
				c-0.101-0.02-0.525-0.156-0.67-0.279c-2.855-3.513-5.84-6.904-8.842-10.276c-12.678-14.029-26.983-26.526-43.096-36.133
				c-8.042-4.809-16.505-8.899-25.267-12.246c-1.097-0.417-2.18-0.866-3.286-1.257l-3.338-1.123l-3.335-1.125
				c-1.122-0.348-2.256-0.661-3.383-0.988c-4.539-1.386-8.958-2.474-13.531-3.224c-4.556-0.764-9.178-1.218-13.836-1.434l-3.5-0.115
				l-3.388-0.026c-0.508-0.015-1.269,0.015-1.938,0.022c-0.697,0.031-1.333-0.026-1.992-0.051c-1.338-0.04-2.553-0.191-3.825-0.291
				c-2.492-0.282-4.946-0.596-7.431-1.039c-0.611-0.092-1.259-0.239-1.889-0.359c-0.625-0.115-1.281-0.274-1.942-0.445
				c-0.553-0.126-1.605-0.434-2.301-0.747c-0.371-0.156-0.673-0.304-1.007-0.457l-0.88-0.438l-1.666-0.838l-0.015-0.007
				c-0.011-0.002-0.022,0.011-0.012,0.022c0.197,0.236-0.779-0.869,1.848,1.977c0.477,0.569,0.99,1.146,1.58,2.184l0.229,0.466
				l0.122,0.267l0.181,0.413l0.358,0.826c0.118,0.251,0.244,0.592,0.368,0.939l0.368,1.02c0.268,0.708,0.409,1.295,0.611,1.941
				c1.441,5.064,2.076,9.962,2.802,14.689c0.36,2.362,0.712,4.685,1.157,6.928c0.104,0.57,0.229,1.112,0.351,1.665
				c0.115,0.56,0.245,1.1,0.385,1.632c0.263,1.092,0.586,2.083,0.936,3.207c1.493,4.532,2.898,9.116,4.549,13.551
				c1.719,5.059,3.767,9.952,5.732,14.883l3.281,7.178l0.815,1.795l0.947,1.72l1.899,3.434c5.191,9.139,11.299,17.81,18.149,25.822
				c1.718,1.999,3.525,3.926,5.279,5.891c1.829,1.902,3.701,3.762,5.548,5.644l5.549,5.158l2.145,1.756
				c0.712,0.586,1.42,1.176,2.184,1.729c0,0,0.575,0.502,1.54,1.343c0.94,0.866,2.367,1.988,3.962,3.342
				c3.241,2.649,7.469,5.951,10.88,8.85c2.947,2.388,4.752,4.104,5.686,5.246c0.932,1.134,0.997,1.69,0.445,1.807
				c-1.107,0.235-4.647-1.283-8.828-3.338c0.363,0.321-4.548-2.258-9.577-5.121c-1.257-0.716-2.517-1.438-3.692-2.172
				c-1.172-0.729-2.292-1.367-3.213-2.003c-1.87-1.235-3.124-2.066-3.124-2.066l-2.254-1.841c-0.745-0.619-1.532-1.213-2.208-1.872
				l-2.283-2.121l-2.908-2.7l-2.778-2.811l-2.778-2.815l-2.652-2.933l-2.648-2.934l-2.521-3.047
				c-6.723-8.136-12.701-16.847-17.855-26.108l-1.924-3.489c-0.341-0.575-0.588-1.185-0.866-1.782l-0.829-1.805
				c-1.085-2.407-2.229-4.802-3.261-7.22l-2.92-7.292l-0.729-1.823l-0.662-1.84l-1.318-3.688c-1.704-4.577-3.115-9.185-4.63-13.782
				c-0.367-1.167-0.786-2.465-1.081-3.709c-0.17-0.63-0.318-1.256-0.448-1.878c-0.131-0.621-0.279-1.248-0.388-1.861
				c-0.491-2.476-0.859-4.905-1.222-7.291c-0.722-4.766-1.363-9.429-2.568-13.615c-0.156-0.499-0.299-1.082-0.467-1.497
				l-0.236-0.674c-0.074-0.221-0.149-0.445-0.284-0.739l-0.36-0.826l-0.179-0.417l-0.046-0.101
				c-0.287,0.106,2.626-1.239,1.282-0.625l-0.211,0.087c-0.282,0.124-0.544,0.263-0.805,0.423l-0.255,0.132l-0.006-0.006
				l-0.006-0.011c0,0-0.006-0.015-0.028-0.042c-0.032-0.046-0.061-0.091-0.12-0.167c-0.097-0.127-0.236-0.299-0.392-0.477
				c-0.308-0.354-0.686-0.75-1.083-1.165l-0.785-0.812c-0.415-0.436-0.836-0.864-1.233-1.308c-0.804-0.873-1.562-1.782-2.15-2.687
				c-0.577-0.906-0.977-1.799-1.192-2.642c-0.205-0.849-0.272-1.652-0.137-2.475c0.115-0.817,0.46-1.727,0.998-2.475
				c0.259-0.375,0.573-0.701,0.894-1.012c0.359-0.28,0.731-0.571,1.125-0.816c0.795-0.458,1.583-0.903,2.484-1.116
				c1.757-0.502,3.861-0.373,6.071,0.366c0.549,0.141,1.099,0.427,1.647,0.632c0.276,0.106,0.548,0.229,0.823,0.355l0.722,0.353
				l1.648,0.834l0.733,0.364c0.211,0.097,0.448,0.213,0.634,0.288c0.405,0.167,0.509,0.195,1.123,0.351
				c0.503,0.128,1.011,0.258,1.571,0.361c0.552,0.103,1.076,0.227,1.651,0.312c2.248,0.4,4.563,0.697,6.846,0.954
				c1.124,0.09,2.296,0.231,3.365,0.257c0.537,0.02,1.1,0.076,1.603,0.044c0.535-0.009,0.973-0.029,1.666-0.021l3.822,0.027
				l3.704,0.122c4.947,0.224,9.905,0.712,14.829,1.534c4.916,0.804,9.845,2.022,14.502,3.446c1.177,0.347,2.361,0.672,3.534,1.036
				l3.496,1.176l3.496,1.177c1.161,0.412,2.3,0.88,3.45,1.314c9.191,3.513,18.103,7.817,26.558,12.874
				c16.945,10.103,31.9,23.202,44.979,37.675C173.178,96.338,176.249,99.835,179.182,103.437z"/>
		</g>
	</g>
	<g>
		<g>
			<path fill="#EC255A" d="M262.095,145.759c0.214,0.048,0.29,0.064,0.525,0.317c0.206,0.193,0.415,0.418,0.617,0.666
				c0.045,0.063,0.099,0.123,0.148,0.191l0.004,0.004l2.238,1.907v0.005l0.004,0.022l0.008,0.043l0.012,0.089l0.019,0.169
				c0.008,0.133,0.02,0.273,0.026,0.41c0.011,0.192,0.009,0.287-0.004,0.538c-0.015,0.275-0.037,0.461-0.117,0.776
				c-0.042,0.172-0.103,0.339-0.168,0.498c-0.064,0.151-0.148,0.313-0.266,0.485c-0.222,0.346-0.495,0.611-0.762,0.79
				c-0.304,0.214-0.514,0.282-0.734,0.355c-0.256,0.08-0.355,0.068-0.522,0.084c-0.172,0.012-0.244-0.011-0.351-0.029
				c-0.11-0.016-0.187-0.044-0.247-0.072c-0.282-0.114-0.4-0.264-0.506-0.413c-0.191-0.297-0.229-0.613-0.29-0.947
				c-0.114-0.331-0.179-0.682-0.183-1.051c0-0.191,0.016-0.379,0.046-0.575c0.042-0.198,0.14-0.399,0.243-0.603
				c0.098-0.201,0.239-0.402,0.297-0.609c0.016-0.039,0.012-0.136,0.021-0.124l0.022,0.47c0.01,0.135,0.029,0.287,0.045,0.412
				c0.034,0.394,0.126,0.693,0.205,0.797c0.08,0.111,0.076,0.007-0.193,0.023c-0.039,0.013-0.146,0.013-0.226,0.033
				c-0.096,0.017-0.136,0.043-0.266,0.076c-0.122,0.031-0.234,0.067-0.347,0.117l-0.084,0.036l-0.042,0.022l-0.019,0.012
				c0.281,1.088-0.653-2.434,0.636,2.444l-0.004,0.001l-0.046,0.033c-0.256,0.169-0.53,0.338-0.829,0.507
				c-0.089,0.046-0.484,0.207-0.664,0.203c-4.15-0.903-8.403-1.274-12.707-1.19l-1.027,0.005c-2.399,0.064-4.824,0.307-7.254,0.593
				c0,0-0.758,0.05-2.037,0.138c-1.271,0.07-3.077,0.24-5.162,0.427c-4.18,0.392-9.533,1.026-14.027,1.27
				c-3.79,0.307-6.3,0.265-7.758,0.048c-1.459-0.209-1.878-0.579-1.549-1.032c0.329-0.457,1.407-1.014,2.946-1.595
				c1.54-0.614,3.54-1.274,5.758-1.976c-0.482,0.028,4.822-1.486,10.378-2.99c2.792-0.738,5.647-1.439,7.841-1.897
				c1.097-0.222,2.019-0.407,2.659-0.537c0.653-0.115,1.027-0.179,1.027-0.179c1.139-0.123,2.274-0.271,3.428-0.334
				c1.156-0.078,2.303-0.189,3.465-0.199l1.157-0.033C252.343,144.291,257.285,144.714,262.095,145.759z"/>
		</g>
	</g>
	<g>
		<g>
			<path fill="#EC255A" d="M207.296,158.361c-0.02-0.028-0.026-0.038,0.107-0.197c0.762-0.938,2.753-3.29,6.046-4.862
				c0.06-0.027,0.292-0.115,0.342-0.104c0.017,0.021,0.18,0.232,0.447,0.589c0.257,0.357,0.679,0.855,1.065,1.456
				c0.398,0.604,0.882,1.301,1.354,2.051c0.449,0.751,0.944,1.549,1.408,2.353c0.446,0.801,0.887,1.603,1.3,2.352
				c0.395,0.753,0.759,1.454,1.074,2.054c0.6,1.196,0.999,1.995,0.999,1.995s0.072,0.612,0.076,1.474
				c0.005,0.856-0.043,1.967-0.271,2.954c-0.419,3.199-2.539,3.024-4.15,1.944c-0.042,0.121-0.83-0.61-1.604-1.358
				c-0.765-0.75-1.538-1.505-1.538-1.505s-0.373-0.746-0.939-1.866c-0.29-0.549-0.628-1.194-0.988-1.884
				c-0.375-0.674-0.775-1.389-1.178-2.105c-0.416-0.692-0.835-1.385-1.227-2.035c-0.414-0.62-0.799-1.201-1.132-1.697
				C207.808,158.998,207.315,158.407,207.296,158.361z"/>
		</g>
	</g>
	<g>
		<g>
			<path fill="#EC255A" d="M76.294,78.118c-0.097,0.087-0.143,0.095-0.401,0.095c-0.409,0.036-0.993-0.015-1.585-0.032
				c-0.604-0.04-1.281-0.139-1.933-0.399c-0.643-0.248-1.266-0.682-1.7-1.434c-0.411-0.754-0.716-1.889-0.356-3.53
				c0.018-0.125,0.208-0.647,0.39-0.839c2.266-2.099,5.373-3.548,8.486-3.849c3.124-0.358,6.136,0.276,8.8,1.398
				c3.115,1.35,5.82,3.415,7.955,6.043c2.113,2.624,3.64,5.937,3.963,9.553c0.09,0.895,0.075,1.815,0.016,2.712l-0.16,1.323
				l-0.241,1.175l-0.247,1.171c-0.079,0.39-0.238,0.792-0.36,1.186l-0.393,1.188c-0.131,0.392-0.344,0.782-0.52,1.175l-0.555,1.169
				l-0.711,1.127c-0.446,0.763-1.062,1.444-1.658,2.133c-0.283,0.357-0.646,0.648-0.985,0.956c-0.35,0.299-0.681,0.622-1.056,0.89
				c-0.767,0.508-1.515,1.066-2.359,1.426c-0.392,0.189-0.782,0.384-1.184,0.548l-1.219,0.408l-0.613,0.194l-0.616,0.129
				l-1.242,0.248c-1.647,0.194-3.299,0.255-4.884,0.04c0,0-0.99-0.131-2.549-0.604c-1.544-0.499-3.65-1.346-5.754-2.822
				c-2.098-1.465-4.221-3.563-5.639-6.231c-0.649-1.371-1.207-2.805-1.354-4.314c-0.137-0.733-0.097-1.488-0.079-2.202
				c0.024-0.714,0.208-1.403,0.323-2.062c0.156-0.542,0.338-1.051,0.501-1.531c0.164-0.48,0.43-0.879,0.631-1.283
				c0.106-0.194,0.209-0.385,0.312-0.571c0.112-0.179,0.242-0.336,0.36-0.499c0.24-0.308,0.466-0.604,0.682-0.879
				c0.442-0.539,0.923-0.922,1.302-1.278c0.379-0.363,0.769-0.596,1.097-0.786c1.302-0.777,1.841-0.695,1.849-0.138
				c0.009,0.285-0.107,0.691-0.313,1.192c-0.109,0.251-0.234,0.523-0.384,0.811c-0.124,0.303-0.259,0.63-0.401,0.982
				c-0.592,1.363-1.202,3.112-1.105,4.835c0.094-0.178-0.007,0.782,0.437,2.148c0.057,0.168,0.118,0.347,0.182,0.53
				c0.076,0.181,0.188,0.365,0.28,0.551c0.156,0.389,0.462,0.758,0.714,1.16c0.618,0.757,1.329,1.556,2.258,2.195
				c1.778,1.345,4.027,2.136,5.667,2.444c0.828,0.137,1.511,0.213,1.987,0.206c0.236,0.003,0.423,0.025,0.547,0.019
				c0.125-0.009,0.19-0.015,0.19-0.015c1.603,0.073,3.115-0.215,4.351-0.829c1.545-0.716,2.673-2.03,3.492-3.774
				c0.095-0.224,0.225-0.42,0.298-0.665l0.231-0.729c0.072-0.248,0.181-0.466,0.228-0.736l0.164-0.805l0.167-0.797l0.082-0.678
				c0.021-0.441,0.038-0.87-0.012-1.314c-0.156-1.744-0.922-3.54-2.174-5.093c-1.25-1.544-2.941-2.829-4.756-3.611
				c-1.552-0.651-3.181-0.956-4.623-0.775C78.657,76.522,77.4,77.117,76.294,78.118z"/>
		</g>
	</g>
	<g>
		<g>
			<path fill="#EC255A" d="M234.659,189.11c-0.137,0.019-0.187,0.019-0.399-0.125c-0.358-0.181-0.842-0.527-1.318-0.85
				c-0.48-0.344-1.009-0.779-1.447-1.329c-0.433-0.533-0.769-1.221-0.761-2.088c0.019-0.854,0.369-2.016,1.539-3.229
				c0.082-0.096,0.513-0.452,0.761-0.518c2.992-0.572,5.926-0.367,8.557,0.255c2.642,0.615,5.075,1.581,7.357,2.717
				c4.751,2.394,8.891,5.493,12.633,8.98c0.935,0.875,1.845,1.778,2.723,2.71c0.362,0.355,0.78,0.847,1.158,1.284l1.166,1.338
				l0.582,0.669l0.521,0.679l1.04,1.352l0.513,0.676l0.449,0.661l0.891,1.323c0.321,0.447,0.554,0.866,0.806,1.286l0.745,1.263
				c0.473,0.832,0.812,1.59,1.223,2.394c0.339,0.753,0.633,1.479,0.944,2.223l3.233,8.038l0.933,2.327l1.085,2.697l0.469,1.167
				c0,0.012,0.038,0.071,0.007,0.048l-0.129-0.104l-0.263-0.207l-0.525-0.412l-1.048-0.824l-4.188-3.295l-2.095-1.653l-0.524-0.411
				l-0.263-0.205l-0.188-0.136l-0.681-0.488l-2.719-1.952l-2.723-1.951l-1.362-0.977l-0.683-0.49
				c-0.256-0.164-0.357-0.323-0.842-0.491l-2.407-1.005l-1.206-0.5c-0.022-0.012,0.003-0.004,0.003-0.004l0.077,0.021
				c0.007,0,0,0,0,0l-0.02-0.005c-0.008,0,0.004,0.008,0.004,0.012l0.781,1.006c2.474,3.273,4.857,6.613,7.107,10.053
				c3.98,6.116,7.608,12.49,10.655,19.201c1.539,3.346,2.878,6.799,4.098,10.31l1.321,4.51c0.22,0.777,0.442,1.494,0.663,2.319
				l0.666,2.537l0.665,2.537l0.336,1.27c0.02,0.096,0.072,0.229,0.062,0.298l-0.324-0.046l-0.644-0.091l-5.159-0.736
				c-0.892-0.119-1.626-0.253-2.433-0.383l-2.381-0.388l-2.383-0.388l-1.397-0.266l-2.678-0.517l-2.669-0.57
				c-1.779-0.37-3.546-0.82-5.319-1.241c-1.764-0.472-3.534-0.894-5.286-1.426c-3.519-0.977-6.995-2.168-10.452-3.418
				c-3.432-1.337-6.857-2.709-10.183-4.402c-0.835-0.405-1.672-0.81-2.486-1.275l-0.613-0.337l-0.301-0.166l0,0l-0.004-0.001
				l-0.023-0.017c-0.019-0.013-0.037-0.034-0.019-0.002l0.008,0.027l0.91,3.221l1.606,5.727l1.192,4.892l1.195,4.893
				c0.009,0.044,0.034,0.117,0.027,0.139l-0.138-0.079l-0.277-0.156l-0.549-0.318l-1.101-0.635l-2.201-1.269l-4.344-2.514
				l-2.142-1.243c-0.716-0.427-1.421-0.798-2.154-1.308l-4.367-2.88c-0.347-0.225-0.792-0.519-0.944-0.651l-0.564-0.428
				l-1.128-0.854c-2.981-2.325-5.847-4.915-8.377-7.939c-2.522-3.021-4.705-6.527-6.064-10.47c-0.389-0.964-0.59-2.001-0.863-3.01
				c-0.232-1.018-0.362-2.068-0.509-3.104c-0.166-2.087-0.196-4.196,0.093-6.241c0.073-0.55,0.131-1.101,0.227-1.646l0.349-1.607
				c0.201-1.085,0.579-2.092,0.879-3.13c0.333-1.022,0.756-2.003,1.135-3.001l1.006-2.147c0.384-0.833,0.854-1.596,1.279-2.394
				c0.419-0.808,0.922-1.538,1.386-2.31c0.463-0.769,0.966-1.496,1.479-2.219c0,0,0.131-0.163,0.372-0.466
				c0.246-0.296,0.584-0.753,1.056-1.267c0.462-0.521,1.021-1.151,1.652-1.854c0.646-0.687,1.382-1.423,2.164-2.219
				c3.157-3.139,7.424-6.661,11.175-9.19c1.549-1.123,2.89-1.963,3.979-2.635c1.107-0.651,1.994-1.099,2.673-1.383
				c1.356-0.57,1.907-0.469,1.857,0.093c-0.087,1.13-2.592,4.065-5.638,7.512c0.433-0.244-3.44,3.672-6.849,7.989
				c-0.853,1.078-1.71,2.155-2.448,3.208c-0.776,1.027-1.433,2.026-1.998,2.877c-0.588,0.846-0.996,1.583-1.308,2.084
				c-0.307,0.51-0.484,0.798-0.484,0.798c-0.391,0.565-0.728,1.152-1.098,1.729c-0.375,0.572-0.7,1.163-1.018,1.756l-0.486,0.883
				c-0.08,0.146-0.167,0.291-0.23,0.444l-0.31,0.664c-1.323,2.754-2.25,5.602-2.596,8.43c-0.854,5.929,1.405,11.676,5.491,16.532
				c2.033,2.438,4.467,4.655,7.095,6.699l1.63,1.238l0.264,0.84l0.137,0.436l0.017,0.056l-0.099-0.322l-0.209-0.658
				c-0.125-0.442-0.287-0.87-0.457-1.293c-0.175-0.437-0.313-0.843-0.518-1.297l-0.613-1.375l-1.231-2.751l-2.46-5.502
				c-0.411-0.91-0.816-1.851-1.233-2.733l-1.249-2.652l-2.501-5.307l-1.252-2.651l-0.606-1.281l-0.071-0.157l-0.038-0.08
				c-0.006-0.019-0.044-0.076,0-0.032l0.306,0.245l0.616,0.491l10.454,8.363l1.385,1.107l0.69,0.556
				c0.231,0.186,0.47,0.379,0.665,0.514l2.465,1.784l2.467,1.783l1.233,0.893c0.407,0.289,0.835,0.62,1.207,0.833
				c0.776,0.487,1.554,0.97,2.338,1.378l1.424,0.778c0.731,0.421,1.497,0.788,2.26,1.161c3.022,1.544,6.213,2.817,9.404,4.065
				c3.236,1.162,6.496,2.285,9.836,3.21c1.652,0.504,3.343,0.905,5.02,1.354c1.686,0.399,3.369,0.828,5.071,1.183l2.552,0.542
				l2.563,0.494l1.459,0.278l0.403,0.068l-0.236-0.753c-1.119-3.207-2.35-6.395-3.79-9.516c-2.837-6.255-6.267-12.287-10.04-18.096
				c-2.14-3.264-4.414-6.444-6.768-9.559l-1.078-1.383c-0.607-0.791-1.223-1.579-1.876-2.362c-1.278-1.574-2.67-3.166-4.003-4.752
				l-4.018-4.716l-1.005-1.173l-0.499-0.582c-0.035-0.044-0.102-0.108-0.106-0.138l0.138-0.001l0.282-0.011l2.443-0.068l6.136-0.175
				l1.463-0.041c0.494-0.005,0.948-0.059,1.511,0.02l3.228,0.296c0.542,0.058,1.067,0.08,1.623,0.166
				c0.567,0.104,1.12,0.188,1.7,0.313l1.8,0.507l0.438,0.123l-0.704-0.2l-1.417-0.398l-0.217-0.061l-2.406-2.393
				c-3.248-3.034-6.866-5.71-10.67-7.618c-1.824-0.908-3.688-1.626-5.507-2.048C237.918,188.875,236.171,188.827,234.659,189.11z"/>
		</g>
	</g>
</g>
</svg>
