<?xml version="1.0" encoding="utf-8"?>
<!-- Generator: Adobe Illustrator 16.0.0, SVG Export Plug-In . SVG Version: 6.00 Build 0)  -->
<!DOCTYPE svg PUBLIC "-//W3C//DTD SVG 1.1//EN" "http://www.w3.org/Graphics/SVG/1.1/DTD/svg11.dtd">
<svg version="1.1" id="Capa_1" xmlns="http://www.w3.org/2000/svg" xmlns:xlink="http://www.w3.org/1999/xlink" x="0px" y="0px"
	 width="168.824px" height="50.333px" viewBox="0 0 168.824 50.333" enable-background="new 0 0 168.824 50.333"
	 xml:space="preserve">
<g>
	<polygon fill="#FFFFFF" points="17.825,5.576 4.912,5.576 4.912,44.591 34.077,44.591 34.077,33.849 17.825,33.849 	"/>
	<path fill="#FFFFFF" d="M56.893,5.186c-12.411,0-21.428,8.293-21.428,19.869c0,11.633,9.017,20.093,21.428,20.093
		c12.412,0,21.428-8.516,21.428-20.093C78.321,13.535,69.304,5.186,56.893,5.186z M57.06,34.406c-4.453,0-8.349-3.951-8.349-9.295
		c0-5.343,3.84-9.183,8.349-9.183c4.452,0,8.014,3.84,8.014,9.183C65.074,30.455,61.512,34.406,57.06,34.406z"/>
	<path fill="#FFFFFF" d="M101.915,15.928c3.229,0,7.013,1.613,9.628,4.118l7.292-8.85c-4.174-3.673-10.798-6.011-16.864-6.011
		c-12.746,0-21.984,8.404-21.984,19.925c0,11.577,8.905,20.037,21.149,20.037c5.566,0,12.745-2.115,17.087-5.01V24.054h-11.077
		v9.071c-1.893,0.779-3.785,1.28-5.12,1.28c-5.065,0-8.794-3.896-8.794-9.295C93.232,19.824,96.906,15.928,101.915,15.928z"/>
	<path fill="#FFFFFF" d="M142.485,5.186c-12.412,0-21.429,8.293-21.429,19.869c0,11.633,9.017,20.093,21.429,20.093
		s21.427-8.516,21.427-20.093C163.912,13.535,154.896,5.186,142.485,5.186z M142.652,34.406c-4.454,0-8.349-3.951-8.349-9.295
		c0-5.343,3.84-9.183,8.349-9.183c4.453,0,8.015,3.84,8.015,9.183C150.667,30.455,147.104,34.406,142.652,34.406z"/>
</g>
</svg>
